<svg id="Grupo_697" data-name="Grupo 697" xmlns="http://www.w3.org/2000/svg" width="116.181" height="101.677" viewBox="0 0 116.181 101.677">
  <path id="Trazado_905" data-name="Trazado 905" d="M204.706,245.212a1.7,1.7,0,0,1,.2-1.4v1.361a.409.409,0,0,1-.2.035" transform="translate(-88.721 -217.276)" fill="#009fdd"/>
  <path id="Trazado_906" data-name="Trazado 906" d="M155.7,229.093h0a2.791,2.791,0,0,1-.079-.379A20.064,20.064,0,0,0,129.842,212.3a20.458,20.458,0,0,0-9.805,6.638c-5.2-8.265-12.506-12.912-22.306-12.9s-17.1,4.652-22.258,12.9c-.177-.2-.3-.338-.425-.479a20.06,20.06,0,0,0-23.68-5.211,19.844,19.844,0,0,0-11.395,21.59c1.493,8.185,6.387,13.719,14.411,15.962,7.888,2.2,14.759,0,20.374-5.971.606-.644.811-.784,1.352.089a24.94,24.94,0,0,0,14.206,10.944c.859.268,1.083.589,1.081,1.445-.031,10.094-.02,20.188-.02,30.282v1c-.526-.1-.705-.459-.958-.709-2.685-2.661-5.309-5.385-8.05-7.988a6.4,6.4,0,0,0-8.912.151,6.268,6.268,0,0,0-.111,8.8Q81.453,297.1,89.713,305.2a8.445,8.445,0,0,0,6.037,2.481c9.3.028,18.6.071,27.9-.011a9.461,9.461,0,0,0,9.272-9.185c.109-5.139.072-10.282.02-15.423a6.349,6.349,0,0,0-4.754-6.057,6.669,6.669,0,0,0-4.749.544c-.028-.214-.05-.36-.065-.508-.484-4.648-4.521-7.239-8.891-5.635-.955.351-.684-.235-.71-.661-.23-3.591-2.385-6.042-5.753-6.539a7.885,7.885,0,0,0-3.884.744c0-2.687.033-5.293-.021-7.9-.015-.729.268-.938.9-1.129A25.14,25.14,0,0,0,119.483,244.8c.424-.682.59-.716,1.141-.113a19.666,19.666,0,0,0,19.122,6.476c8.307-1.525,15.2-9.039,15.887-17.183.029-.347.075-.7.075-.7.024-.267.085-.993.089-1.973,0,0,0-1.153-.1-2.21M70.108,244.9a17.068,17.068,0,0,1-20.627.037c-.713-.564-.575-1.155-.415-1.8a6.414,6.414,0,0,1,6.226-4.832c1.51-.044,3.023-.008,4.934-.008a40.371,40.371,0,0,1,5.255.148,6.338,6.338,0,0,1,5.107,5.106,1.2,1.2,0,0,1-.48,1.349m3.237-3.467c-1.959-4.494-5.442-6.459-10.254-6.327-2.907.079-5.831-.111-8.723.121a9.092,9.092,0,0,0-7.91,5.752c-.061.136-.139.263-.213.4a14.629,14.629,0,0,1-3.163-7.188c-1.348-9.587,4.636-17.963,14.229-19.4,6.718-1.005,12.2,1.523,16.3,6.977a1.055,1.055,0,0,1,.131,1.131,25.034,25.034,0,0,0,.021,17.189,1.038,1.038,0,0,1-.422,1.343m30.774,29.328c.412-2.326,1.69-3.594,3.435-3.416,1.886.192,3.025,1.668,3.038,3.965.011,1.852-.008,3.7.006,5.555.01,1.252.572,1.953,1.537,1.979.906.024,1.47-.585,1.652-1.787a3.147,3.147,0,0,1,3.332-2.989A3.316,3.316,0,0,1,120.2,277.5c.032,1.775,0,3.552.012,5.328.008,1.157.564,1.857,1.485,1.912s1.562-.6,1.693-1.728a3.18,3.18,0,0,1,3.286-3.05,3.219,3.219,0,0,1,3.1,3.268c.033,5.026.065,10.053-.014,15.078a6.318,6.318,0,0,1-6.272,6.2c-9.183.051-18.366.024-27.549.012a6.278,6.278,0,0,1-4.52-2.038Q83.674,294.748,75.945,287a3.251,3.251,0,0,1-.221-4.741,3.29,3.29,0,0,1,4.764.2c3.523,3.477,7.01,6.993,10.511,10.492.214.214.427.429.641.641a1.591,1.591,0,0,0,1.928.507,1.722,1.722,0,0,0,.986-1.754q-.005-5.612,0-11.224v-9.3q0-10.033,0-20.067c0-2.191,1.241-3.662,3.107-3.71s3.287,1.52,3.292,3.688c.012,6.009,0,12.018.007,18.026a4.538,4.538,0,0,0,.065,1.126,1.574,1.574,0,0,0,3.094-.13m7.449-21.7a25.383,25.383,0,0,1-6.412,3.527c-.887.33-1.048.145-1.044-.766.013-3.566-2.048-6.192-5.237-6.8a6.325,6.325,0,0,0-7.49,6.07c-.057,1.889-.061,1.9-1.827,1.191A24.748,24.748,0,0,1,83.98,249.1a1.706,1.706,0,0,1-.724-1.833,8.768,8.768,0,0,1,8.354-7.406c2.038-.046,4.079-.008,6.654-.008,2.026.129,4.606-.274,7.151.2a8.711,8.711,0,0,1,6.842,7.273,1.63,1.63,0,0,1-.69,1.735m3.52-3.667c-1.914-5.68-6.148-8.725-12.047-8.728H92.954c-6.417,0-10.28,2.672-12.55,8.68-6.21-6.976-7.522-20.346,1.423-29.558a22.407,22.407,0,0,1,31.587-.261c9.059,8.973,8.144,22.421,1.674,29.866m30.709-.289a16.962,16.962,0,0,1-20.085.027,1.638,1.638,0,0,1-.731-1.986,6.494,6.494,0,0,1,6.233-4.846c1.51-.046,3.022-.008,4.936-.008a35.9,35.9,0,0,1,5.25.151,6.223,6.223,0,0,1,5.064,4.748,1.539,1.539,0,0,1-.667,1.913m3.5-3.672a14.666,14.666,0,0,0-1.455-2.556,9.028,9.028,0,0,0-6.865-3.686,102.723,102.723,0,0,0-10.536.014c-3.974.251-6.675,2.517-8.241,6.151-.665-.6-.674-.6-.427-1.31a25.173,25.173,0,0,0,0-17.086,1.282,1.282,0,0,1,.216-1.325,16.89,16.89,0,0,1,30.459,7.418,16.369,16.369,0,0,1-3.153,12.38" transform="translate(-39.649 -206.041)" fill="#009fdd"/>
  <path id="Trazado_907" data-name="Trazado 907" d="M126.724,225.33a7.56,7.56,0,0,0-5.855-6.932,7.648,7.648,0,0,0-8.117,3.175,8.557,8.557,0,0,0-1.309,5.4c0,.49-.022.982,0,1.471a7.651,7.651,0,0,0,15.009,1.839,13.787,13.787,0,0,0,.268-4.95m-3.207,3.516a4.453,4.453,0,0,1-8.836-.093,14.971,14.971,0,0,1-.015-3.384,4.384,4.384,0,0,1,4.541-3.99,4.447,4.447,0,0,1,4.371,4.194c.044.486.006.979.006,1.47h.046a17.439,17.439,0,0,1-.112,1.8" transform="translate(-60.996 -209.652)" fill="#009fdd"/>
  <path id="Trazado_908" data-name="Trazado 908" d="M71.891,229.323a6.261,6.261,0,0,0-12.412-1.1,13.817,13.817,0,0,0-.093,3.389,6.266,6.266,0,0,0,7.829,5.708c3.08-.833,4.683-3.221,4.678-6.976,0-.34.008-.68,0-1.019m-3.177,1.022c.009,2.321-.677,3.51-2.257,3.931a3.067,3.067,0,0,1-3.9-2.829c-.04-.678-.029-1.361-.008-2.04a3.082,3.082,0,1,1,6.163-.081c.016.339,0,.68,0,1.02" transform="translate(-45.502 -211.124)" fill="#009fdd"/>
  <path id="Trazado_909" data-name="Trazado 909" d="M179.967,228.674a6.238,6.238,0,0,0-7.7-5.35c-3.138.79-4.782,3.191-4.775,6.986,0,.377-.01.755,0,1.131a6.25,6.25,0,0,0,12.351,1.285,12.14,12.14,0,0,0,.122-4.052m-3.133,2.6a3.08,3.08,0,0,1-6.159.039c-.018-.339,0-.68,0-1.02h.008c0-.378-.022-.757,0-1.133a3.076,3.076,0,0,1,6.138-.039,19.291,19.291,0,0,1,.011,2.153" transform="translate(-77.67 -211.126)" fill="#009fdd"/>
</svg>
