<svg id="Grupo_891" data-name="Grupo 891" xmlns="http://www.w3.org/2000/svg" width="184.281" height="161.276" viewBox="0 0 184.281 161.276">
  <path id="Trazado_905" data-name="Trazado 905" d="M204.741,246.03a2.689,2.689,0,0,1,.311-2.214v2.159a.649.649,0,0,1-.311.056" transform="translate(-20.77 -201.719)" fill="#fff"/>
  <path id="Trazado_906" data-name="Trazado 906" d="M223.718,242.605h0a4.427,4.427,0,0,1-.126-.6,31.825,31.825,0,0,0-40.882-26.036A32.45,32.45,0,0,0,167.157,226.5c-8.246-13.11-19.837-20.481-35.382-20.454-15.522.026-27.126,7.379-35.3,20.456-.281-.317-.48-.536-.674-.76a31.819,31.819,0,0,0-37.56-8.266c-13.167,6.147-20.681,19.945-18.074,34.245,2.368,12.983,10.13,21.76,22.859,25.318,12.512,3.5,23.409-.007,32.316-9.47.962-1.022,1.287-1.244,2.145.14a39.559,39.559,0,0,0,22.533,17.358c1.363.424,1.718.934,1.714,2.292-.049,16.011-.031,32.022-.031,48.032v1.594c-.834-.154-1.119-.728-1.519-1.124-4.258-4.221-8.422-8.542-12.769-12.67a10.151,10.151,0,0,0-14.136.24,9.942,9.942,0,0,0-.176,13.961q12.858,13.089,25.96,25.936a13.4,13.4,0,0,0,9.575,3.935c14.75.045,29.5.113,44.252-.018a15.006,15.006,0,0,0,14.707-14.569c.173-8.152.114-16.309.032-24.464a10.071,10.071,0,0,0-7.541-9.607,10.578,10.578,0,0,0-7.533.864c-.045-.339-.079-.572-.1-.806-.768-7.373-7.171-11.483-14.1-8.939-1.515.556-1.084-.373-1.127-1.049-.364-5.7-3.782-9.583-9.125-10.372-2.147-.318-4.109.431-6.16,1.18,0-4.263.052-8.395-.033-12.525-.025-1.156.426-1.488,1.423-1.791a39.876,39.876,0,0,0,22.957-17.649c.672-1.082.936-1.136,1.81-.179,8.211,8.984,18.362,12.467,30.331,10.272,13.177-2.418,24.109-14.338,25.2-27.255.046-.551.119-1.112.119-1.112.038-.423.135-1.575.14-3.129,0,0,.008-1.829-.16-3.506M87.962,267.679c-9.179,7.361-23.467,7.369-32.718.058-1.131-.894-.913-1.832-.659-2.855a10.173,10.173,0,0,1,9.876-7.664c2.395-.07,4.794-.012,7.825-.012,2.354.141,5.359-.285,8.336.235a10.053,10.053,0,0,1,8.1,8.1,1.91,1.91,0,0,1-.761,2.14m5.134-5.5c-3.107-7.129-8.631-10.245-16.264-10.036-4.611.126-9.249-.176-13.837.192-5.9.474-10.1,3.7-12.547,9.124-.1.215-.221.418-.338.637-2.213-2.214-4.439-7.288-5.017-11.4-2.137-15.206,7.354-28.492,22.569-30.77,10.656-1.595,19.356,2.416,25.86,11.066a1.674,1.674,0,0,1,.208,1.794,39.707,39.707,0,0,0,.033,27.264,1.646,1.646,0,0,1-.669,2.131M141.909,308.7c.654-3.69,2.68-5.7,5.448-5.418,2.991.3,4.8,2.646,4.819,6.289.018,2.938-.013,5.874.01,8.812.016,1.986.907,3.1,2.437,3.139,1.438.038,2.331-.928,2.621-2.835.467-3.07,2.478-4.873,5.286-4.741a5.259,5.259,0,0,1,4.879,5.446c.051,2.816,0,5.634.019,8.452.012,1.835.895,2.945,2.355,3.033s2.477-.953,2.685-2.74c.345-2.986,2.435-4.926,5.212-4.838a5.106,5.106,0,0,1,4.911,5.183c.052,7.971.1,15.945-.022,23.915a10.021,10.021,0,0,1-9.948,9.827c-14.565.08-29.131.038-43.7.019a9.958,9.958,0,0,1-7.17-3.233q-12.273-12.266-24.532-24.549c-2.3-2.312-2.409-5.461-.35-7.52,2.043-2.043,5.234-1.975,7.557.318,5.589,5.515,11.119,11.092,16.672,16.643.34.34.678.68,1.017,1.017a2.524,2.524,0,0,0,3.058.8,2.731,2.731,0,0,0,1.564-2.782q-.008-8.9,0-17.8V310.392q0-15.914,0-31.829c0-3.476,1.968-5.808,4.928-5.884s5.214,2.411,5.221,5.85c.019,9.53.006,19.062.011,28.593a7.2,7.2,0,0,0,.1,1.785,2.5,2.5,0,0,0,4.908-.206m11.815-34.413a40.262,40.262,0,0,1-10.17,5.594c-1.406.523-1.662.23-1.656-1.215.021-5.657-3.249-9.821-8.307-10.788a10.032,10.032,0,0,0-11.88,9.627c-.09,3-.1,3.01-2.9,1.889a39.254,39.254,0,0,1-8.847-5.055,2.705,2.705,0,0,1-1.148-2.908,13.908,13.908,0,0,1,13.252-11.747c3.233-.072,6.47-.012,10.555-.012,3.213.2,7.306-.435,11.343.324a13.817,13.817,0,0,1,10.852,11.536,2.586,2.586,0,0,1-1.094,2.753m5.583-5.816c-3.036-9.01-9.752-13.84-19.108-13.843q-8,0-16,0c-10.179,0-16.306,4.238-19.906,13.769-9.85-11.065-11.931-32.272,2.258-46.883a35.541,35.541,0,0,1,50.1-.413c14.369,14.233,12.918,35.563,2.655,47.372m48.71-.459a26.9,26.9,0,0,1-31.858.043A2.6,2.6,0,0,1,175,264.9a10.3,10.3,0,0,1,9.886-7.686c2.395-.072,4.793-.012,7.83-.012,2.348.143,5.361-.327,8.328.24,4.24.81,6.839,3.446,8.032,7.531a2.442,2.442,0,0,1-1.059,3.035m5.556-5.824a23.262,23.262,0,0,0-2.308-4.054,14.32,14.32,0,0,0-10.889-5.847,162.936,162.936,0,0,0-16.712.022c-6.3.4-10.588,3.992-13.071,9.757-1.054-.945-1.07-.951-.678-2.078a39.928,39.928,0,0,0,0-27.1,2.034,2.034,0,0,1,.342-2.1,26.94,26.94,0,0,1,27.72-10.55c11.036,2.679,19.256,11.588,20.593,22.316.926,7.437-.918,14.73-5,19.637" transform="translate(-39.649 -206.041)" fill="#fff"/>
  <path id="Trazado_907" data-name="Trazado 907" d="M135.691,229.521a11.992,11.992,0,0,0-9.288-11,12.132,12.132,0,0,0-12.875,5.036,13.573,13.573,0,0,0-2.076,8.561c0,.777-.035,1.557.008,2.334a12.135,12.135,0,0,0,23.806,2.916,21.868,21.868,0,0,0,.425-7.851M130.6,235.1a7.063,7.063,0,0,1-14.016-.148,23.746,23.746,0,0,1-.025-5.367,6.954,6.954,0,0,1,7.2-6.329,7.053,7.053,0,0,1,6.933,6.653c.069.771.01,1.554.01,2.331l.072,0a27.658,27.658,0,0,1-.177,2.857" transform="translate(-31.436 -204.652)" fill="#fff"/>
  <path id="Trazado_908" data-name="Trazado 908" d="M79.255,232.952A9.93,9.93,0,0,0,59.568,231.2a21.916,21.916,0,0,0-.148,5.376,9.939,9.939,0,0,0,12.418,9.054c4.886-1.321,7.429-5.11,7.42-11.065,0-.539.013-1.079,0-1.617m-5.039,1.62c.014,3.681-1.073,5.568-3.581,6.235a4.865,4.865,0,0,1-6.185-4.488c-.064-1.075-.046-2.159-.013-3.236a4.888,4.888,0,1,1,9.776-.129c.026.538,0,1.079,0,1.618" transform="translate(-37.397 -204.085)" fill="#fff"/>
  <path id="Trazado_909" data-name="Trazado 909" d="M187.281,231.92a9.894,9.894,0,0,0-12.212-8.486c-4.978,1.254-7.585,5.062-7.574,11.081,0,.6-.016,1.2,0,1.794a9.914,9.914,0,0,0,19.59,2.038,19.257,19.257,0,0,0,.193-6.427m-4.969,4.124a4.885,4.885,0,0,1-9.769.062c-.028-.538,0-1.079,0-1.618h.013c0-.6-.035-1.2.006-1.8a4.88,4.88,0,0,1,9.736-.061,30.6,30.6,0,0,1,.018,3.415" transform="translate(-25.022 -204.085)" fill="#fff"/>
</svg>
