<?xml version="1.0" encoding="UTF-8" standalone="no" ?>
<!DOCTYPE svg PUBLIC "-//W3C//DTD SVG 1.1//EN" "http://www.w3.org/Graphics/SVG/1.1/DTD/svg11.dtd">
<svg xmlns="http://www.w3.org/2000/svg" xmlns:xlink="http://www.w3.org/1999/xlink" version="1.1" width="1878" height="450" viewBox="0 0 1878 450" xml:space="preserve">
<desc>Created with Fabric.js 4.6.0</desc>
<defs>
</defs>
<g transform="matrix(0.95 0 0 0.95 154.41 142.27)" id="GPim38Haa0teRfgeeMPTi"  >
<path style="stroke: none; stroke-width: 1; stroke-dasharray: none; stroke-linecap: butt; stroke-dashoffset: 0; stroke-linejoin: miter; stroke-miterlimit: 4; fill: rgb(255,255,255); fill-rule: nonzero; opacity: 1;" vector-effect="non-scaling-stroke"  transform=" translate(-133.72, -913.12)" d="M 0 782.43 C 0 782.43 201.55 884.5899999999999 224.18 896.03 C 246.82 907.47 267.45 921.99 267.45 955.88 L 267.45 1043.81 L 44.58 930.88 C 14.87 915.55 0 895.38 0 868.75 L 0 782.43 z" stroke-linecap="round" />
</g>
<g transform="matrix(0.95 0 0 0.95 517.27 237.76)" id="EjWCdU3yLWtHy8nPCRekh"  >
<path style="stroke: none; stroke-width: 1; stroke-dasharray: none; stroke-linecap: butt; stroke-dashoffset: 0; stroke-linejoin: miter; stroke-miterlimit: 4; fill: rgb(255,255,255); fill-rule: nonzero; opacity: 1;" vector-effect="non-scaling-stroke"  transform=" translate(-515.87, -1013.68)" d="M 566.26 984.4 L 566.26 983.64 C 566.26 949.8 542.91 927.36 515.29 927.36 C 487.66999999999996 927.36 464.71 949.8000000000001 464.71 983.64 L 464.71 984.4 C 464.71 1018.24 487.66999999999996 1040.68 515.29 1040.68 C 542.91 1040.68 566.26 1018.62 566.26 984.4 M 406.34 908.73 C 406.34 892.76 419.57 879.83 435.90999999999997 879.83 C 452.24999999999994 879.83 465.47999999999996 892.76 465.47999999999996 908.73 L 465.47999999999996 911.4 C 479.87999999999994 892.38 499.71999999999997 878.31 530.4599999999999 878.31 C 579.0999999999999 878.31 625.3999999999999 915.5799999999999 625.3999999999999 983.65 L 625.3999999999999 984.41 C 625.3999999999999 1052.47 579.8799999999999 1089.74 530.4599999999998 1089.74 C 498.9399999999998 1089.74 479.4899999999998 1075.67 465.4799999999998 1059.32 L 465.4799999999998 1120.1599999999999 C 465.4799999999998 1136.12 452.2499999999998 1149.06 435.9099999999998 1149.06 C 419.5699999999998 1149.06 406.3399999999998 1136.1299999999999 406.3399999999998 1120.1599999999999 L 406.3399999999998 908.73 z" stroke-linecap="round" />
</g>
<g transform="matrix(0.95 0 0 0.95 728.32 210.31)" id="cVGrTqzMRam1-_aSaG0H5"  >
<path style="stroke: none; stroke-width: 1; stroke-dasharray: none; stroke-linecap: butt; stroke-dashoffset: 0; stroke-linejoin: miter; stroke-miterlimit: 4; fill: rgb(255,255,255); fill-rule: nonzero; opacity: 1;" vector-effect="non-scaling-stroke"  transform=" translate(-738.13, -984.78)" d="M 778.01 1014.06 L 778.01 1003.79 C 767.89 999.2199999999999 754.66 996.1899999999999 740.27 996.1899999999999 C 714.98 996.1899999999999 699.41 1006.0699999999999 699.41 1024.32 L 699.41 1025.08 C 699.41 1040.6699999999998 712.64 1049.8 731.6999999999999 1049.8 C 759.33 1049.8 778.01 1034.97 778.01 1014.06 M 642.22 1027.37 L 642.22 1026.61 C 642.22 982.1199999999999 676.84 961.5799999999999 726.26 961.5799999999999 C 747.27 961.5799999999999 762.45 964.9999999999999 777.23 969.9499999999999 L 777.23 966.53 C 777.23 942.5799999999999 762.0600000000001 929.27 732.49 929.27 C 716.15 929.27 702.92 931.55 691.63 934.97 C 688.13 936.11 685.8 936.49 683.07 936.49 C 669.45 936.49 658.5600000000001 926.22 658.5600000000001 912.91 C 658.5600000000001 902.64 665.1700000000001 893.89 674.5100000000001 890.4699999999999 C 693.1800000000001 883.6299999999999 713.4200000000001 879.8299999999999 741.0400000000001 879.8299999999999 C 773.33 879.8299999999999 796.6800000000001 888.1899999999999 811.47 902.6399999999999 C 827.03 917.8499999999999 834.03 940.2899999999998 834.03 967.6599999999999 L 834.03 1060.4399999999998 C 834.03 1076.0299999999997 821.1899999999999 1088.1999999999998 805.24 1088.1999999999998 C 788.12 1088.1999999999998 776.84 1076.4199999999998 776.84 1064.2499999999998 L 776.84 1063.8699999999997 C 762.45 1079.4599999999996 742.6 1089.7299999999996 713.8000000000001 1089.7299999999996 C 674.51 1089.73 642.22 1067.67 642.22 1027.37" stroke-linecap="round" />
</g>
<g transform="matrix(0.95 0 0 0.95 886.43 174.56)" id="kpO-TdEmiK94G8qucOI3V"  >
<path style="stroke: none; stroke-width: 1; stroke-dasharray: none; stroke-linecap: butt; stroke-dashoffset: 0; stroke-linejoin: miter; stroke-miterlimit: 4; fill: rgb(255,255,255); fill-rule: nonzero; opacity: 1;" vector-effect="non-scaling-stroke"  transform=" translate(-904.63, -947.13)" d="M 875.06 834.96 C 875.06 818.99 888.29 806.0600000000001 904.63 806.0600000000001 C 920.97 806.0600000000001 934.2 818.99 934.2 834.96 L 934.2 1059.31 C 934.2 1075.28 920.97 1088.2 904.63 1088.2 C 888.29 1088.2 875.06 1075.28 875.06 1059.31 L 875.06 834.96 z" stroke-linecap="round" />
</g>
<g transform="matrix(0.95 0 0 0.95 1040.89 209.94)" id="v2RmWGJ8SStIWqA1Ihf7A"  >
<path style="stroke: none; stroke-width: 1; stroke-dasharray: none; stroke-linecap: butt; stroke-dashoffset: 0; stroke-linejoin: miter; stroke-miterlimit: 4; fill: rgb(255,255,255); fill-rule: nonzero; opacity: 1;" vector-effect="non-scaling-stroke"  transform=" translate(-1067.3, -984.39)" d="M 1112.62 968.05 C 1109.12 942.1899999999999 1093.55 924.6999999999999 1068.6499999999999 924.6999999999999 C 1044.1299999999999 924.6999999999999 1028.1799999999998 941.8199999999999 1023.5099999999999 968.05 L 1112.62 968.05 z M 1074.49 1090.49 C 1011.85 1090.49 965.55 1047.52 965.55 985.15 L 965.55 984.39 C 965.55 926.21 1007.9599999999999 878.3 1068.6599999999999 878.3 C 1138.31 878.3 1169.04 934.2099999999999 1169.04 976.4 C 1169.04 993.14 1156.98 1004.16 1141.42 1004.16 L 1024.3 1004.16 C 1030.1299999999999 1030.3899999999999 1048.81 1044.09 1075.27 1044.09 C 1091.61 1044.09 1105.23 1039.1499999999999 1117.29 1030.3999999999999 C 1121.57 1027.36 1125.47 1025.84 1131.69 1025.84 C 1144.92 1025.84 1154.65 1035.73 1154.65 1048.6499999999999 C 1154.65 1056.2599999999998 1151.15 1061.9599999999998 1146.8700000000001 1065.7699999999998 C 1128.57 1080.99 1104.84 1090.49 1074.49 1090.49" stroke-linecap="round" />
</g>
<g transform="matrix(0.95 0 0 0.95 1227.73 209.59)" id="_47HxZGGYmjw9Rl2OzS2W"  >
<path style="stroke: none; stroke-width: 1; stroke-dasharray: none; stroke-linecap: butt; stroke-dashoffset: 0; stroke-linejoin: miter; stroke-miterlimit: 4; fill: rgb(255,255,255); fill-rule: nonzero; opacity: 1;" vector-effect="non-scaling-stroke"  transform=" translate(-1264.05, -984.02)" d="M 1200.05 908.73 C 1200.05 892.76 1213.28 879.83 1229.6299999999999 879.83 C 1245.9699999999998 879.83 1259.1899999999998 892.76 1259.1899999999998 908.73 L 1259.1899999999998 917.86 C 1267.7599999999998 898.09 1281.7599999999998 879.83 1299.2699999999998 879.83 C 1317.5599999999997 879.83 1328.0599999999997 891.62 1328.0599999999997 907.97 C 1328.0599999999997 923.1800000000001 1317.9399999999998 932.3000000000001 1305.8799999999997 934.97 C 1275.9199999999996 941.8100000000001 1259.1899999999996 964.25 1259.1899999999996 1005.3100000000001 L 1259.1899999999996 1059.31 C 1259.1899999999996 1075.28 1245.9599999999996 1088.21 1229.6299999999997 1088.21 C 1213.2899999999997 1088.21 1200.0499999999997 1075.28 1200.0499999999997 1059.31 L 1200.0499999999997 908.73 z" stroke-linecap="round" />
</g>
<g transform="matrix(0.95 0 0 0.95 1457.82 208.87)" id="LPVv0XBphv9Fl4ZUgjYdj"  >
<path style="stroke: none; stroke-width: 1; stroke-dasharray: none; stroke-linecap: butt; stroke-dashoffset: 0; stroke-linejoin: miter; stroke-miterlimit: 4; fill: rgb(255,255,255); fill-rule: nonzero; opacity: 1;" vector-effect="non-scaling-stroke"  transform=" translate(-1506.37, -983.26)" d="M 1347.23 908.73 C 1347.23 892.76 1360.46 879.83 1376.81 879.83 C 1393.1499999999999 879.83 1406.37 892.76 1406.37 908.73 L 1406.37 911.01 C 1419.9899999999998 893.9 1437.8899999999999 878.31 1467.85 878.31 C 1495.08 878.31 1515.6999999999998 890.0999999999999 1526.6 910.63 C 1544.8899999999999 889.72 1566.6799999999998 878.31 1595.08 878.31 C 1639.04 878.31 1665.5 904.17 1665.5 953.2199999999999 L 1665.5 1059.31 C 1665.5 1075.28 1652.27 1088.21 1635.93 1088.21 C 1619.5900000000001 1088.21 1606.3500000000001 1075.28 1606.3500000000001 1059.31 L 1606.3500000000001 972.2299999999999 C 1606.3500000000001 944.8499999999999 1593.9 930.7799999999999 1571.7300000000002 930.7799999999999 C 1549.5600000000002 930.7799999999999 1535.9300000000003 944.8499999999999 1535.9300000000003 972.2299999999999 L 1535.9300000000003 1059.31 C 1535.9300000000003 1075.28 1522.7000000000003 1088.21 1506.3600000000004 1088.21 C 1490.0200000000004 1088.21 1476.7900000000004 1075.28 1476.7900000000004 1059.31 L 1476.7900000000004 972.2299999999999 C 1476.7900000000004 944.8499999999999 1464.3400000000004 930.7799999999999 1442.1700000000005 930.7799999999999 C 1419.9900000000005 930.7799999999999 1406.3700000000006 944.8499999999999 1406.3700000000006 972.2299999999999 L 1406.3700000000006 1059.31 C 1406.3700000000006 1075.28 1393.1400000000006 1088.21 1376.8100000000006 1088.21 C 1360.4700000000007 1088.21 1347.2300000000007 1075.28 1347.2300000000007 1059.31 L 1347.2300000000007 908.73 z" stroke-linecap="round" />
</g>
<g transform="matrix(0.95 0 0 0.95 1743.44 209.95)" id="eHJeoFQdMha3LhmMv92gJ"  >
<path style="stroke: none; stroke-width: 1; stroke-dasharray: none; stroke-linecap: butt; stroke-dashoffset: 0; stroke-linejoin: miter; stroke-miterlimit: 4; fill: rgb(255,255,255); fill-rule: nonzero; opacity: 1;" vector-effect="non-scaling-stroke"  transform=" translate(-1807.16, -984.4)" d="M 1861.64 985.16 L 1861.64 984.4 C 1861.64 954.36 1839.46 928.12 1806.7800000000002 928.12 C 1772.9300000000003 928.12 1752.7000000000003 953.6 1752.7000000000003 983.63 L 1752.7000000000003 984.39 C 1752.7000000000003 1014.43 1774.8800000000003 1040.67 1807.5600000000002 1040.67 C 1841.41 1040.68 1861.64 1015.19 1861.64 985.16 M 1694.33 985.16 L 1694.33 984.4 C 1694.33 925.8399999999999 1742.58 878.31 1807.55 878.31 C 1872.1399999999999 878.31 1919.99 925.0799999999999 1919.99 983.64 L 1919.99 984.4 C 1919.99 1042.96 1871.75 1090.49 1806.77 1090.49 C 1742.19 1090.49 1694.33 1043.71 1694.33 985.16" stroke-linecap="round" />
</g>
<g transform="matrix(0.95 0 0 0.95 154.41 307.74)" id="c1d3YLDpIMIW6AuKMtpMg"  >
<path style="stroke: none; stroke-width: 1; stroke-dasharray: none; stroke-linecap: butt; stroke-dashoffset: 0; stroke-linejoin: miter; stroke-miterlimit: 4; fill: rgb(255,255,255); fill-rule: nonzero; opacity: 1;" vector-effect="non-scaling-stroke"  transform=" translate(-133.73, -1087.38)" d="M 267.45 956.69 C 267.45 956.69 65.91 1058.8400000000001 43.26999999999998 1070.29 C 20.65 1081.74 0 1096.25 0 1130.13 L 0 1218.0600000000002 L 222.89 1105.1200000000001 C 252.6 1089.8000000000002 267.46 1069.63 267.46 1043.0100000000002 L 267.46 956.69 z" stroke-linecap="round" />
</g>
</svg>