<svg xmlns="http://www.w3.org/2000/svg" width="161.262" height="161.276" viewBox="0 0 161.262 161.276">
  <path id="Trazado_1186" data-name="Trazado 1186" d="M161,32.03c-.886-2.284-2.872-2.284-4.842-2.382-2.1-.1-4.2-.27-6.629-.432,1.873-1.847,3.489-3.414,5.076-5.011,1.357-1.364,1.488-2.812.391-3.838-1.053-.984-2.4-.816-3.719.507-1.611,1.61-3.2,3.244-5.042,5.116-.16-2.616-.382-4.8-.4-6.981-.018-2.084-.6-3.763-2.528-4.789h-2.2a5.139,5.139,0,0,0-2.194,1.438c-4.925,4.948-9.835,9.91-14.818,14.8a6.9,6.9,0,0,0-2.13,6.561c.356,1.979-.136,3.988.577,6.089a2.208,2.208,0,0,1-.91-.462C105.656,30,87.512,24.65,67.238,26.38A74.509,74.509,0,0,0,17.552,52.286,74.151,74.151,0,0,0,1.441,84.3,95.254,95.254,0,0,0,0,94.527v1.26c.194.174.155.408.162.629s.032.457-.162.63v1.259a2.41,2.41,0,0,1,0,1.89v3.149c.306.369.1.807.162,1.209-.045.334.118.7-.162,1v1.889c.505.16.311.606.345.926a74.658,74.658,0,0,0,18.87,42.5,2.335,2.335,0,0,0,2.665.836,2.267,2.267,0,0,0,1.594-2.131,3.278,3.278,0,0,0-1.146-2.326C7.984,130.559,2.219,111.281,5.737,89.57c3.224-19.9,13.557-35.556,30.306-46.755,15.222-10.177,32.041-13.589,50.1-10.658a68.84,68.84,0,0,1,35.2,16.907c.812.718.71,1.067.007,1.753-2.9,2.818-5.785,5.648-8.561,8.584-1,1.058-1.542,1.113-2.7.138C96.529,48.114,80.925,44.007,63.567,47.378,35.019,52.923,15.9,80.768,20.524,109.666c5.339,33.327,39.706,54.123,71.623,42.949,19.132-6.7,31.043-20.341,35.813-40.106.4-1.67-.26-2.9-1.638-3.2-1.447-.311-2.462.424-2.913,2.118-.161.607-.3,1.219-.462,1.826a50.089,50.089,0,0,1-59.8,36.352C36.788,143.686,19.7,116.554,25.751,90.23c4.864-21.165,21.645-36.4,43.193-38.877,14.333-1.649,27.032,2.455,38.1,11.692.877.732,1.03,1.11.114,1.984-2.962,2.825-5.845,5.735-8.688,8.68-.761.788-1.175.879-2.094.145a34.041,34.041,0,0,0-26.628-7.4c-19.148,2.5-32.84,20.9-29.677,39.861a34.859,34.859,0,1,0,61.445-27.4c-.361-.446-.91-.775-.161-1.5,3.2-3.1,6.341-6.276,9.474-9.451.495-.5.782-.519,1.212.039.83,1.081,1.758,2.088,2.564,3.186a49.047,49.047,0,0,1,9.843,28.646,3.383,3.383,0,0,0,.57,2.238,2.181,2.181,0,0,0,2.519.808,2.443,2.443,0,0,0,1.657-2.709,53.711,53.711,0,0,0-13.254-34.807c-.853-1-1.058-1.556.032-2.579,2.945-2.764,5.777-5.653,8.578-8.566.8-.832,1.18-.891,1.979.034,15.253,17.673,20.813,38.062,16.28,60.875-3.645,18.34-13.581,32.908-29.037,43.443-15.707,10.706-33.082,14.3-51.82,10.979a69.018,69.018,0,0,1-31-14.065c-1.454-1.143-2.837-1.028-3.718.182-.84,1.153-.562,2.457.827,3.528,18.072,13.93,38.4,19.142,60.8,14.835a74.134,74.134,0,0,0,60.018-68.02A73.056,73.056,0,0,0,135.209,57.69c-1.171-1.651-2.436-3.237-3.792-5.029,2.606.169,5.005.241,7.381.5a7.076,7.076,0,0,0,6.239-2.222c4.627-4.725,9.33-9.374,14.016-14.042,1.357-1.351,2.813-2.635,1.946-4.869M104.637,97.586C104.608,116.74,92.456,129.821,76.716,131A30.139,30.139,0,1,1,92.7,76.892c1.093.822,1.381,1.293.214,2.386C90.007,82,87.225,84.866,84.44,87.721c-.742.762-1.223.986-2.29.337a14.97,14.97,0,0,0-21.441,18.694A14.987,14.987,0,1,0,87.408,93.3c-.562-.943-.571-1.406.238-2.182,2.99-2.872,5.915-5.812,8.8-8.789.775-.8,1.17-.818,1.857.091,4.152,5.493,6.328,11.64,6.333,15.171m-31.746,5.036c1.011.978,2.307.934,3.485-.214,1.955-1.9,3.865-3.85,5.8-5.777,1.2-1.2,1.21-1.2,1.881.389A10.322,10.322,0,1,1,74.067,90.7a9.323,9.323,0,0,1,5.851,1.543l-5.69,5.667c-.408.408-.829.8-1.218,1.229-1.089,1.19-1.127,2.509-.118,3.486m54.086-67.234a1.547,1.547,0,0,1,.572-1.236l13.6-13.627c.211,3.4.4,6.448.593,9.493a1.012,1.012,0,0,1-.409.8c-4.487,4.53-8.977,9.056-13.72,13.84-.229-3.358-.428-6.315-.634-9.272m14.444,12.464a2.146,2.146,0,0,1-1.842.628c-2.77-.218-5.545-.392-8.332-.584-.095-.544.39-.7.651-.966,4.1-4.13,8.236-8.233,12.329-12.373a2.368,2.368,0,0,1,2.052-.812c2.762.226,5.532.382,8.708.593-4.736,4.713-9.159,9.1-13.566,13.513" transform="translate(0 -14.22)" fill="#fff"/>
</svg>
