<?xml version="1.0" encoding="utf-8"?>
<!-- Generator: Adobe Illustrator 22.0.1, SVG Export Plug-In . SVG Version: 6.00 Build 0)  -->
<svg version="1.1" id="Capa_1" xmlns="http://www.w3.org/2000/svg" xmlns:xlink="http://www.w3.org/1999/xlink" x="0px" y="0px"
	 viewBox="0 0 1366 768" style="enable-background:new 0 0 1366 768;" xml:space="preserve">
<style type="text/css">
	.st0{fill:#AAAAAA;}
</style>
<g>
	<path class="st0" d="M1085.8,318.4c2.3,57.4,1.2,114.8,1.5,172.2c0,3-0.6,3.9-3.8,3.9c-15.7-0.2-31.4-0.1-47.1,0c-2.5,0-3-0.7-3-3
		c0.1-86.1,0.1-172.3,0-258.4c0-2.6,0.8-3.1,3.3-3.1c16.8,0.1,33.6,0.1,50.3,0c1.9,0,3.1,0.4,4.1,2.2c23.7,39.9,47.6,79.6,71,119.7
		c11.2,19.2,20.4,39.4,30.2,59.4c0.4,0.9,0.9,1.8,1.7,3.2c0-3.7,0.1-6.7,0-9.7c-1-23.4-1.6-46.9-1.7-70.3c-0.1-33.7,0-67.3-0.1-101
		c0-2.9,0.8-3.5,3.6-3.5c15.7,0.1,31.4,0.1,47.1,0c2.7,0,3.3,0.8,3.3,3.4c-0.1,86-0.1,172.1,0,258.1c0,2.3-0.5,3.1-3,3.1
		c-17-0.1-34-0.1-51,0c-1.8,0-2.9-0.5-3.8-2.1c-23.7-40-47.7-79.8-71.2-119.9c-11.6-19.7-21-40.6-31-61.1
		C1084.8,313.5,1085.8,316,1085.8,318.4z"/>
	<path class="st0" d="M557,406.9c8.3,0,16.6,0,24.8,0c1.6,0,2.6,0.2,2.6,2.2c0.5,23.5,15.3,38.7,37.5,44.3c19.1,4.8,38.2,4.2,56.7-3
		c9.6-3.7,17.2-9.9,19.6-20.5c2.6-11.5-0.8-21-10.3-28.2c-8.7-6.6-18.9-10-29.2-13c-17.7-5.2-35.8-8.8-53.5-14.2
		c-13.2-4-26-8.8-37.6-16.4c-21.4-13.9-30.5-34-29.1-59c1.8-31.9,19.5-52.8,47.5-65.8c19.8-9.2,40.8-12,62.5-10.7
		c17.3,1.1,34.1,4.2,49.9,11.6c24.7,11.6,40.4,30.3,45.2,57.5c0.8,4.8,1,9.6,1.4,14.4c0.1,1.8-0.5,2.2-2.2,2.2
		c-16.9,0-33.8,0-50.6,0c-1.7,0-2.2-0.6-2.4-2.2c-1.8-21.2-14.3-32.7-35-36.5c-13.4-2.5-27-2.9-40.1,1.7
		c-9.9,3.5-18.3,9.2-20.6,20.3c-3,14.3,1.3,21.9,12.2,27.3c11.7,5.8,24.4,8.8,36.9,12.3c18.9,5.3,38.3,8.9,56.8,15.5
		c15.8,5.7,30,13.9,40.5,27.5c10,12.9,13.7,27.7,13.4,43.8c-0.7,37.9-24.1,64.7-59.7,76.4c-22.3,7.3-45.2,8.9-68.5,6.7
		c-20.3-2-39.5-7.3-56.7-18.4c-26.7-17.1-39.1-42.1-39.6-73.5c0-2,0.8-2.3,2.5-2.3C540.2,407,548.6,406.9,557,406.9z"/>
	<path class="st0" d="M83.9,362.4c0-43,0-86-0.1-129c0-2.6,0.5-3.4,3.3-3.4c63.7,0.1,127.3,0.1,191,0c2.7,0,3.4,0.7,3.3,3.4
		c-0.1,13.5-0.2,27.1,0,40.6c0,2.8-0.9,3.3-3.4,3.2c-45.1-0.1-90.1,0-135.2-0.1c-3.5,0-4.1,1-4.1,4.3c0.2,16.8,0.1,33.5,0.1,50.3
		c0,4.2,0,4.2,4.3,4.2c41.7,0,83.4,0,125.2-0.1c2.9,0,3.5,0.7,3.5,3.5c-0.2,13-0.2,26,0,39c0,2.8-0.6,3.6-3.5,3.6
		c-41.8-0.1-83.7,0-125.5-0.1c-3.1,0-4.2,0.5-4.1,3.9c0.2,19.2,0.2,38.5,0,57.7c0,3.1,0.5,4.1,3.9,4.1c45.1-0.1,90.1-0.1,135.2-0.2
		c3,0,3.7,0.8,3.6,3.7c-0.2,13.3-0.2,26.7,0,40c0,3.1-1,3.6-3.7,3.6c-63.4-0.1-126.9-0.1-190.3,0c-2.7,0-3.6-0.5-3.6-3.4
		C83.9,448.2,83.9,405.3,83.9,362.4z"/>
	<path class="st0" d="M1085.8,318.4c-0.8-2.4-0.4-4.9-0.6-7.3c0-0.3-0.2-1.3,0.7-0.6c0.2,0.2,0.3,0.6,0.4,0.9
		C1085.3,313.6,1086.5,316.1,1085.8,318.4z"/>
	<path class="st0" d="M1000.6,295.9c-11.8-28.5-30.9-50.4-59.4-63.1c-24.4-10.8-50-12.9-76.1-8.6c-35.6,5.9-62.8,24.5-80.9,55.9
		c-13,22.5-18.6,47.2-19.6,73c-1.2,28.5,2.5,56.2,14.8,82.3c12.8,27,32.5,47,60.5,58.2c23.5,9.3,47.8,11,72.5,6.8
		c37.2-6.3,64.7-26.3,82.5-59.6c13.1-24.4,17.6-50.9,17.8-77.6C1012.7,339.4,1009.4,317.1,1000.6,295.9z M946.4,418.3
		c-9.1,18.7-23.2,31.5-44.2,35.5c-32.5,6.2-59.9-8.4-73.1-38.9c-8-18.6-10.4-38.2-9.8-58.3c0.6-19,4.2-37.3,13.2-54.2
		c21.9-41.2,72.7-39.7,96.1-19.5c12.1,10.4,19.2,23.7,23.7,38.7c4,13.3,5.5,26.9,5.5,44.2C957.7,381.8,955,400.7,946.4,418.3z"/>
	<path class="st0" d="M521.5,313.4c-2.6-30.7-17.3-53.7-44.4-68.5c-19.9-10.8-41.7-14.6-64-14.8c-34.8-0.3-69.7-0.1-104.5-0.2
		c-3.3,0-3.8,1-3.8,4c0.1,42.8,0.1,85.6,0.1,128.4c0,43,0,86-0.1,129c0,2.5,0.6,3.2,3.2,3.2c16.1-0.1,32.3-0.1,48.4,0
		c2.8,0,3.6-0.6,3.6-3.5c-0.1-24.2,0-48.4-0.1-72.6c0-2.6,0.6-3.4,3.3-3.4c15.2,0.1,30.3,0,45.5,0.1c18.5,0,36.7-2.1,54.1-8.5
		c20.3-7.4,37.1-19.3,48-38.5C520.3,351.1,523.1,332.7,521.5,313.4z M466.8,326.5c-1.6,23.6-17.4,35.1-37,39.5
		c-7.1,1.6-14.2,2.1-21.4,2c-15.2,0-30.3-0.1-45.5,0c-2.4,0-3.3-0.5-3.2-3.1c0.1-14.2,0.1-28.4,0.1-42.6c0-14.1,0-28.2,0-42.2
		c0-1.6-0.3-3.1,2.3-3.1c19.2,0.4,38.5-0.7,57.7,0.7c10.6,0.7,20.8,3.5,29.7,9.6C463.3,296.7,467.9,310.5,466.8,326.5z"/>
	<path class="st0" d="M1299.1,227.4c-16,0-29.2,13.3-29.1,29.2c0.1,16.1,13.1,29,29.2,28.9c16-0.1,28.8-12.9,28.8-28.9
		C1328.2,240.5,1315.1,227.3,1299.1,227.4z M1299.1,282.9c-14.6,0-26.4-11.8-26.3-26.4c0-14.6,11.9-26.5,26.4-26.4
		c14.6,0,26.3,11.9,26.3,26.5C1325.5,271.2,1313.8,282.9,1299.1,282.9z"/>
	<path class="st0" d="M1306,259.8c3,4.5,6,8.8,8.9,13.2c-5.1,1.5-6.4,1-9-3.1c-2.9-4.6-5.9-9.2-9.1-14.2c2.1,0,3.8,0.1,5.5,0
		c3.3-0.2,5.2-2.5,5.2-5.8c0-3.3-2-5.5-5.3-5.8c-9.2-0.9-9.2-0.9-9.2,8.3c0,6.1-0.1,12.3,0.1,18.4c0.1,2.3-0.7,2.9-2.9,2.8
		c-1.9-0.1-3.1,0-3.1-2.6c0.2-9.7,0.1-19.3,0-29c0-2,0.6-2.6,2.5-2.5c4,0.2,7.9,0,11.9,0.1c6.3,0,10.4,3,11.6,8.1
		C1314.3,252.8,1312.1,256.7,1306,259.8z"/>
</g>
</svg>
