<svg id="Grupo_890" data-name="Grupo 890" xmlns="http://www.w3.org/2000/svg" width="160.657" height="161.276" viewBox="0 0 160.657 161.276">
  <path id="Trazado_891" data-name="Trazado 891" d="M238.269.033q8.8,3.312,17.593,6.627a8.244,8.244,0,0,1,2.912,1.5,4.681,4.681,0,0,1-.026,6.994c-5.108,4.356-10.266,8.659-15.533,12.822a4.7,4.7,0,0,1-7.48-2.914c-.138-.612-.255-1.228-.4-1.921a46.952,46.952,0,0,0-6.461,3.235c-.453.261-.9.545-1.368.768a2.247,2.247,0,0,1-3.123-.884,2.131,2.131,0,0,1,.658-3.054,56.54,56.54,0,0,1,11.523-5.674,2.233,2.233,0,0,1,2.945,1.813c.272,1.226.472,2.472.637,3.717.107.806.224,1.243,1.083.528,4.713-3.925,9.445-7.827,14.418-11.943L237.1,4.709c.247,1.551.44,2.916.687,4.272.441,2.432.092,3.049-2.37,3.981A71.756,71.756,0,0,0,201.587,38.84a70.539,70.539,0,0,0-13.148,47.3c.083,1.149.172,2.3.351,3.44a2.275,2.275,0,1,0,4.522-.5,82.54,82.54,0,0,1-.417-10.216c.655-19.467,8.355-35.653,22.718-48.727,1.247-1.134,2.679-1.154,3.625-.126,1,1.089.841,2.457-.545,3.7A62.418,62.418,0,0,0,197.877,86.7a12.346,12.346,0,0,1-.035,4.539,7.034,7.034,0,0,1-13.762-1.058,76.659,76.659,0,0,1,39.524-77,70.344,70.344,0,0,1,8.227-3.88c.9-.346,1.21-.738.967-1.715a9.013,9.013,0,0,1-.4-3.261c.27-2.234,1.752-3.455,3.667-4.3Z" transform="translate(-179.687 -0.001)" fill="#fff"/>
  <path id="Trazado_892" data-name="Trazado 892" d="M319.288,32.955c3.1,0,6.192-.011,9.288,0,1.7.009,2.768.926,2.778,2.322s-1.061,2.384-2.739,2.389q-9.446.031-18.891,0c-1.693,0-2.765-.956-2.778-2.354-.013-1.419,1.04-2.35,2.739-2.359,3.2-.017,6.4,0,9.6,0" transform="translate(-182.724 -0.811)" fill="#fff"/>
  <path id="Trazado_893" data-name="Trazado 893" d="M319.1,47.724c-3.149,0-6.3.014-9.445-.006-1.693-.01-2.74-.955-2.712-2.379a2.426,2.426,0,0,1,2.649-2.327q9.523-.038,19.046,0a2.427,2.427,0,0,1,2.712,2.421c-.028,1.392-1.1,2.281-2.805,2.288-3.149.014-6.3,0-9.445,0" transform="translate(-182.724 -1.058)" fill="#fff"/>
  <path id="Trazado_894" data-name="Trazado 894" d="M229.733,151.355c-2.145,0-4.29.016-6.434,0-1.7-.016-2.719-.927-2.711-2.358s1.03-2.346,2.733-2.354q6.59-.032,13.18,0c1.692.009,2.713.946,2.707,2.376s-1.015,2.321-2.729,2.335c-2.249.019-4.5,0-6.746,0" transform="translate(-180.6 -3.607)" fill="#fff"/>
  <path id="Trazado_895" data-name="Trazado 895" d="M343.079,7.87C343.107,3.978,341.768,1.3,338,.032H320.682a9.924,9.924,0,0,0-1.52-.006c-4.641.337-6.942,3.8-12.5,9.6-2.853,2.977-11.15,11.353-11.551,14.6-.01.074-.318,2.606-.318,2.6-.014.108-.2,18.8-.076,27.382a5.836,5.836,0,0,0,5.73,5.831c6.029.177,12.067.11,18.1.04a2.31,2.31,0,0,0,2.1-3.356,2.531,2.531,0,0,0-2.619-1.335c-5.457.02-10.915-.007-16.371.019-1.355.007-2.288-.4-2.29-1.917-.009-7.976-.042-15.952.023-23.927.021-2.56,1.664-4.009,4.248-4.024,3.253-.018,6.507.012,9.76-.008,4.11-.025,6.689-2.568,6.726-6.649.029-3.253-.022-6.507.015-9.761.033-2.839,1.577-4.355,4.408-4.368,3.829-.017,7.66-.01,11.49,0,1.77,0,2.273.48,2.274,2.2q.009,23.142,0,46.281c0,1.63-.526,2.144-2.17,2.163-1.994.021-3.988-.006-5.982.007-1.941.013-2.9.777-2.92,2.3-.02,1.564,1.01,2.408,3,2.424,1.836.015,3.672,0,5.509,0,4.8,0,7.292-2.476,7.293-7.236,0-15.007-.062-30.015.043-45.021M315.4,12.718c0,2.1-.006,4.2,0,6.293,0,1.052-.469,1.767-1.55,1.779-3.6.042-7.2.017-11.162.017,4.224-4.217,8.157-8.141,12.093-12.066.106-.105.232-.193.62-.51v4.487" transform="translate(-182.422 0)" fill="#fff"/>
  <path id="Trazado_896" data-name="Trazado 896" d="M338.481,72.767a6.933,6.933,0,0,0-6.492-6.192,7.1,7.1,0,0,0-7.24,5.128,11.382,11.382,0,0,0-.058,4.378,59.469,59.469,0,0,1-.166,14.129,62.111,62.111,0,0,1-22.4,40.533,59.755,59.755,0,0,1-14.866,9.1c-.15-.7-.272-1.307-.41-1.908a4.712,4.712,0,0,0-7.577-2.9q-7.81,6.224-15.4,12.728a4.645,4.645,0,0,0,1.337,7.892c6.225,2.445,12.508,4.749,18.81,6.993a4.661,4.661,0,0,0,6.046-3.464,8.44,8.44,0,0,0-.29-3.876c-.174-.884-.022-1.249.87-1.606a68.217,68.217,0,0,0,14.644-7.816q37.562-27.018,33.188-73.116m-51.533,77.286c-2.164.8-2.585,1.561-2.176,3.818.243,1.338.44,2.685.652,4.028.007.04-.049.09-.14.248l-18.347-6.831c2.9-2.4,5.581-4.629,8.27-6.855,2.02-1.672,4.062-3.319,6.057-5.019.816-.7,1.075-.546,1.173.488s.337,2.066.536,3.095c.444,2.3,1.665,3,3.826,2.146a66.111,66.111,0,0,0,24.958-17.052c13.522-14.89,19.35-32.413,17.633-52.449-.054-.627-.125-1.255-.132-1.883a2.253,2.253,0,0,1,2.1-2.47,2.152,2.152,0,0,1,2.418,1.974c.244,1.817.45,3.647.532,5.478a72.1,72.1,0,0,1-47.359,71.285" transform="translate(-181.624 -1.637)" fill="#fff"/>
  <path id="Trazado_897" data-name="Trazado 897" d="M292.188,89.55c-1.489-1.157-3.007-2.278-4.538-3.38a1.491,1.491,0,0,1-.716-1.581,18.66,18.66,0,0,0,.009-5.49,1.589,1.589,0,0,1,.751-1.718c1.537-1.091,3.034-2.242,4.541-3.375a5.569,5.569,0,0,0,2.282-4.806,5.162,5.162,0,0,0-.828-2.462c-1.007-1.776-2.008-3.555-3.058-5.306a5.26,5.26,0,0,0-7.127-2.377c-1.743.708-3.472,1.455-5.188,2.226a1.414,1.414,0,0,1-1.689-.177,19.6,19.6,0,0,0-4.872-2.83,1.41,1.41,0,0,1-.98-1.386c-.211-1.979-.423-3.963-.761-5.924a5.122,5.122,0,0,0-5.123-4.631,62.536,62.536,0,0,0-6.921,0c-2.91.161-4.675,1.844-5.164,4.775-.275,1.654-.458,3.325-.588,5a2.475,2.475,0,0,1-1.826,2.512,14.163,14.163,0,0,0-4.165,2.48,1.4,1.4,0,0,1-1.687.192c-1.808-.822-3.623-1.64-5.472-2.362a5.176,5.176,0,0,0-6.664,2.241q-1.737,2.8-3.312,5.7a5.248,5.248,0,0,0,1.523,7.113,22.81,22.81,0,0,0,2.906,2.146c1.979,1.09,2.786,2.551,2.277,4.835a9.243,9.243,0,0,0,.086,3.128,2.118,2.118,0,0,1-1.017,2.356c-1.446.943-2.8,2.033-4.166,3.09a5.28,5.28,0,0,0-1.505,7.358q1.443,2.612,2.972,5.174c1.732,2.906,4.211,3.7,7.384,2.391,1.643-.681,3.276-1.381,4.895-2.115a1.532,1.532,0,0,1,1.83.168,18.167,18.167,0,0,0,4.738,2.742,1.542,1.542,0,0,1,1.078,1.505c.191,1.929.416,3.858.725,5.77a5.229,5.229,0,0,0,5.209,4.739c2.251.1,4.514.1,6.765,0a5.2,5.2,0,0,0,5.238-4.7c.336-1.962.557-3.945.752-5.926a1.42,1.42,0,0,1,1.029-1.35,19.683,19.683,0,0,0,4.737-2.755,1.536,1.536,0,0,1,1.825-.213q2.569,1.166,5.189,2.224a5.261,5.261,0,0,0,7.024-2.309c1.075-1.8,2.129-3.607,3.133-5.444a5.3,5.3,0,0,0-1.526-7.248m-2.772,5.305c-.962,1.56-1.85,3.163-2.77,4.747-.208.357-.368.775-.92.742-.323-.129-.666-.254-1-.4-2.114-.906-4.236-1.792-6.335-2.731a2.813,2.813,0,0,0-3.319.5,19.8,19.8,0,0,1-6.763,3.893,2.612,2.612,0,0,0-1.961,2.373c-.254,2.4-.611,4.784-.836,7.184-.1,1.054-.5,1.471-1.577,1.428-1.677-.068-3.36-.073-5.036,0-1.1.049-1.465-.429-1.558-1.451-.2-2.244-.519-4.479-.738-6.721a3.118,3.118,0,0,0-2.367-2.946,17.745,17.745,0,0,1-6.338-3.69,3.006,3.006,0,0,0-3.605-.516c-2.044.933-4.141,1.755-6.177,2.7-.983.458-1.585.417-2.108-.656a32.764,32.764,0,0,0-2.345-4.081c-.708-1.043-.635-1.668.438-2.4,1.9-1.3,3.7-2.757,5.559-4.118a2.726,2.726,0,0,0,1.186-3,19.255,19.255,0,0,1-.008-7.81A2.727,2.727,0,0,0,239.7,74.9c-1.983-1.461-3.928-2.977-5.926-4.417-.689-.5-.838-.932-.376-1.681.962-1.558,1.907-3.132,2.75-4.756.47-.908.992-.852,1.77-.5,2.147.961,4.328,1.846,6.473,2.813a2.914,2.914,0,0,0,3.464-.522A19.074,19.074,0,0,1,254.473,62a2.738,2.738,0,0,0,2.055-2.479c.256-2.345.594-4.682.8-7.031.1-1.121.521-1.562,1.672-1.505,1.675.082,3.358.065,5.035,0,1.028-.038,1.37.413,1.464,1.37.23,2.348.564,4.684.808,7.03a2.8,2.8,0,0,0,2.092,2.619,18.828,18.828,0,0,1,6.623,3.824,2.907,2.907,0,0,0,3.46.508c2.148-.959,4.329-1.844,6.472-2.812.8-.363,1.3-.357,1.763.526.847,1.623,1.787,3.2,2.745,4.759.463.756.288,1.187-.4,1.68-1.957,1.408-3.848,2.906-5.8,4.322a2.785,2.785,0,0,0-1.236,3.117,18.531,18.531,0,0,1,.01,7.657,2.879,2.879,0,0,0,1.3,3.238c1.912,1.381,3.754,2.859,5.678,4.222.766.542.886,1.012.4,1.8" transform="translate(-180.79 -1.137)" fill="#fff"/>
  <path id="Trazado_898" data-name="Trazado 898" d="M246.3,143.251a7.584,7.584,0,0,0-1.576-4.839c-.423-.53-.539-.846-.048-1.44a7.739,7.739,0,0,0,1.629-5.134c0-3.1.012-6.194,0-9.291-.025-5.164-3.179-8.29-8.374-8.295q-12.518-.015-25.036,0c-8.451,0-16.9-.02-25.351.009a7.613,7.613,0,0,0-7.931,7.921c-.021,3.2.021,6.4-.014,9.6a7.853,7.853,0,0,0,1.584,5.147.967.967,0,0,1,.012,1.466,7.515,7.515,0,0,0-1.593,4.981c.024,3.307-.019,6.613.015,9.92a7.5,7.5,0,0,0,7.443,7.764c9.183.13,18.369.061,27.554.034a2.258,2.258,0,0,0,2.514-2.4c-.028-1.369-.893-2.181-2.47-2.289-.47-.032-.944-.014-1.416-.014q-12.6,0-25.194,0c-2.685,0-3.707-1.045-3.713-3.721-.008-3.044-.014-6.088,0-9.133.012-2.388,1.06-3.475,3.458-3.477q25.114-.022,50.228,0c2.477,0,3.538,1.085,3.556,3.56.022,2.939.01,5.878,0,8.818-.006,2.96-1,3.953-3.98,3.958-3.674.007-7.348,0-11.022,0a2.9,2.9,0,0,0-2.46.768,2.224,2.224,0,0,0-.45,2.476,2.448,2.448,0,0,0,2.537,1.479c4.094,0,8.189.061,12.281-.018a7.666,7.666,0,0,0,7.808-7.928c.048-3.306.02-6.613,0-9.92m-4.724-11.608c-.016,2.549-1.105,3.674-3.639,3.676q-25.029.018-50.058,0c-2.462,0-3.535-1.125-3.546-3.584q-.019-4.644,0-9.288c.012-2.388,1.067-3.462,3.457-3.466q12.515-.022,25.03-.006,12.435,0,24.872,0c2.914,0,3.879.959,3.887,3.851.007,2.939.015,5.878,0,8.816" transform="translate(-179.591 -2.81)" fill="#fff"/>
  <path id="Trazado_899" data-name="Trazado 899" d="M193.98,142.1a6.789,6.789,0,1,0,6.762,6.845,6.857,6.857,0,0,0-6.762-6.845m-.108,8.845a1.983,1.983,0,0,1-2.017-1.993,2.072,2.072,0,0,1,2.055-2.126,2.1,2.1,0,0,1,2.1,2.086,2.056,2.056,0,0,1-2.138,2.033" transform="translate(-179.776 -3.496)" fill="#fff"/>
  <path id="Trazado_900" data-name="Trazado 900" d="M209,142.1a6.79,6.79,0,1,0,.1,13.581A6.79,6.79,0,0,0,209,142.1m-.066,8.844a1.975,1.975,0,0,1-1.961-2.043,2.074,2.074,0,0,1,2.111-2.073,2.025,2.025,0,0,1,2.012,2.143,1.983,1.983,0,0,1-2.162,1.973" transform="translate(-180.148 -3.496)" fill="#fff"/>
  <path id="Trazado_901" data-name="Trazado 901" d="M229.9,129.735c-2.2,0-4.393.016-6.59,0-1.707-.017-2.723-.915-2.721-2.347s1.023-2.357,2.721-2.364q6.59-.034,13.18,0c1.7.008,2.717.935,2.718,2.365s-1.007,2.329-2.718,2.346c-2.2.02-4.393,0-6.59,0" transform="translate(-180.6 -3.075)" fill="#fff"/>
  <path id="Trazado_902" data-name="Trazado 902" d="M261.938,67.821a14.5,14.5,0,1,0,14.455,14.506,14.5,14.5,0,0,0-14.455-14.506M261.927,92.1a9.78,9.78,0,1,1,9.742-9.814,9.771,9.771,0,0,1-9.742,9.814" transform="translate(-181.259 -1.668)" fill="#fff"/>
  <path id="Trazado_903" data-name="Trazado 903" d="M193.937,120.47a6.876,6.876,0,0,0-6.833,6.8,6.82,6.82,0,1,0,6.833-6.8m-.017,8.854a2.1,2.1,0,0,1-2.085-2.1,2.121,2.121,0,0,1,2.183-2.017A2,2,0,0,1,196,127.242a2.019,2.019,0,0,1-2.08,2.081" transform="translate(-179.776 -2.964)" fill="#fff"/>
  <path id="Trazado_904" data-name="Trazado 904" d="M209.074,120.47a6.793,6.793,0,1,0-.059,13.585,6.793,6.793,0,0,0,.059-13.585m-.053,8.858a2.061,2.061,0,1,1,2.077-2.073,2.01,2.01,0,0,1-2.077,2.073" transform="translate(-180.148 -2.964)" fill="#fff"/>
</svg>
