<svg xmlns="http://www.w3.org/2000/svg" width="30.3" height="28.956" viewBox="0 0 30.3 28.956">
  <g id="Grupo_952" data-name="Grupo 952" transform="translate(-1492 -4016)">
    <path id="Trazado_210" data-name="Trazado 210" d="M1495.68,328a3.388,3.388,0,0,0-3.68,3.375,3.341,3.341,0,0,0,3.59,3.377h.04a3.387,3.387,0,1,0,.05-6.752" transform="translate(0 3688)" fill="#009fdd" fill-rule="evenodd"/>
    <rect id="Rectángulo_220" data-name="Rectángulo 220" width="6.49" height="19.537" transform="translate(1492.39 4025.419)" fill="#009fdd"/>
    <path id="Trazado_211" data-name="Trazado 211" d="M1514.82,336.96a6.44,6.44,0,0,0-5.85,3.227v-2.768h-6.5c.09,1.832,0,19.537,0,19.537h6.5V346.045a4.48,4.48,0,0,1,.21-1.584,3.569,3.569,0,0,1,3.34-2.375c2.35,0,3.29,1.791,3.29,4.418v10.452h6.49v-11.2c0-6-3.2-8.792-7.48-8.792" transform="translate(0 3688)" fill="#009fdd" fill-rule="evenodd"/>
  </g>
</svg>
