<?xml version="1.0" encoding="utf-8"?>
<!-- Generator: Adobe Illustrator 22.0.1, SVG Export Plug-In . SVG Version: 6.00 Build 0)  -->
<svg version="1.1" id="katman_1" xmlns="http://www.w3.org/2000/svg" xmlns:xlink="http://www.w3.org/1999/xlink" x="0px" y="0px"
	 viewBox="0 0 1500 500.9" style="enable-background:new 0 0 1500 500.9;" xml:space="preserve">
<style type="text/css">
	.st0{fill:#AAAAAA;}
</style>
<path class="st0" d="M834.4,168c3,0,5.3-2.2,5.3-5.3v-11.5c0-3-2.2-5.3-5.3-5.3c-85.4,0-85.4,19-85.4,28.9v98c0,3,2.2,5.3,5.3,5.3
	h34c3,0,5.3-2.2,5.3-5.3v-91C793.4,177.7,793.4,168,834.4,168z M500.2,252.1v-77.4c0-9.7,0-28.9-85.4-28.9
	c-82.4,0-82.4,19-82.4,28.9v7.2c0,3,2.2,5.3,5.3,5.3h34c3,0,5.3-2.2,5.3-5.3c0-4.1,0-13.9,38.2-13.9c41.2,0,41.2,9.7,41.2,13.9v20.9
	c-10.9-1.1-24.3-1.9-41.2-1.9c-85.4,0-85.4,19-85.4,28.9v22.5c0,9.7,0,28.9,85.4,28.9C500.2,281,500.2,261.9,500.2,252.1z
	 M455.7,244.6c0,4.1,0,13.9-41.2,13.9c-41.2,0-41.2-9.7-41.2-13.9v-7.8c0-4.1,0-14.2,41.2-14.2c41.2,0,41.2,9.7,41.2,14.2V244.6z
	 M709.9,251.8v-77.1c0-9.7,0-28.9-85.4-28.9c-16.9,0-30.3,0.8-41.2,1.9v-52c0-3-2.2-5.3-5.3-5.3h-34c-3,0-5.3,2.2-5.3,5.3v156.1
	c0,9.7,0,28.9,85.4,28.9C709.9,281,709.9,261.5,709.9,251.8z M583.7,244.6v-62.9c0-4.1,0-13.9,41.2-13.9s41.2,9.7,41.2,13.9v62.9
	c0,4.1,0,13.9-41.2,13.9S583.7,248.8,583.7,244.6z M939.3,281c85.4,0,85.4-19,85.4-28.9v-77.4c0-9.7,0-28.9-85.4-28.9
	c-82.4,0-82.4,19-82.4,28.9v7.2c0,3,2.2,5.3,5.3,5.3h34c3,0,5.3-2.2,5.3-5.3c0-4.1,0-13.9,37.8-13.9c41.2,0,41.2,9.7,41.2,13.9v20.9
	c-10.9-1.1-24.3-1.9-41.2-1.9c-85.4,0-85.4,19-85.4,28.9v22.5C853.6,261.9,853.6,281,939.3,281z M898.1,236.8
	c0-4.1,0-14.2,41.2-14.2s41.2,9.7,41.2,14.2v7.8c0,4.1,0,13.9-41.2,13.9s-41.2-9.7-41.2-13.9V236.8z M286.5,90.9h-34
	c-3,0-5.3,2.2-5.3,5.3v149c0,4.1,0,13.9-41.2,13.9c-39.3,0-40.7-9.1-41.2-13.4V239c0-3-2.2-5.3-5.3-5.3h-34c-3,0-5.3,2.2-5.3,5.3
	v13.1c0,9.7,0,28.9,85.4,28.9s85.4-19,85.4-28.9V96C292.2,93.1,289.5,90.9,286.5,90.9z M136.7,353.5h-12.8c-1.9,0-3,1.6-3,3v31.4
	c0,1.9,1.6,3,3,3h12.8c1.9,0,3-1.6,3-3v-31.4C140.2,355.1,138.6,353.5,136.7,353.5z M200.4,353.5h-14.7c-1.9,0-3.4,1.6-3.4,3.4V388
	c0,1.9,1.6,3.4,3.4,3.4h14.7c1.9,0,3.4-1.6,3.4-3.4V357C203.4,355.1,202,353.5,200.4,353.5z M263.8,353.5h-16.9
	c-1.9,0-3.4,1.6-3.4,3.4v30.7c0,1.9,1.6,3.4,3.4,3.4h16.9c1.9,0,3.4-1.6,3.4-3.4V357C267,355.1,265.6,353.5,263.8,353.5z M327,353.5
	h-18.7c-1.9,0-3.4,1.6-3.4,3.4v30.7c0,1.9,1.6,3.4,3.4,3.4H327c1.9,0,3.4-1.6,3.4-3.4V357C330.7,355.1,328.8,353.5,327,353.5z
	 M390.6,353.5h-20.9c-1.9,0-3.7,1.6-3.7,3.7v30.3c0,1.9,1.6,3.7,3.7,3.7h20.9c1.9,0,3.7-1.6,3.7-3.7v-30.3
	C393.9,355.4,392.5,353.5,390.6,353.5z M453.8,353.5H431c-2.2,0-3.7,1.9-3.7,3.7v30c0,2.2,1.9,3.7,3.7,3.7h22.8
	c2.2,0,3.7-1.9,3.7-3.7v-30C457.6,355.4,455.7,353.5,453.8,353.5z M517,353.5h-25.1c-2.2,0-4.1,1.9-4.1,4.1v29.5
	c0,2.2,1.9,4.1,4.1,4.1H517c2.2,0,4.1-1.9,4.1-4.1v-29.3C521.2,355.4,519.4,353.5,517,353.5z M580.4,353.5h-27
	c-2.2,0-4.1,1.9-4.1,4.1v29.5c0,2.2,1.9,4.1,4.1,4.1h27c2.2,0,4.1-1.9,4.1-4.1v-29.3C584.4,355.4,583,353.5,580.4,353.5z
	 M643.9,353.5h-29.2c-2.2,0-4.1,1.9-4.1,4.1v29.2c0,2.2,1.9,4.1,4.1,4.1h29.2c2.2,0,4.1-1.9,4.1-4.1v-29
	C648.1,355.4,646.2,353.5,643.9,353.5z M707.3,353.5h-31.1c-2.7,0-4.5,1.9-4.5,4.5v28.9c0,2.7,1.9,4.5,4.5,4.5h31.1
	c2.7,0,4.5-1.9,4.5-4.5V358C711.8,355.9,709.9,353.5,707.3,353.5z M770.5,353.5h-32.9c-2.7,0-4.5,1.9-4.5,4.5v28.4
	c0,2.7,1.9,4.5,4.5,4.5h32.9c2.7,0,4.5-1.9,4.5-4.5V358C775.3,355.9,773.1,353.5,770.5,353.5z M1239.9,353.5H802.3
	c-4.5,0-8.3,3.7-8.3,8.3v20.9c0,4.5,3.7,8.3,8.3,8.3h437.6c4.5,0,8.3-3.7,8.3-8.3v-20.9C1248.1,357.3,1244.4,353.5,1239.9,353.5z
	 M1389.5,89.6c-5.9,0-10.5,5.3-10.5,11.2V178c0,1.9-2.2,2.7-3.4,1.6l-87.2-86.5c-3.4-3.4-9.1-4.1-13.4-1.6c-3.4,1.9-5.3,5.6-5.3,9.4
	v108.6c0,5.9,4.8,10.9,11.2,10.9c5.9,0,10.9-5.3,10.9-11.2v-77.1c0-1.9,2.2-2.7,3.4-1.6l86.8,86.8c2.2,2.2,4.8,3.4,7.8,3.4
	c1.9,0,3.7-0.3,5.6-1.6c3.4-1.9,5.3-5.6,5.3-9.7V100.6C1400.4,94.6,1395.6,89.6,1389.5,89.6z M1237.2,144.4h-32.1
	c-5.9,0-11.2,4.8-11.2,10.9s4.8,11.2,10.9,11.2h19l0,0c1.6,0,2.7,1.1,2.7,2.7v27.3l0,0c0,1.6-1.1,2.7-2.7,2.7l0,0h-40.1
	c-25.4,0-45.7-20.6-44.2-46c1.1-22.8,20.3-41.2,43.4-41.2h53.8c5.9,0,11.2-4.8,11.2-10.9c0-5.9-4.8-11.2-10.9-11.2h-53.5
	c-34.8,0-64.4,27.3-66.3,62.1c-1.9,37.5,28.1,68.5,65.1,68.5h54.3c5.9,0,10.9-4.8,10.9-10.9v-54.3
	C1248.4,149.3,1243.6,144.4,1237.2,144.4z"/>
</svg>
