<?xml version="1.0" encoding="utf-8"?>
<!-- Generator: Adobe Illustrator 22.0.1, SVG Export Plug-In . SVG Version: 6.00 Build 0)  -->
<svg version="1.1" id="Capa_1" xmlns="http://www.w3.org/2000/svg" xmlns:xlink="http://www.w3.org/1999/xlink" x="0px" y="0px"
	 viewBox="0 0 1366 768" style="enable-background:new 0 0 1366 768;" xml:space="preserve">
<style type="text/css">
	.st0{fill:#AAAAAA;}
</style>
<path class="st0" d="M595.7,300.5c-21.8,0-44.9,9.5-59.9,29.9v-25.8h-50.3v185h50.3V383.5c0-19,15-39.5,42.2-39.5
	c20.4,0,42.2,15,42.2,39.5v104.8h50.3V374C671.9,331.8,640.6,300.5,595.7,300.5 M1032.5,303.2l-46.3,126.5L940,303.2h-57.1l76.2,185
	h55.8l74.8-185H1032.5z M431.1,431.1c-21.8,16.3-34,19-53.1,19c-17.7,0-31.3-5.4-40.8-15l129.3-54.4c-2.7-20.4-10.9-38.1-21.8-51.7
	c-17.7-20.4-42.2-29.9-73.5-29.9c-55.8,0-98,40.8-98,95.2c0,55.8,42.2,95.2,103.4,95.2c34,0,69.4-16.3,85.7-35.4L431.1,431.1z
	 M333.2,359c8.2-12.2,21.8-19,39.5-19c17.7,0,32.7,10.9,39.5,25.9l-88.4,36.7C320.9,384.9,326.4,369.9,333.2,359z M269.2,442H153.6
	V248.8h-51.7v239.5h167.3L269.2,442z M1180.8,491c-55.8,0-99.3-40.8-99.3-95.2c0-53.1,43.5-95.2,99.3-95.2
	c55.8,0,99.3,40.8,99.3,95.2C1281.5,450.2,1237.9,491,1180.8,491 M1180.8,344c-28.6,0-49,21.8-49,51.7c0,28.6,21.8,51.7,49,51.7
	c28.6,0,49-21.8,49-51.7C1231.1,367.2,1209.4,344,1180.8,344 M790.3,491c-55.8,0-99.3-40.8-99.3-95.2c0-53.1,43.5-95.2,99.3-95.2
	c55.8,0,99.3,40.8,99.3,95.2S846.1,491,790.3,491 M790.3,344c-28.6,0-49,21.8-49,51.7c0,28.6,21.8,51.7,49,51.7
	c28.6,0,49-21.8,49-51.7C840.6,367.2,818.9,344,790.3,344"/>
</svg>
