<?xml version="1.0" encoding="utf-8"?>
<!-- Generator: Adobe Illustrator 22.0.1, SVG Export Plug-In . SVG Version: 6.00 Build 0)  -->
<svg version="1.1" id="Layer_1" xmlns="http://www.w3.org/2000/svg" xmlns:xlink="http://www.w3.org/1999/xlink" x="0px" y="0px"
	 viewBox="0 0 2381.4 2354.5" style="enable-background:new 0 0 2381.4 2354.5;" xml:space="preserve">
<style type="text/css">
	.st0{fill:#AAAAAA;}
</style>
<g>
	<path class="st0" d="M2381.2,1517.8V1097h-428v642.1h107c36.8-0.2,73.4-3.6,109.5-10.4c36.3-6.4,71.3-18.6,103.7-36.2
		c30.6-16.6,57-40,77.3-68.2C2372,1593,2382.7,1555.7,2381.2,1517.8z"/>
	<path class="st0" d="M0,2113.7l1391.3,240.8V0L0,240.8V2113.7z M374.6,761.5l642.1-39.1v160.5l-240.8,10.7V1596l-160.5-9.4V899.9
		l-240.8,9.7V761.5z"/>
	<path class="st0" d="M1606.4,827.8c28.4,0.2,56.6-5.5,82.8-16.7c51.2-21.8,91.9-62.5,113.6-113.7c22.2-53,22.2-112.7-0.1-165.8
		c-21.8-51.2-62.5-92-113.7-113.7c-26.2-11.2-54.4-16.9-82.9-16.7c-28.3-0.2-56.3,5.5-82.3,16.7c-19.4,8.3-25.5,19.1-52.2,32.1v329
		c26.8,13.1,32.8,23.8,52.2,32.1C1549.9,822.4,1578,828,1606.4,827.8z"/>
	<path class="st0" d="M2015.6,899.2c19.5,19.5,42.5,35,67.9,45.8c53,22.2,112.7,22.2,165.8,0c51.2-21.8,92-62.5,113.7-113.7
		c22.2-53,22.2-112.7,0-165.8c-21.8-51.2-62.5-92-113.7-113.7c-53-22.2-112.7-22.2-165.8,0c-51.2,21.8-92,62.5-113.7,113.7
		c-22.2,53-22.2,112.7,0,165.8C1980.6,856.6,1996.2,879.7,2015.6,899.2z"/>
	<path class="st0" d="M1872.9,963.2h-401.3v945.7h0c26.8,5.8,36.4,10.3,55.4,12.9c20.8,3,41.8,4.5,62.8,4.6
		c32.4-0.2,64.8-3.6,96.5-10.4c32.3-6.5,63.3-18.6,91.5-35.7c27.7-17,51-40.2,68.2-67.7c19-32.1,28.3-69.1,26.9-106.4V963.2z"/>
</g>
</svg>
