<?xml version="1.0" encoding="utf-8"?>
<!-- Generator: Adobe Illustrator 26.0.0, SVG Export Plug-In . SVG Version: 6.00 Build 0)  -->
<svg version="1.1" xmlns="http://www.w3.org/2000/svg" xmlns:xlink="http://www.w3.org/1999/xlink" x="0px" y="0px"
	 viewBox="0 0 1920 1920" style="enable-background:new 0 0 1920 1920;" xml:space="preserve">
<style type="text/css">
	.st0{fill:#20208E;}
	.st1{fill:#009FDD;}
	.st2{fill:#FFFFFF;}
</style>
<g id="VERSIÓN_POSITIVA">
	<g>
		<g>
			<path class="st0" d="M-4706.93,782.43c0,0,201.55,102.16,224.18,113.6c22.64,11.44,43.27,25.96,43.27,59.85v87.93l-222.87-112.93
				c-29.71-15.33-44.58-35.5-44.58-62.13V782.43z"/>
			<path class="st0" d="M-4140.67,984.4v-0.76c0-33.84-23.35-56.28-50.97-56.28s-50.58,22.44-50.58,56.28v0.76
				c0,33.84,22.96,56.28,50.58,56.28S-4140.67,1018.62-4140.67,984.4 M-4300.59,908.73c0-15.97,13.23-28.9,29.57-28.9
				c16.34,0,29.57,12.93,29.57,28.9v2.67c14.4-19.02,34.24-33.09,64.98-33.09c48.64,0,94.94,37.27,94.94,105.34v0.76
				c0,68.06-45.52,105.33-94.94,105.33c-31.52,0-50.97-14.07-64.98-30.42v60.84c0,15.96-13.23,28.9-29.57,28.9
				c-16.34,0-29.57-12.93-29.57-28.9V908.73z"/>
			<path class="st0" d="M-3928.92,1014.06v-10.27c-10.12-4.57-23.35-7.6-37.74-7.6c-25.29,0-40.86,9.88-40.86,28.13v0.76
				c0,15.59,13.23,24.72,32.29,24.72C-3947.6,1049.8-3928.92,1034.97-3928.92,1014.06 M-4064.71,1027.37v-0.76
				c0-44.49,34.62-65.03,84.04-65.03c21.01,0,36.19,3.42,50.97,8.37v-3.42c0-23.95-15.17-37.26-44.74-37.26
				c-16.34,0-29.57,2.28-40.86,5.7c-3.5,1.14-5.83,1.52-8.56,1.52c-13.62,0-24.51-10.27-24.51-23.58c0-10.27,6.61-19.02,15.95-22.44
				c18.67-6.84,38.91-10.64,66.53-10.64c32.29,0,55.64,8.36,70.43,22.81c15.56,15.21,22.56,37.65,22.56,65.02v92.78
				c0,15.59-12.84,27.76-28.79,27.76c-17.12,0-28.4-11.78-28.4-23.95v-0.38c-14.39,15.59-34.24,25.86-63.04,25.86
				C-4032.42,1089.73-4064.71,1067.67-4064.71,1027.37"/>
			<path class="st0" d="M-3831.87,834.96c0-15.97,13.23-28.9,29.57-28.9c16.34,0,29.57,12.93,29.57,28.9v224.35
				c0,15.97-13.23,28.89-29.57,28.89c-16.34,0-29.57-12.92-29.57-28.89V834.96z"/>
			<path class="st0" d="M-3594.31,968.05c-3.5-25.86-19.07-43.35-43.97-43.35c-24.52,0-40.47,17.12-45.14,43.35H-3594.31z
				 M-3632.44,1090.49c-62.64,0-108.94-42.97-108.94-105.34v-0.76c0-58.18,42.41-106.09,103.11-106.09
				c69.65,0,100.38,55.91,100.38,98.1c0,16.74-12.06,27.76-27.62,27.76h-117.11c5.83,26.23,24.51,39.93,50.97,39.93
				c16.34,0,29.96-4.94,42.02-13.69c4.28-3.04,8.18-4.56,14.4-4.56c13.23,0,22.96,9.89,22.96,22.81c0,7.61-3.5,13.31-7.78,17.12
				C-3578.36,1080.99-3602.09,1090.49-3632.44,1090.49"/>
			<path class="st0" d="M-3506.88,908.73c0-15.97,13.23-28.9,29.58-28.9c16.34,0,29.56,12.93,29.56,28.9v9.13
				c8.57-19.77,22.57-38.03,40.08-38.03c18.29,0,28.79,11.79,28.79,28.14c0,15.21-10.12,24.33-22.18,27
				c-29.96,6.84-46.69,29.28-46.69,70.34v54c0,15.97-13.23,28.9-29.56,28.9c-16.34,0-29.58-12.93-29.58-28.9V908.73z"/>
			<path class="st0" d="M-3359.7,908.73c0-15.97,13.23-28.9,29.58-28.9c16.34,0,29.56,12.93,29.56,28.9v2.28
				c13.62-17.11,31.52-32.7,61.48-32.7c27.23,0,47.85,11.79,58.75,32.32c18.29-20.91,40.08-32.32,68.48-32.32
				c43.96,0,70.42,25.86,70.42,74.91v106.09c0,15.97-13.23,28.9-29.57,28.9c-16.34,0-29.58-12.93-29.58-28.9v-87.08
				c0-27.38-12.45-41.45-34.62-41.45c-22.17,0-35.8,14.07-35.8,41.45v87.08c0,15.97-13.23,28.9-29.57,28.9
				c-16.34,0-29.57-12.93-29.57-28.9v-87.08c0-27.38-12.45-41.45-34.62-41.45c-22.18,0-35.8,14.07-35.8,41.45v87.08
				c0,15.97-13.23,28.9-29.56,28.9c-16.34,0-29.58-12.93-29.58-28.9V908.73z"/>
			<path class="st0" d="M-2845.29,985.16v-0.76c0-30.04-22.18-56.28-54.86-56.28c-33.85,0-54.08,25.48-54.08,55.51v0.76
				c0,30.04,22.18,56.28,54.86,56.28C-2865.52,1040.68-2845.29,1015.19-2845.29,985.16 M-3012.6,985.16v-0.76
				c0-58.56,48.25-106.09,113.22-106.09c64.59,0,112.44,46.77,112.44,105.33v0.76c0,58.56-48.24,106.09-113.22,106.09
				C-2964.74,1090.49-3012.6,1043.71-3012.6,985.16"/>
			<path class="st1" d="M-3356.32,758.59c0-34.46,26.2-56.66,58.8-56.66c21.83,0,36.1,10.2,45.03,22.69l-15.97,9.02
				c-6.07-8.22-16.64-14.63-29.06-14.63c-22.21,0-38.67,16.44-38.67,39.58c0,22.83,16.47,39.58,38.67,39.58
				c11.42,0,21.47-5.1,26.53-9.85v-16.9h-33.61V754.5h53.12v40.89c-10.95,12-26.74,20.02-46.04,20.02
				C-3330.11,815.41-3356.32,792.91-3356.32,758.59"/>
			<path class="st1" d="M-3163.37,737.92c0-10.5-8.08-17.26-19.17-17.26h-27.06v34.83h27.06
				C-3171.45,755.48-3163.37,748.56-3163.37,737.92 M-3165.24,813.27l-24.68-40.87h-19.68v40.87h-19.64V703.76h49.23
				c22.18,0,36.8,13.95,36.8,34.32c0,19.38-13.1,30.05-26.74,32.18l27.57,43.02H-3165.24z"/>
			<path class="st1" d="M-3124.64,769.93v-66.17h20v65.68c0,17.39,9.91,28.72,28.56,28.72c18.64,0,28.56-11.33,28.56-28.72v-65.68
				h20.01v66.17c0,27.09-15.96,45.32-48.56,45.32C-3108.51,815.24-3124.64,797.02-3124.64,769.93"/>
			<path class="st1" d="M-2937.01,738.08c0-10.52-7.89-17.42-19-17.42h-27.02v34.65h27.02
				C-2944.9,755.31-2937.01,748.42-2937.01,738.08 M-3002.68,813.27V703.76h49.37c23.52,0,36.47,15.59,36.47,34.32
				c0,18.54-13.1,34.15-36.47,34.15h-29.72v41.05H-3002.68z"/>
			<path class="st1" d="M-2810.79,758.59c0-22.66-14.62-39.58-37.15-39.58c-22.68,0-37.13,16.92-37.13,39.58
				c0,22.5,14.45,39.58,37.13,39.58C-2825.41,798.17-2810.79,781.09-2810.79,758.59 M-2905.22,758.59
				c0-32.67,23.71-56.66,57.28-56.66c33.43,0,57.33,23.98,57.33,56.66c0,32.69-23.9,56.66-57.33,56.66
				C-2881.51,815.25-2905.22,791.28-2905.22,758.59"/>
			<path class="st1" d="M-4439.48,956.69c0,0-201.54,102.15-224.18,113.6c-22.63,11.45-43.28,25.96-43.28,59.85v87.93l222.89-112.94
				c29.71-15.32,44.57-35.49,44.57-62.11V956.69z"/>
		</g>
	</g>
</g>
<g id="VERSIÓN_UNA_TINTA_NEGATIVA">
	<rect x="-2356.32" width="1920" height="1920"/>
	<g>
		<g>
			<path class="st2" d="M-2356.32,782.43c0,0,201.55,102.16,224.18,113.6c22.64,11.44,43.27,25.96,43.27,59.85v87.93l-222.87-112.93
				c-29.72-15.33-44.58-35.5-44.58-62.13V782.43z"/>
			<path class="st2" d="M-1790.06,984.4v-0.76c0-33.84-23.35-56.28-50.97-56.28s-50.58,22.44-50.58,56.28v0.76
				c0,33.84,22.96,56.28,50.58,56.28S-1790.06,1018.62-1790.06,984.4 M-1949.97,908.73c0-15.97,13.23-28.9,29.57-28.9
				c16.34,0,29.57,12.93,29.57,28.9v2.67c14.4-19.02,34.24-33.09,64.98-33.09c48.64,0,94.94,37.27,94.94,105.34v0.76
				c0,68.06-45.52,105.33-94.94,105.33c-31.52,0-50.97-14.07-64.98-30.42v60.84c0,15.96-13.23,28.9-29.57,28.9
				c-16.34,0-29.57-12.93-29.57-28.9V908.73z"/>
			<path class="st2" d="M-1578.31,1014.06v-10.27c-10.12-4.57-23.35-7.6-37.74-7.6c-25.29,0-40.86,9.88-40.86,28.13v0.76
				c0,15.59,13.23,24.72,32.29,24.72C-1596.99,1049.8-1578.31,1034.97-1578.31,1014.06 M-1714.1,1027.37v-0.76
				c0-44.49,34.62-65.03,84.04-65.03c21.01,0,36.19,3.42,50.97,8.37v-3.42c0-23.95-15.17-37.26-44.74-37.26
				c-16.34,0-29.57,2.28-40.86,5.7c-3.5,1.14-5.83,1.52-8.56,1.52c-13.62,0-24.51-10.27-24.51-23.58c0-10.27,6.61-19.02,15.95-22.44
				c18.67-6.84,38.91-10.64,66.53-10.64c32.29,0,55.64,8.36,70.43,22.81c15.56,15.21,22.56,37.65,22.56,65.02v92.78
				c0,15.59-12.84,27.76-28.79,27.76c-17.12,0-28.4-11.78-28.4-23.95v-0.38c-14.39,15.59-34.24,25.86-63.04,25.86
				C-1681.81,1089.73-1714.1,1067.67-1714.1,1027.37"/>
			<path class="st2" d="M-1481.26,834.96c0-15.97,13.23-28.9,29.57-28.9c16.34,0,29.57,12.93,29.57,28.9v224.35
				c0,15.97-13.23,28.89-29.57,28.89c-16.34,0-29.57-12.92-29.57-28.89V834.96z"/>
			<path class="st2" d="M-1243.69,968.05c-3.5-25.86-19.07-43.35-43.97-43.35c-24.52,0-40.47,17.12-45.14,43.35H-1243.69z
				 M-1281.83,1090.49c-62.64,0-108.94-42.97-108.94-105.34v-0.76c0-58.18,42.41-106.09,103.11-106.09
				c69.65,0,100.38,55.91,100.38,98.1c0,16.74-12.06,27.76-27.62,27.76h-117.11c5.83,26.23,24.51,39.93,50.97,39.93
				c16.34,0,29.96-4.94,42.02-13.69c4.28-3.04,8.18-4.56,14.4-4.56c13.23,0,22.96,9.89,22.96,22.81c0,7.61-3.5,13.31-7.78,17.12
				C-1227.74,1080.99-1251.48,1090.49-1281.83,1090.49"/>
			<path class="st2" d="M-1156.26,908.73c0-15.97,13.23-28.9,29.58-28.9c16.34,0,29.56,12.93,29.56,28.9v9.13
				c8.57-19.77,22.57-38.03,40.08-38.03c18.29,0,28.79,11.79,28.79,28.14c0,15.21-10.12,24.33-22.18,27
				c-29.96,6.84-46.69,29.28-46.69,70.34v54c0,15.97-13.23,28.9-29.56,28.9c-16.34,0-29.58-12.93-29.58-28.9V908.73z"/>
			<path class="st2" d="M-1009.09,908.73c0-15.97,13.23-28.9,29.58-28.9c16.34,0,29.56,12.93,29.56,28.9v2.28
				c13.62-17.11,31.52-32.7,61.48-32.7c27.23,0,47.85,11.79,58.75,32.32c18.29-20.91,40.08-32.32,68.48-32.32
				c43.96,0,70.42,25.86,70.42,74.91v106.09c0,15.97-13.23,28.9-29.57,28.9c-16.34,0-29.58-12.93-29.58-28.9v-87.08
				c0-27.38-12.45-41.45-34.62-41.45c-22.17,0-35.8,14.07-35.8,41.45v87.08c0,15.97-13.23,28.9-29.57,28.9
				c-16.34,0-29.57-12.93-29.57-28.9v-87.08c0-27.38-12.45-41.45-34.62-41.45c-22.18,0-35.8,14.07-35.8,41.45v87.08
				c0,15.97-13.23,28.9-29.56,28.9c-16.34,0-29.58-12.93-29.58-28.9V908.73z"/>
			<path class="st2" d="M-494.68,985.16v-0.76c0-30.04-22.18-56.28-54.86-56.28c-33.85,0-54.08,25.48-54.08,55.51v0.76
				c0,30.04,22.18,56.28,54.86,56.28C-514.91,1040.68-494.68,1015.19-494.68,985.16 M-661.99,985.16v-0.76
				c0-58.56,48.25-106.09,113.22-106.09c64.59,0,112.44,46.77,112.44,105.33v0.76c0,58.56-48.24,106.09-113.22,106.09
				C-614.13,1090.49-661.99,1043.71-661.99,985.16"/>
			<path class="st2" d="M-1005.7,758.59c0-34.46,26.2-56.66,58.8-56.66c21.84,0,36.1,10.2,45.03,22.69l-15.97,9.02
				c-6.07-8.22-16.64-14.63-29.06-14.63c-22.21,0-38.67,16.44-38.67,39.58c0,22.83,16.47,39.58,38.67,39.58
				c11.42,0,21.47-5.1,26.53-9.85v-16.9h-33.61V754.5h53.12v40.89c-10.95,12-26.74,20.02-46.04,20.02
				C-979.5,815.41-1005.7,792.91-1005.7,758.59"/>
			<path class="st2" d="M-812.76,737.92c0-10.5-8.08-17.26-19.17-17.26h-27.06v34.83h27.06
				C-820.84,755.48-812.76,748.56-812.76,737.92 M-814.62,813.27l-24.68-40.87h-19.68v40.87h-19.64V703.76h49.23
				c22.18,0,36.8,13.95,36.8,34.32c0,19.38-13.1,30.05-26.74,32.18l27.57,43.02H-814.62z"/>
			<path class="st2" d="M-774.03,769.93v-66.17h20v65.68c0,17.39,9.91,28.72,28.56,28.72c18.64,0,28.56-11.33,28.56-28.72v-65.68
				h20.01v66.17c0,27.09-15.96,45.32-48.56,45.32C-757.9,815.24-774.03,797.02-774.03,769.93"/>
			<path class="st2" d="M-586.39,738.08c0-10.52-7.89-17.42-19-17.42h-27.02v34.65h27.02
				C-594.29,755.31-586.39,748.42-586.39,738.08 M-652.07,813.27V703.76h49.37c23.52,0,36.47,15.59,36.47,34.32
				c0,18.54-13.1,34.15-36.47,34.15h-29.72v41.05H-652.07z"/>
			<path class="st2" d="M-460.18,758.59c0-22.66-14.62-39.58-37.15-39.58c-22.68,0-37.13,16.92-37.13,39.58
				c0,22.5,14.45,39.58,37.13,39.58C-474.8,798.17-460.18,781.09-460.18,758.59 M-554.61,758.59c0-32.67,23.71-56.66,57.28-56.66
				c33.43,0,57.33,23.98,57.33,56.66c0,32.69-23.9,56.66-57.33,56.66C-530.9,815.25-554.61,791.28-554.61,758.59"/>
			<path class="st2" d="M-2088.86,956.69c0,0-201.54,102.15-224.18,113.6c-22.63,11.45-43.28,25.96-43.28,59.85v87.93l222.89-112.94
				c29.71-15.32,44.57-35.49,44.57-62.11V956.69z"/>
		</g>
	</g>
</g>
<g id="VERSIÓN_UNA_TINTA_NEGRA">
	<g>
		<g>
			<path d="M0,782.43c0,0,201.55,102.16,224.18,113.6c22.64,11.44,43.27,25.96,43.27,59.85v87.93L44.58,930.88
				C14.87,915.55,0,895.38,0,868.75V782.43z"/>
			<path d="M566.26,984.4v-0.76c0-33.84-23.35-56.28-50.97-56.28s-50.58,22.44-50.58,56.28v0.76c0,33.84,22.96,56.28,50.58,56.28
				S566.26,1018.62,566.26,984.4 M406.34,908.73c0-15.97,13.23-28.9,29.57-28.9c16.34,0,29.57,12.93,29.57,28.9v2.67
				c14.4-19.02,34.24-33.09,64.98-33.09c48.64,0,94.94,37.27,94.94,105.34v0.76c0,68.06-45.52,105.33-94.94,105.33
				c-31.52,0-50.97-14.07-64.98-30.42v60.84c0,15.96-13.23,28.9-29.57,28.9c-16.34,0-29.57-12.93-29.57-28.9V908.73z"/>
			<path d="M778.01,1014.06v-10.27c-10.12-4.57-23.35-7.6-37.74-7.6c-25.29,0-40.86,9.88-40.86,28.13v0.76
				c0,15.59,13.23,24.72,32.29,24.72C759.33,1049.8,778.01,1034.97,778.01,1014.06 M642.22,1027.37v-0.76
				c0-44.49,34.62-65.03,84.04-65.03c21.01,0,36.19,3.42,50.97,8.37v-3.42c0-23.95-15.17-37.26-44.74-37.26
				c-16.34,0-29.57,2.28-40.86,5.7c-3.5,1.14-5.83,1.52-8.56,1.52c-13.62,0-24.51-10.27-24.51-23.58c0-10.27,6.61-19.02,15.95-22.44
				c18.67-6.84,38.91-10.64,66.53-10.64c32.29,0,55.64,8.36,70.43,22.81c15.56,15.21,22.56,37.65,22.56,65.02v92.78
				c0,15.59-12.84,27.76-28.79,27.76c-17.12,0-28.4-11.78-28.4-23.95v-0.38c-14.39,15.59-34.24,25.86-63.04,25.86
				C674.51,1089.73,642.22,1067.67,642.22,1027.37"/>
			<path d="M875.06,834.96c0-15.97,13.23-28.9,29.57-28.9c16.34,0,29.57,12.93,29.57,28.9v224.35c0,15.97-13.23,28.89-29.57,28.89
				c-16.34,0-29.57-12.92-29.57-28.89V834.96z"/>
			<path d="M1112.62,968.05c-3.5-25.86-19.07-43.35-43.97-43.35c-24.52,0-40.47,17.12-45.14,43.35H1112.62z M1074.49,1090.49
				c-62.64,0-108.94-42.97-108.94-105.34v-0.76c0-58.18,42.41-106.09,103.11-106.09c69.65,0,100.38,55.91,100.38,98.1
				c0,16.74-12.06,27.76-27.62,27.76H1024.3c5.83,26.23,24.51,39.93,50.97,39.93c16.34,0,29.96-4.94,42.02-13.69
				c4.28-3.04,8.18-4.56,14.4-4.56c13.23,0,22.96,9.89,22.96,22.81c0,7.61-3.5,13.31-7.78,17.12
				C1128.57,1080.99,1104.84,1090.49,1074.49,1090.49"/>
			<path d="M1200.05,908.73c0-15.97,13.23-28.9,29.58-28.9c16.34,0,29.56,12.93,29.56,28.9v9.13c8.57-19.77,22.57-38.03,40.08-38.03
				c18.29,0,28.79,11.79,28.79,28.14c0,15.21-10.12,24.33-22.18,27c-29.96,6.84-46.69,29.28-46.69,70.34v54
				c0,15.97-13.23,28.9-29.56,28.9c-16.34,0-29.58-12.93-29.58-28.9V908.73z"/>
			<path d="M1347.23,908.73c0-15.97,13.23-28.9,29.58-28.9c16.34,0,29.56,12.93,29.56,28.9v2.28c13.62-17.11,31.52-32.7,61.48-32.7
				c27.23,0,47.85,11.79,58.75,32.32c18.29-20.91,40.08-32.32,68.48-32.32c43.96,0,70.42,25.86,70.42,74.91v106.09
				c0,15.97-13.23,28.9-29.57,28.9c-16.34,0-29.58-12.93-29.58-28.9v-87.08c0-27.38-12.45-41.45-34.62-41.45
				c-22.17,0-35.8,14.07-35.8,41.45v87.08c0,15.97-13.23,28.9-29.57,28.9c-16.34,0-29.57-12.93-29.57-28.9v-87.08
				c0-27.38-12.45-41.45-34.62-41.45c-22.18,0-35.8,14.07-35.8,41.45v87.08c0,15.97-13.23,28.9-29.56,28.9
				c-16.34,0-29.58-12.93-29.58-28.9V908.73z"/>
			<path d="M1861.64,985.16v-0.76c0-30.04-22.18-56.28-54.86-56.28c-33.85,0-54.08,25.48-54.08,55.51v0.76
				c0,30.04,22.18,56.28,54.86,56.28C1841.41,1040.68,1861.64,1015.19,1861.64,985.16 M1694.33,985.16v-0.76
				c0-58.56,48.25-106.09,113.22-106.09c64.59,0,112.44,46.77,112.44,105.33v0.76c0,58.56-48.24,106.09-113.22,106.09
				C1742.19,1090.49,1694.33,1043.71,1694.33,985.16"/>
			<path d="M1350.61,758.59c0-34.46,26.2-56.66,58.8-56.66c21.84,0,36.1,10.2,45.03,22.69l-15.97,9.02
				c-6.07-8.22-16.64-14.63-29.06-14.63c-22.21,0-38.67,16.44-38.67,39.58c0,22.83,16.47,39.58,38.67,39.58
				c11.42,0,21.47-5.1,26.53-9.85v-16.9h-33.61V754.5h53.12v40.89c-10.95,12-26.74,20.02-46.04,20.02
				C1376.82,815.41,1350.61,792.91,1350.61,758.59"/>
			<path d="M1543.56,737.92c0-10.5-8.08-17.26-19.17-17.26h-27.06v34.83h27.06C1535.48,755.48,1543.56,748.56,1543.56,737.92
				 M1541.69,813.27l-24.68-40.87h-19.68v40.87h-19.64V703.76h49.23c22.18,0,36.8,13.95,36.8,34.32c0,19.38-13.1,30.05-26.74,32.18
				l27.57,43.02H1541.69z"/>
			<path d="M1582.29,769.93v-66.17h20v65.68c0,17.39,9.91,28.72,28.56,28.72c18.64,0,28.56-11.33,28.56-28.72v-65.68h20.01v66.17
				c0,27.09-15.96,45.32-48.56,45.32C1598.42,815.24,1582.29,797.02,1582.29,769.93"/>
			<path d="M1769.92,738.08c0-10.52-7.89-17.42-19-17.42h-27.02v34.65h27.02C1762.03,755.31,1769.92,748.42,1769.92,738.08
				 M1704.25,813.27V703.76h49.37c23.52,0,36.47,15.59,36.47,34.32c0,18.54-13.1,34.15-36.47,34.15h-29.72v41.05H1704.25z"/>
			<path d="M1896.14,758.59c0-22.66-14.62-39.58-37.15-39.58c-22.68,0-37.13,16.92-37.13,39.58c0,22.5,14.45,39.58,37.13,39.58
				C1881.52,798.17,1896.14,781.09,1896.14,758.59 M1801.71,758.59c0-32.67,23.71-56.66,57.28-56.66
				c33.43,0,57.33,23.98,57.33,56.66c0,32.69-23.9,56.66-57.33,56.66C1825.42,815.25,1801.71,791.28,1801.71,758.59"/>
			<path d="M267.45,956.69c0,0-201.54,102.15-224.18,113.6C20.65,1081.74,0,1096.25,0,1130.13v87.93l222.89-112.94
				c29.71-15.32,44.57-35.49,44.57-62.11V956.69z"/>
		</g>
	</g>
</g>
</svg>
