<svg xmlns="http://www.w3.org/2000/svg" xmlns:xlink="http://www.w3.org/1999/xlink" width="192" height="888.999" viewBox="0 0 192 888.999">
  <defs>
    <clipPath id="clip-path">
      <rect id="Rectángulo_252" data-name="Rectángulo 252" width="192" height="888.999" transform="translate(95 51.001)" fill="none"/>
    </clipPath>
  </defs>
  <g id="Grupo_604" data-name="Grupo 604" transform="translate(-95 -51.001)">
    <g id="Grupo_603" data-name="Grupo 603" clip-path="url(#clip-path)">
      <path id="Trazado_479" data-name="Trazado 479" d="M281.1,241.1a1.009,1.009,0,0,0,1.008-1.716A1.011,1.011,0,1,0,281.1,241.1" fill="#009fdd"/>
      <path id="Trazado_480" data-name="Trazado 480" d="M273.336,253.93a3.546,3.546,0,1,0,4.235-5.678,3.609,3.609,0,0,0-4.852.831,3.545,3.545,0,0,0,.617,4.847" fill="#009fdd"/>
      <path id="Trazado_481" data-name="Trazado 481" d="M265.141,261.412a2.107,2.107,0,0,0,3.028.392,2.1,2.1,0,1,0-3.028-.392" fill="#009fdd"/>
      <path id="Trazado_482" data-name="Trazado 482" d="M253.337,268.819a3.486,3.486,0,1,0,1.359-4.656,3.438,3.438,0,0,0-1.359,4.656" fill="#009fdd"/>
      <path id="Trazado_483" data-name="Trazado 483" d="M244.858,273.117a.426.426,0,0,0,.567.183.43.43,0,0,0,.131-.1.421.421,0,0,0,.08-.143.413.413,0,0,0-.027-.321.425.425,0,0,0-.751.382" fill="#009fdd"/>
      <path id="Trazado_484" data-name="Trazado 484" d="M233.538,278.837a.541.541,0,0,0,.521.3.543.543,0,0,0,.481-.367.538.538,0,0,0-.16-.581.54.54,0,0,0-.9.442.525.525,0,0,0,.055.2" fill="#009fdd"/>
      <path id="Trazado_485" data-name="Trazado 485" d="M220.358,285.5a2.7,2.7,0,1,0-.283-1.024,2.714,2.714,0,0,0,.283,1.024" fill="#009fdd"/>
      <path id="Trazado_486" data-name="Trazado 486" d="M210.212,290.625a1.535,1.535,0,1,0-.086-1.172,1.546,1.546,0,0,0,.086,1.172" fill="#009fdd"/>
      <path id="Trazado_487" data-name="Trazado 487" d="M197.982,296.794a2.632,2.632,0,1,0-.142-2.011,2.651,2.651,0,0,0,.142,2.011" fill="#009fdd"/>
      <path id="Trazado_488" data-name="Trazado 488" d="M188.353,301.707a.9.9,0,0,0,1.209.39.89.89,0,1,0-1.3-.9.9.9,0,0,0,.088.508" fill="#009fdd"/>
      <path id="Trazado_489" data-name="Trazado 489" d="M177.424,307.194a.582.582,0,1,0-.027-.44.582.582,0,0,0,.027.44" fill="#009fdd"/>
      <path id="Trazado_490" data-name="Trazado 490" d="M163.36,314.3a3.744,3.744,0,1,0-.19-2.835,3.74,3.74,0,0,0,.19,2.835" fill="#009fdd"/>
      <path id="Trazado_491" data-name="Trazado 491" d="M132.539,329.873a.613.613,0,0,0,.592.317.62.62,0,0,0,.326-.131.605.605,0,0,0,.2-.289.593.593,0,0,0,.006-.349.6.6,0,0,0-.188-.295.609.609,0,0,0-.667-.085.6.6,0,0,0-.339.6.616.616,0,0,0,.072.232" fill="#009fdd"/>
      <path id="Trazado_492" data-name="Trazado 492" d="M120.727,335.841a1.283,1.283,0,1,0,1.979-1.55,1.29,1.29,0,0,0-1.421-.162,1.264,1.264,0,0,0-.7,1.234,1.249,1.249,0,0,0,.138.478" fill="#009fdd"/>
      <path id="Trazado_493" data-name="Trazado 493" d="M107.738,342.442a3.234,3.234,0,1,0-.338-1.221,3.255,3.255,0,0,0,.338,1.221" fill="#009fdd"/>
      <path id="Trazado_494" data-name="Trazado 494" d="M98.3,335.692a2.029,2.029,0,1,0-2.076-2.029,2.053,2.053,0,0,0,2.076,2.029" fill="#009fdd"/>
      <path id="Trazado_495" data-name="Trazado 495" d="M98.3,322.723A1.222,1.222,0,1,0,97.05,321.5a1.237,1.237,0,0,0,1.251,1.222" fill="#009fdd"/>
      <path id="Trazado_496" data-name="Trazado 496" d="M98.3,308.532a.831.831,0,1,0,.693,1.293.828.828,0,0,0-.1-1.05.837.837,0,0,0-.589-.243" fill="#009fdd"/>
      <path id="Trazado_497" data-name="Trazado 497" d="M100.527,271.928a1.144,1.144,0,0,0-1.425.765,1.134,1.134,0,0,0,.088.869,1.147,1.147,0,0,0,.679.553,1.22,1.22,0,0,0,.861-.106,1.138,1.138,0,0,0-.2-2.081" fill="#009fdd"/>
      <path id="Trazado_498" data-name="Trazado 498" d="M106.054,261.578a.781.781,0,0,0-.274-.139.769.769,0,0,0-.306-.021.771.771,0,0,0-.52.3.755.755,0,0,0-.13.28.744.744,0,0,0-.008.308.763.763,0,0,0,.117.286.743.743,0,0,0,.221.215.776.776,0,0,0,1.05-.166.778.778,0,0,0-.15-1.064" fill="#009fdd"/>
      <path id="Trazado_499" data-name="Trazado 499" d="M115.783,252.375a2.029,2.029,0,1,0-.375,2.835,2.059,2.059,0,0,0,.375-2.835" fill="#009fdd"/>
      <path id="Trazado_500" data-name="Trazado 500" d="M126.954,245.683a2.867,2.867,0,1,0,.232,2.186,2.876,2.876,0,0,0-.232-2.186" fill="#009fdd"/>
      <path id="Trazado_501" data-name="Trazado 501" d="M136.391,240.9a1.278,1.278,0,1,0,.081.973,1.284,1.284,0,0,0-.081-.973" fill="#009fdd"/>
      <path id="Trazado_502" data-name="Trazado 502" d="M147.963,235.058a2.031,2.031,0,1,0-.834,2.76,2.059,2.059,0,0,0,.834-2.76" fill="#009fdd"/>
      <path id="Trazado_503" data-name="Trazado 503" d="M157.858,230.054a.92.92,0,0,0-.224-.294.925.925,0,0,0-.687-.23.921.921,0,0,0-.356.1.958.958,0,1,0,1.267.424" fill="#009fdd"/>
      <path id="Trazado_504" data-name="Trazado 504" d="M171.472,223.179a3.986,3.986,0,1,0-1.726,5.42,4.027,4.027,0,0,0,1.726-5.42" fill="#009fdd"/>
      <path id="Trazado_505" data-name="Trazado 505" d="M179.808,218.964a1.141,1.141,0,1,0-.492,1.554,1.153,1.153,0,0,0,.492-1.554" fill="#009fdd"/>
      <path id="Trazado_506" data-name="Trazado 506" d="M212.879,202.254a1.625,1.625,0,0,0-.376-.543,1.629,1.629,0,0,0-2.373.141,1.8,1.8,0,0,0,.795,2.755,1.629,1.629,0,0,0,1.811-.489,1.614,1.614,0,0,0,.143-1.864" fill="#009fdd"/>
      <path id="Trazado_507" data-name="Trazado 507" d="M208.628,188.711a3.166,3.166,0,0,0,2.049,4.431,3.168,3.168,0,0,0,2.252-5.886,3.21,3.21,0,0,0-4.3,1.455" fill="#009fdd"/>
      <path id="Trazado_508" data-name="Trazado 508" d="M222.992,196.019a.973.973,0,1,0,1.325-.449.992.992,0,0,0-1.325.449" fill="#009fdd"/>
      <path id="Trazado_509" data-name="Trazado 509" d="M200.3,184.488a.348.348,0,0,0-.02.263.352.352,0,0,0,.17.2.357.357,0,0,0,.132.037.369.369,0,0,0,.136-.017.352.352,0,0,0,.118-.069.345.345,0,0,0,.081-.109.337.337,0,0,0,.039-.13.343.343,0,0,0-.015-.135.347.347,0,0,0-.067-.118.322.322,0,0,0-.107-.083.35.35,0,0,0-.467.158" fill="#009fdd"/>
      <path id="Trazado_510" data-name="Trazado 510" d="M188.462,178.519a1.452,1.452,0,1,0,1.967-.665,1.47,1.47,0,0,0-1.619.211,1.457,1.457,0,0,0-.348.454" fill="#009fdd"/>
      <path id="Trazado_511" data-name="Trazado 511" d="M176.548,172.5a2.646,2.646,0,1,0,3.585-1.214,2.686,2.686,0,0,0-2.044-.133,2.652,2.652,0,0,0-.9.521,2.685,2.685,0,0,0-.636.826" fill="#009fdd"/>
      <path id="Trazado_512" data-name="Trazado 512" d="M167.428,167.861a.706.706,0,0,0,.456.993.712.712,0,0,0,.744-.254.7.7,0,0,0-.25-1.063.717.717,0,0,0-.95.324" fill="#009fdd"/>
      <path id="Trazado_513" data-name="Trazado 513" d="M155.465,161.842a1.978,1.978,0,1,0,2.676-.906,2.013,2.013,0,0,0-2.676.906" fill="#009fdd"/>
      <path id="Trazado_514" data-name="Trazado 514" d="M144.544,156.331a2.028,2.028,0,1,0,2.751-.932,2.052,2.052,0,0,0-2.751.932" fill="#009fdd"/>
      <path id="Trazado_515" data-name="Trazado 515" d="M134.774,151.392a.833.833,0,0,0,.115.919.835.835,0,0,0,.9.243.835.835,0,0,0,.565-.736.834.834,0,0,0-1.577-.426" fill="#009fdd"/>
      <path id="Trazado_516" data-name="Trazado 516" d="M122.994,145.066a2.051,2.051,0,0,0,.692,2.835,2.074,2.074,0,1,0-.692-2.835" fill="#009fdd"/>
      <path id="Trazado_517" data-name="Trazado 517" d="M112.165,136.977a3.386,3.386,0,0,0,.367,4.888,3.338,3.338,0,0,0,4.894-.532,3.415,3.415,0,0,0-5.261-4.356" fill="#009fdd"/>
      <path id="Trazado_518" data-name="Trazado 518" d="M105.2,128.788a2.028,2.028,0,1,0,2.409,3.259,2.057,2.057,0,0,0,.417-2.826,2.1,2.1,0,0,0-2.826-.433" fill="#009fdd"/>
      <path id="Trazado_519" data-name="Trazado 519" d="M100.444,119.053a.833.833,0,0,0-.365.109.824.824,0,0,0-.278.26.814.814,0,0,0-.134.355,1.05,1.05,0,0,0,2.078.065.831.831,0,0,0-.242-.7.835.835,0,0,0-1.059-.091" fill="#009fdd"/>
      <path id="Trazado_520" data-name="Trazado 520" d="M98.31,105.91a2,2,0,0,0-.8.156,2.01,2.01,0,0,0-1.107,1.14,2,2,0,0,0,2.079,2.719,2.023,2.023,0,1,0-.208-4.04Z" fill="#009fdd"/>
      <path id="Trazado_521" data-name="Trazado 521" d="M98.3,96.366a.566.566,0,1,0-.575-.565.57.57,0,0,0,.575.565" fill="#009fdd"/>
      <path id="Trazado_522" data-name="Trazado 522" d="M98.3,81.635a2.041,2.041,0,0,0-1.857,1.286,2.042,2.042,0,1,0,3.941.751A2.064,2.064,0,0,0,98.3,81.635" fill="#009fdd"/>
      <path id="Trazado_523" data-name="Trazado 523" d="M98.3,70.428a1.124,1.124,0,1,0,.431.082,1.135,1.135,0,0,0-.431-.082" fill="#009fdd"/>
      <path id="Trazado_524" data-name="Trazado 524" d="M98.3,56.387a3.058,3.058,0,1,0,2.174.87,3.076,3.076,0,0,0-2.174-.87" fill="#009fdd"/>
      <path id="Trazado_525" data-name="Trazado 525" d="M111.79,52.746a1.211,1.211,0,0,0-.509-1.613,1.194,1.194,0,0,0-1.3.186,1.19,1.19,0,0,0,1.379,1.923,1.2,1.2,0,0,0,.476-.5Z" fill="#009fdd"/>
      <path id="Trazado_526" data-name="Trazado 526" d="M124.345,59.1a2.647,2.647,0,1,0-1.542,1.3,2.648,2.648,0,0,0,1.542-1.3" fill="#009fdd"/>
      <path id="Trazado_527" data-name="Trazado 527" d="M133.982,63.944a.833.833,0,1,0-1.564-.459.832.832,0,0,0,.463.808.836.836,0,0,0,1.1-.349" fill="#009fdd"/>
      <path id="Trazado_528" data-name="Trazado 528" d="M146.4,70.237a2.092,2.092,0,0,0-.253-2.32,2.1,2.1,0,1,0-.965,3.35,2.081,2.081,0,0,0,1.218-1.03" fill="#009fdd"/>
      <path id="Trazado_529" data-name="Trazado 529" d="M156.716,75.45a1.018,1.018,0,1,0-.6.51,1.018,1.018,0,0,0,.6-.51" fill="#009fdd"/>
      <path id="Trazado_530" data-name="Trazado 530" d="M168.445,81.4a1.537,1.537,0,0,0-.937-2.19,1.539,1.539,0,1,0-.555,3.012,1.532,1.532,0,0,0,1.492-.822" fill="#009fdd"/>
      <path id="Trazado_531" data-name="Trazado 531" d="M178.808,86.606a.513.513,0,0,0,.018-.383.508.508,0,0,0-.252-.29.5.5,0,0,0-.2-.071.5.5,0,0,0-.39.11.492.492,0,0,0-.128.162.5.5,0,0,0,.1.577.484.484,0,0,0,.174.111.509.509,0,0,0,.676-.216" fill="#009fdd"/>
      <path id="Trazado_532" data-name="Trazado 532" d="M190.979,92.766a1.536,1.536,0,1,0-.89.748,1.528,1.528,0,0,0,.89-.748" fill="#009fdd"/>
      <path id="Trazado_533" data-name="Trazado 533" d="M203.568,99.126a2.988,2.988,0,1,0-1.744,1.47,3,3,0,0,0,1.744-1.47" fill="#009fdd"/>
      <path id="Trazado_534" data-name="Trazado 534" d="M212.513,103.649a.406.406,0,0,0-.184-.532.391.391,0,0,0-.534.472.393.393,0,0,0,.184.226.4.4,0,0,0,.534-.166" fill="#009fdd"/>
      <path id="Trazado_535" data-name="Trazado 535" d="M224.409,109.668a1.093,1.093,0,1,0-.637.534,1.1,1.1,0,0,0,.637-.534" fill="#009fdd"/>
      <path id="Trazado_536" data-name="Trazado 536" d="M268.192,133.294a.4.4,0,0,0,.086-.3.4.4,0,0,0-.29-.338.4.4,0,0,0-.154-.01.377.377,0,0,0-.146.049.4.4,0,0,0-.117.1.4.4,0,0,0-.068.138.381.381,0,0,0-.011.154.4.4,0,0,0,.049.145.395.395,0,0,0,.651.058" fill="#009fdd"/>
      <path id="Trazado_537" data-name="Trazado 537" d="M277.871,143.752a2.1,2.1,0,0,0-.719-3.842,2.11,2.11,0,0,0-2.179.924,2.105,2.105,0,0,0,2.9,2.918" fill="#009fdd"/>
      <path id="Trazado_538" data-name="Trazado 538" d="M282.615,155.391a2.027,2.027,0,0,0,1.576-1.763,2.016,2.016,0,0,0-.084-.831,2.061,2.061,0,0,0-2.617-1.446,2.082,2.082,0,0,0-.411,3.785,2.149,2.149,0,0,0,1.536.255" fill="#009fdd"/>
      <path id="Trazado_539" data-name="Trazado 539" d="M283.757,166.606a.835.835,0,1,0-.589-.244.833.833,0,0,0,.589.244" fill="#009fdd"/>
      <path id="Trazado_540" data-name="Trazado 540" d="M283.765,181.653a3.284,3.284,0,1,0-3.243-3.284,3.264,3.264,0,0,0,3.243,3.284" fill="#009fdd"/>
      <path id="Trazado_541" data-name="Trazado 541" d="M283.766,217.068a.9.9,0,1,0-.33-1.726.9.9,0,0,0-.554.837.879.879,0,0,0,.065.339.883.883,0,0,0,.819.55" fill="#009fdd"/>
      <path id="Trazado_542" data-name="Trazado 542" d="M283.766,231.367a3.183,3.183,0,1,0-3.143-3.184,3.165,3.165,0,0,0,3.143,3.184" fill="#009fdd"/>
      <path id="Trazado_543" data-name="Trazado 543" d="M154.582,316.421c-.726.366-.834,1.164-1.134,1.846a4.362,4.362,0,0,1-3,1.829c-.759,0-1.442-.557-2.176-.183a2.067,2.067,0,0,0,1.876,3.683c.733-.366.758-1.2,1.133-1.854s2.118-1.937,2.985-1.829,1.45.565,2.184.191a2.063,2.063,0,0,0-.288-3.8,2.075,2.075,0,0,0-1.579.119" fill="#009fdd"/>
      <path id="Trazado_544" data-name="Trazado 544" d="M96.275,289.1a1.946,1.946,0,0,0,.508,1.414,2.626,2.626,0,0,1,.626,1.812,2.928,2.928,0,0,1-1.151,2.328A3.166,3.166,0,0,0,95,297.143a3.335,3.335,0,0,0,6.6,0,3.17,3.17,0,0,0-1.233-2.494,2.928,2.928,0,0,1-1.126-2.3,4.516,4.516,0,0,1,.133-1.455c.392-.632,1.009-.981,1.051-1.721a2.1,2.1,0,0,0-2-2.078,2.027,2.027,0,0,0-1.505.543,2.026,2.026,0,0,0-.646,1.46" fill="#009fdd"/>
      <path id="Trazado_545" data-name="Trazado 545" d="M195.089,209.2c-.684.341-.675,1.148-1.075,1.754a3.557,3.557,0,0,1-2.551,1.164c-1.084-.183-1.976-1-2.985-.482a2.638,2.638,0,0,0,2.384,4.706c.976-.5.834-1.663,1.393-2.569a3.5,3.5,0,0,1,2.5-1.148c.783.1,1.467.632,2.2.266a2.071,2.071,0,0,0-1.867-3.691" fill="#009fdd"/>
      <path id="Trazado_546" data-name="Trazado 546" d="M280.973,190.972a2.8,2.8,0,0,0,1.008,2.162,2.653,2.653,0,0,1,.834,1.746c.075.54.325,1.347,0,1.845-.383.64-1.125,1.031-1.125,1.846a2.084,2.084,0,0,0,4.168,0c0-.831-.775-1.231-1.184-1.879a1.737,1.737,0,0,1-.058-1.014,3.221,3.221,0,0,1,.925-2.494A2.836,2.836,0,0,0,286.575,191a2.78,2.78,0,0,0-.761-2.066,2.8,2.8,0,0,0-4.056,0A2.784,2.784,0,0,0,281,191Z" fill="#009fdd"/>
      <path id="Trazado_547" data-name="Trazado 547" d="M234.571,114.73a4.265,4.265,0,0,0,5.836,5.62,3.134,3.134,0,0,1,2.851.058,4.016,4.016,0,0,1,1.484,1.43,1.937,1.937,0,0,0,.733.632c.642.324,1.268,0,1.918,0a2.012,2.012,0,0,1,.658.316,3.387,3.387,0,0,1,1.9,2.2,3.611,3.611,0,0,0,2.393,2.652,3.541,3.541,0,0,0,3.609-.889,3.487,3.487,0,0,0-.883-5.554,3.037,3.037,0,0,0-2.893.191,3.474,3.474,0,0,1-4.168-1.321,2.362,2.362,0,0,0-.976-.882c-.833-.424-1.233.308-2.075,0a3.134,3.134,0,0,1-2.376-2.976,4.281,4.281,0,0,0-8.029-1.488Z" fill="#009fdd"/>
      <path id="Trazado_548" data-name="Trazado 548" d="M236.047,517.265a.5.5,0,0,0,.205.044.514.514,0,0,0,.378-.163.52.52,0,0,0,.107-.181.505.505,0,0,0-.175-.567.512.512,0,0,0-.19-.09.5.5,0,0,0-.6.694.523.523,0,0,0,.273.263" fill="#009fdd"/>
      <path id="Trazado_549" data-name="Trazado 549" d="M232.162,523.674a1.776,1.776,0,0,0,2.874-.945,1.769,1.769,0,0,0-.247-1.384,1.769,1.769,0,0,0-.51-.506,1.8,1.8,0,0,0-2.425.4,1.757,1.757,0,0,0,.308,2.436" fill="#009fdd"/>
      <path id="Trazado_550" data-name="Trazado 550" d="M228.069,527.415a1.052,1.052,0,0,0,.313.285,1.05,1.05,0,0,0,1.584-.824,1.047,1.047,0,0,0-.272-.783,1.049,1.049,0,0,0-1.625,1.322" fill="#009fdd"/>
      <path id="Trazado_551" data-name="Trazado 551" d="M222.158,531.156a1.744,1.744,0,1,0,1.98-2.539,1.745,1.745,0,0,0-2.146,1.217,1.734,1.734,0,0,0,.166,1.322" fill="#009fdd"/>
      <path id="Trazado_552" data-name="Trazado 552" d="M217.931,533.268a.23.23,0,0,0,.051.065.211.211,0,0,0,.072.04.211.211,0,0,0,.161-.014.215.215,0,0,0,.091-.282.208.208,0,0,0-.122-.105.215.215,0,0,0-.161.013.211.211,0,0,0-.1.122.215.215,0,0,0,.013.161" fill="#009fdd"/>
      <path id="Trazado_553" data-name="Trazado 553" d="M212.271,536.144a.266.266,0,0,0,.155.132.283.283,0,0,0,.289-.078.26.26,0,0,0,.054-.092.252.252,0,0,0,.014-.105.264.264,0,0,0-.028-.1.267.267,0,0,0-.066-.083.266.266,0,0,0-.2-.061.27.27,0,0,0-.218.39" fill="#009fdd"/>
      <path id="Trazado_554" data-name="Trazado 554" d="M205.677,539.47a1.37,1.37,0,1,0-.072-1.039,1.368,1.368,0,0,0,.072,1.039" fill="#009fdd"/>
      <path id="Trazado_555" data-name="Trazado 555" d="M200.608,542.022a.777.777,0,0,0,1.434-.092.762.762,0,0,0,.011-.451.777.777,0,0,0-1.1-.48.766.766,0,0,0-.386.44.763.763,0,0,0,.044.583" fill="#009fdd"/>
      <path id="Trazado_556" data-name="Trazado 556" d="M194.506,545.106a1.32,1.32,0,0,0,2.43-.186,1.307,1.307,0,0,0-.075-1,1.311,1.311,0,0,0-1.27-.714,1.284,1.284,0,0,0-.493.137,1.3,1.3,0,0,0-.73,1.267,1.277,1.277,0,0,0,.138.495" fill="#009fdd"/>
      <path id="Trazado_557" data-name="Trazado 557" d="M189.645,547.55a.451.451,0,0,0,.6.191.474.474,0,0,0,.144-.108.459.459,0,0,0,.092-.155.461.461,0,0,0-.02-.352.457.457,0,0,0-.263-.235.456.456,0,0,0-.179-.026.487.487,0,0,0-.175.045.457.457,0,0,0-.244.275.473.473,0,0,0-.017.187.465.465,0,0,0,.061.178" fill="#009fdd"/>
      <path id="Trazado_558" data-name="Trazado 558" d="M184.21,550.277a.3.3,0,0,0,.171.14.294.294,0,0,0,.354-.406.292.292,0,0,0-.392-.125.3.3,0,0,0-.145.169.3.3,0,0,0,.012.222" fill="#009fdd"/>
      <path id="Trazado_559" data-name="Trazado 559" d="M177.182,553.86a1.89,1.89,0,1,0,.834-2.494,1.869,1.869,0,0,0-.834,2.494" fill="#009fdd"/>
      <path id="Trazado_560" data-name="Trazado 560" d="M161.768,561.65a.311.311,0,0,0,.072.094.3.3,0,0,0,.1.058.314.314,0,0,0,.118.014.318.318,0,0,0,.114-.033.3.3,0,0,0,.158-.174.315.315,0,0,0,.016-.118.309.309,0,0,0-.032-.116.313.313,0,0,0-.178-.137.308.308,0,0,0-.225.02.313.313,0,0,0-.151.167.307.307,0,0,0,0,.225" fill="#009fdd"/>
      <path id="Trazado_561" data-name="Trazado 561" d="M155.866,564.634a.631.631,0,0,0,.25.281.64.64,0,0,0,.72-.036.639.639,0,0,0,.232-.681.638.638,0,0,0-.2-.317.643.643,0,0,0-.717-.078.638.638,0,0,0-.283.831" fill="#009fdd"/>
      <path id="Trazado_562" data-name="Trazado 562" d="M149.371,567.918a1.67,1.67,0,0,0,3.091-.186,1.667,1.667,0,0,0-2.365-1.992,1.621,1.621,0,0,0-.726,2.178" fill="#009fdd"/>
      <path id="Trazado_563" data-name="Trazado 563" d="M144.653,564.559a1.014,1.014,0,1,0-1.034-1.014,1.024,1.024,0,0,0,1.034,1.014" fill="#009fdd"/>
      <path id="Trazado_564" data-name="Trazado 564" d="M144.653,558.075a.616.616,0,1,0-.626-.615.621.621,0,0,0,.626.615" fill="#009fdd"/>
      <path id="Trazado_565" data-name="Trazado 565" d="M144.628,550.975a.411.411,0,0,0-.378.252.4.4,0,0,0-.023.235.407.407,0,0,0,.321.32.407.407,0,1,0,.08-.807" fill="#009fdd"/>
      <path id="Trazado_566" data-name="Trazado 566" d="M145.762,532.677a.574.574,0,0,0-.222-.02.588.588,0,0,0-.212.065.572.572,0,0,0-.171.142.561.561,0,0,0-.1.2.587.587,0,0,0-.021.221.559.559,0,0,0,.066.211.567.567,0,0,0,.338.274.555.555,0,0,0,.222.021.587.587,0,0,0,.212-.065.572.572,0,0,0,.171-.142.562.562,0,0,0,.1-.2.587.587,0,0,0,.021-.221.559.559,0,0,0-.066-.211.572.572,0,0,0-.142-.171.587.587,0,0,0-.2-.1" fill="#009fdd"/>
      <path id="Trazado_567" data-name="Trazado 567" d="M148.529,527.506a.384.384,0,0,0-.138-.077.378.378,0,0,0-.157-.016.4.4,0,0,0-.15.049.376.376,0,0,0-.118.106.369.369,0,0,0-.065.144.383.383,0,0,0,0,.158.376.376,0,0,0,.063.145.4.4,0,0,0,.116.107.4.4,0,0,0,.525-.092.379.379,0,0,0,.068-.277.384.384,0,0,0-.143-.247" fill="#009fdd"/>
      <path id="Trazado_568" data-name="Trazado 568" d="M153.39,522.9a1.019,1.019,0,0,0-.3-.276.981.981,0,0,0-.382-.138,1.017,1.017,0,0,0-1.036.507,1.008,1.008,0,0,0-.086.789,1,1,0,0,0,.193.357,1.016,1.016,0,0,0,1.609-1.239" fill="#009fdd"/>
      <path id="Trazado_569" data-name="Trazado 569" d="M158.975,519.517a1.443,1.443,0,0,0-2.508-.353,1.424,1.424,0,0,0-.253.557,1.456,1.456,0,0,0,0,.613,4.416,4.416,0,0,0,.591,1.07,1.44,1.44,0,0,0,1.124.415,1.437,1.437,0,0,0,1.044-2.3" fill="#009fdd"/>
      <path id="Trazado_570" data-name="Trazado 570" d="M163.694,517.165a.642.642,0,0,0-1.117-.043.627.627,0,0,0-.1.363.638.638,0,0,0,.429.577.651.651,0,0,0,.376.015.641.641,0,0,0,.407-.912" fill="#009fdd"/>
      <path id="Trazado_571" data-name="Trazado 571" d="M169.479,514.238a1.018,1.018,0,1,0,.067.782,1.03,1.03,0,0,0-.067-.782" fill="#009fdd"/>
      <path id="Trazado_572" data-name="Trazado 572" d="M174.431,511.736a.471.471,0,0,0-.269-.3.468.468,0,0,0-.2-.037.473.473,0,0,0-.358.182.465.465,0,0,0-.088.185.458.458,0,0,0,0,.2.475.475,0,0,0,.085.187.484.484,0,0,0,.1.179.472.472,0,0,0,.37.156.473.473,0,0,0,.358-.182.487.487,0,0,0,.088-.185.47.47,0,0,0-.084-.392" fill="#009fdd"/>
      <path id="Trazado_573" data-name="Trazado 573" d="M181.234,508.3a1.989,1.989,0,1,0-.834,2.71,2,2,0,0,0,.834-2.71" fill="#009fdd"/>
      <path id="Trazado_574" data-name="Trazado 574" d="M185.4,506.216a.584.584,0,0,0-.775-.258.561.561,0,0,0-.285.336.58.58,0,0,0-.023.223.556.556,0,0,0,.066.214.569.569,0,0,0,.137.175.579.579,0,0,0,.194.108.556.556,0,0,0,.221.027.575.575,0,0,0,.215-.06.567.567,0,0,0,.284-.331.571.571,0,0,0-.034-.434" fill="#009fdd"/>
      <path id="Trazado_575" data-name="Trazado 575" d="M201.942,497.836a.831.831,0,1,0,.05.624.836.836,0,0,0-.05-.624" fill="#009fdd"/>
      <path id="Trazado_576" data-name="Trazado 576" d="M199.816,491.069a1.578,1.578,0,0,0,1.029,2.2,1.581,1.581,0,0,0,1.982-1.415,1.569,1.569,0,0,0-.2-.889,1.587,1.587,0,0,0-.66-.631,1.612,1.612,0,0,0-2.151.732" fill="#009fdd"/>
      <path id="Trazado_577" data-name="Trazado 577" d="M206.977,494.719a.491.491,0,0,0-.044.28.492.492,0,0,0,.361.406.491.491,0,0,0,.284-.009.49.49,0,0,0,.271-.706.49.49,0,0,0-.205-.2.512.512,0,0,0-.379-.021.507.507,0,0,0-.288.246" fill="#009fdd"/>
      <path id="Trazado_578" data-name="Trazado 578" d="M195.647,488.966a.182.182,0,0,0,0,.122.175.175,0,0,0,.306.036.164.164,0,0,0,.024-.067.17.17,0,0,0-.006-.071.166.166,0,0,0-.035-.062.157.157,0,0,0-.058-.041.17.17,0,0,0-.066-.017.176.176,0,0,0-.068.01.184.184,0,0,0-.059.035.172.172,0,0,0-.041.055" fill="#009fdd"/>
      <path id="Trazado_579" data-name="Trazado 579" d="M189.728,485.973a.741.741,0,0,0,.317.989.726.726,0,0,0,.561.037.726.726,0,0,0,.249-.142.756.756,0,0,0,.174-.227.728.728,0,0,0-1.126-.884.731.731,0,0,0-.175.227" fill="#009fdd"/>
      <path id="Trazado_580" data-name="Trazado 580" d="M183.81,482.939a1.318,1.318,0,1,0,.315-.417,1.3,1.3,0,0,0-.315.417" fill="#009fdd"/>
      <path id="Trazado_581" data-name="Trazado 581" d="M179.216,480.661a.349.349,0,0,0-.039.131.353.353,0,0,0,.015.137.346.346,0,0,0,.067.12.341.341,0,0,0,.107.085.349.349,0,0,0,.271.021.34.34,0,0,0,.121-.069.358.358,0,0,0,.084-.109.353.353,0,0,0,.024-.272.35.35,0,0,0-.65-.044" fill="#009fdd"/>
      <path id="Trazado_582" data-name="Trazado 582" d="M173.222,477.634a.984.984,0,1,0,1.745-.066.975.975,0,0,0-.411-.391,1,1,0,0,0-1.334.457" fill="#009fdd"/>
      <path id="Trazado_583" data-name="Trazado 583" d="M167.77,474.874a1.018,1.018,0,0,0,.828,1.487,1.013,1.013,0,0,0,.741-.253.986.986,0,0,0,.24-.319,1.014,1.014,0,0,0-.409-1.431,1.02,1.02,0,0,0-1.4.516" fill="#009fdd"/>
      <path id="Trazado_584" data-name="Trazado 584" d="M162.885,472.4a.415.415,0,0,0,.175.557.4.4,0,0,0,.156.046.4.4,0,0,0,.162-.019.408.408,0,0,0,.142-.08.424.424,0,0,0,.142-.284.408.408,0,0,0-.018-.159.422.422,0,0,0-.079-.14.4.4,0,0,0-.126-.1.4.4,0,0,0-.154-.044.414.414,0,0,0-.16.019.416.416,0,0,0-.24.2" fill="#009fdd"/>
      <path id="Trazado_585" data-name="Trazado 585" d="M157,469.246a1.016,1.016,0,1,0,1.751,1.023A1.014,1.014,0,0,0,157,469.246" fill="#009fdd"/>
      <path id="Trazado_586" data-name="Trazado 586" d="M151.58,465.2a1.709,1.709,0,0,0,2.635,2.178,1.709,1.709,0,0,0-2.635-2.178" fill="#009fdd"/>
      <path id="Trazado_587" data-name="Trazado 587" d="M148.1,461.107a1.031,1.031,0,0,0-.273.293,1,1,0,0,0-.14.374,1.025,1.025,0,0,0,.473,1.036,1.033,1.033,0,0,0,.375.14,1.022,1.022,0,0,0,.4-.014,1.033,1.033,0,0,0,.365-.166,1.024,1.024,0,0,0-.435-1.842,1.032,1.032,0,0,0-.766.179" fill="#009fdd"/>
      <path id="Trazado_588" data-name="Trazado 588" d="M145.7,456.236a.388.388,0,0,0-.135.078.4.4,0,0,0-.095.124.414.414,0,0,0-.041.15.4.4,0,0,0,.223.385.4.4,0,0,0,.152.04.41.41,0,0,0,.155-.021.4.4,0,0,0,.227-.2.406.406,0,0,0,.023-.3.418.418,0,0,0-.509-.249" fill="#009fdd"/>
      <path id="Trazado_589" data-name="Trazado 589" d="M144.628,449.685a1.017,1.017,0,0,0-.408.076,1.034,1.034,0,0,0-.343.233,1.012,1.012,0,0,0,.446,1.678,1,1,0,0,0,.413.033,1.068,1.068,0,0,0,.691-.345,1.057,1.057,0,0,0,.276-.719,1.048,1.048,0,0,0-1.075-.956" fill="#009fdd"/>
      <path id="Trazado_590" data-name="Trazado 590" d="M144.653,444.888a.283.283,0,1,0-.292-.283.286.286,0,0,0,.292.283" fill="#009fdd"/>
      <path id="Trazado_591" data-name="Trazado 591" d="M144.628,437.531a1.014,1.014,0,1,0,1.042,1.014,1.033,1.033,0,0,0-1.042-1.014" fill="#009fdd"/>
      <path id="Trazado_592" data-name="Trazado 592" d="M144.628,431.928a.558.558,0,0,0-.539.67.562.562,0,0,0,.155.283.559.559,0,0,0,.951-.4.565.565,0,0,0-.567-.557" fill="#009fdd"/>
      <path id="Trazado_593" data-name="Trazado 593" d="M144.628,424.911a1.5,1.5,0,1,0,1.542,1.5,1.523,1.523,0,0,0-1.542-1.5" fill="#009fdd"/>
      <path id="Trazado_594" data-name="Trazado 594" d="M151.4,423.082a.6.6,0,0,0,.044-.475.6.6,0,0,0-.123-.211.623.623,0,0,0-.65-.182.6.6,0,0,0-.2.113.577.577,0,0,0-.144.182.586.586,0,0,0-.037.452.6.6,0,0,0,.113.2.621.621,0,0,0,.182.144.6.6,0,0,0,.817-.225" fill="#009fdd"/>
      <path id="Trazado_595" data-name="Trazado 595" d="M157.675,426.258a1.329,1.329,0,1,0-.772.646,1.327,1.327,0,0,0,.772-.646" fill="#009fdd"/>
      <path id="Trazado_596" data-name="Trazado 596" d="M162.493,428.694a.41.41,0,0,0,.043-.233.4.4,0,0,0-.094-.217.4.4,0,0,0-.2-.129.419.419,0,0,0-.238,0,.407.407,0,1,0,.248.776.409.409,0,0,0,.239-.2" fill="#009fdd"/>
      <path id="Trazado_597" data-name="Trazado 597" d="M168.7,431.828a1.049,1.049,0,0,0-1.251-1.485,1.061,1.061,0,0,0-.5.348,1.063,1.063,0,0,0,.744,1.7,1.027,1.027,0,0,0,.4-.046,1.015,1.015,0,0,0,.605-.519" fill="#009fdd"/>
      <path id="Trazado_598" data-name="Trazado 598" d="M173.856,434.438a.518.518,0,0,0,.058-.294.512.512,0,0,0-.116-.277.516.516,0,0,0-.553-.163.515.515,0,0,0-.081.95.5.5,0,0,0,.192.058.508.508,0,0,0,.5-.274" fill="#009fdd"/>
      <path id="Trazado_599" data-name="Trazado 599" d="M179.725,437.4a.781.781,0,0,0,.084-.443.774.774,0,0,0-.557-.659.774.774,0,0,0-.889,1.124.791.791,0,0,0,.616.392.752.752,0,0,0,.3-.034.771.771,0,0,0,.448-.38" fill="#009fdd"/>
      <path id="Trazado_600" data-name="Trazado 600" d="M184.893,440.017a.249.249,0,0,0,.011-.191.253.253,0,0,0-.127-.142.248.248,0,0,0-.187-.017.246.246,0,0,0-.147.117.256.256,0,0,0-.011.194.253.253,0,0,0,.461.039" fill="#009fdd"/>
      <path id="Trazado_601" data-name="Trazado 601" d="M190.987,443.092a.763.763,0,0,0-.1-.846.773.773,0,0,0-.376-.24.766.766,0,1,0,.029,1.466.758.758,0,0,0,.443-.38" fill="#009fdd"/>
      <path id="Trazado_602" data-name="Trazado 602" d="M197.282,446.276a1.487,1.487,0,1,0-.871.738,1.487,1.487,0,0,0,.871-.738" fill="#009fdd"/>
      <path id="Trazado_603" data-name="Trazado 603" d="M201.758,448.538a.206.206,0,0,0-.091-.266.2.2,0,0,0-.151-.013.19.19,0,0,0-.125.248.2.2,0,0,0,.1.114.2.2,0,0,0,.15.012.193.193,0,0,0,.116-.1" fill="#009fdd"/>
      <path id="Trazado_604" data-name="Trazado 604" d="M207.7,451.539a.547.547,0,0,0-.27-.676.465.465,0,1,0,.27.676" fill="#009fdd"/>
      <path id="Trazado_605" data-name="Trazado 605" d="M229.594,463.36a.177.177,0,0,0,.047-.064.2.2,0,0,0,.016-.077.2.2,0,0,0-.016-.077.2.2,0,0,0-.047-.064.206.206,0,0,0-.141-.056.208.208,0,0,0-.142.056.211.211,0,0,0-.032.145.205.205,0,0,0,.074.129.2.2,0,0,0,.119.045.2.2,0,0,0,.122-.037" fill="#009fdd"/>
      <path id="Trazado_606" data-name="Trazado 606" d="M234.429,468.59a1.045,1.045,0,1,0-.765.143,1.048,1.048,0,0,0,.765-.143" fill="#009fdd"/>
      <path id="Trazado_607" data-name="Trazado 607" d="M236.8,474.384a1.014,1.014,0,0,0,.662-.484,1.015,1.015,0,0,0,.089-.813,1.033,1.033,0,0,0-.182-.374,1.035,1.035,0,0,0-.713-.394,1.035,1.035,0,0,0-.414.045,1.049,1.049,0,0,0,.558,2.02" fill="#009fdd"/>
      <path id="Trazado_608" data-name="Trazado 608" d="M237.381,480.012a.409.409,0,0,0,.158-.032.4.4,0,0,0,.133-.09.414.414,0,0,0,.088-.135.408.408,0,0,0,.029-.159.427.427,0,0,0-.425-.424.429.429,0,0,0-.245.148.416.416,0,0,0-.1.268.426.426,0,0,0,.342.416Z" fill="#009fdd"/>
      <path id="Trazado_609" data-name="Trazado 609" d="M237.38,487.527a1.638,1.638,0,1,0-1.617-1.637,1.627,1.627,0,0,0,1.617,1.637" fill="#009fdd"/>
      <path id="Trazado_610" data-name="Trazado 610" d="M237.38,505.243a.449.449,0,0,0,.451-.534.458.458,0,0,0-.124-.232.45.45,0,0,0-.768.326.44.44,0,0,0,.441.44" fill="#009fdd"/>
      <path id="Trazado_611" data-name="Trazado 611" d="M237.381,512.393a1.587,1.587,0,1,0-1.567-1.588,1.545,1.545,0,0,0,.114.6,1.593,1.593,0,0,0,.338.515,1.586,1.586,0,0,0,1.115.469" fill="#009fdd"/>
      <path id="Trazado_612" data-name="Trazado 612" d="M172.789,554.924c-.367.183-.409.582-.567.923a2.187,2.187,0,0,1-1.5.914c-.375,0-.716-.282-1.083-.091a1.032,1.032,0,0,0-.606,1.006,1.034,1.034,0,0,0,1.145.958,1.014,1.014,0,0,0,.394-.127c.367-.183.384-.6.567-.923a2.18,2.18,0,0,1,1.493-.914c.383,0,.725.283,1.092.091a1.031,1.031,0,0,0,.335-.242,1.031,1.031,0,0,0-.874-1.721,1.04,1.04,0,0,0-.4.126" fill="#009fdd"/>
      <path id="Trazado_613" data-name="Trazado 613" d="M143.636,541.257a.988.988,0,0,0,.258.707,1.313,1.313,0,0,1,.308.906,1.443,1.443,0,0,1-.575,1.164A1.581,1.581,0,0,0,143,545.3a1.668,1.668,0,0,0,3.335,0,1.581,1.581,0,0,0-.617-1.247,1.458,1.458,0,0,1-.567-1.155,2.237,2.237,0,0,1,.067-.724c.2-.316.508-.49.525-.831a1.031,1.031,0,0,0-1-1.039,1.014,1.014,0,0,0-.761.24,1,1,0,0,0-.347.716" fill="#009fdd"/>
      <path id="Trazado_614" data-name="Trazado 614" d="M193.047,501.311c-.342.166-.342.574-.542.831a1.788,1.788,0,0,1-1.276.591c-.542-.1-.983-.507-1.492-.25a1.323,1.323,0,0,0,1.192,2.353c.492-.241.442-.831.7-1.28a1.7,1.7,0,0,1,.566-.417,1.723,1.723,0,0,1,.685-.157c.392.05.734.316,1.1.133a1.014,1.014,0,0,0-.157-1.876,1,1,0,0,0-.4-.041,1.013,1.013,0,0,0-.38.113" fill="#009fdd"/>
      <path id="Trazado_615" data-name="Trazado 615" d="M235.988,492.2a1.407,1.407,0,0,0,.5,1.08,1.364,1.364,0,0,1,.409.832c0,.266.158.673,0,.923s-.559.515-.559.922a1.034,1.034,0,0,0,2.068,0c0-.424-.384-.615-.592-.939a.876.876,0,0,1,0-.507,1.655,1.655,0,0,1,.1-.68,1.636,1.636,0,0,1,.363-.584,1.4,1.4,0,1,0-2.268-1.089Z" fill="#009fdd"/>
      <path id="Trazado_616" data-name="Trazado 616" d="M212.787,454.074a2.133,2.133,0,0,0,2.927,2.81,1.57,1.57,0,0,1,1.425,0,2.1,2.1,0,0,1,.742.715.98.98,0,0,0,.367.324c.317.158.634,0,.959,0a1.1,1.1,0,0,1,.325.158,1.665,1.665,0,0,1,.95,1.106,1.807,1.807,0,0,0,1.2,1.322,1.754,1.754,0,0,0,1.358-3.217,1.5,1.5,0,0,0-.732-.138,1.52,1.52,0,0,0-.71.229,1.736,1.736,0,0,1-2.1-.657,1.219,1.219,0,0,0-.491-.44c-.417-.216-.617.149-1.034,0a1.582,1.582,0,0,1-1.192-1.488,2.136,2.136,0,0,0-4.01-.749Z" fill="#009fdd"/>
      <path id="Trazado_617" data-name="Trazado 617" d="M281.1,836.939a1.019,1.019,0,0,0,.784-.035,1.016,1.016,0,0,0,.32-.24,1.006,1.006,0,0,0-.453-1.629,1.006,1.006,0,0,0-.651,1.9" fill="#009fdd"/>
      <path id="Trazado_618" data-name="Trazado 618" d="M273.336,849.767a3.546,3.546,0,1,0,4.235-5.678,3.606,3.606,0,0,0-4.852.831,3.545,3.545,0,0,0,.617,4.847" fill="#009fdd"/>
      <path id="Trazado_619" data-name="Trazado 619" d="M265.142,857.249a2.088,2.088,0,1,0,.341-2.893,2.115,2.115,0,0,0-.341,2.893" fill="#009fdd"/>
      <path id="Trazado_620" data-name="Trazado 620" d="M253.337,864.664a3.478,3.478,0,1,0-.27-2.607,3.485,3.485,0,0,0,.27,2.607" fill="#009fdd"/>
      <path id="Trazado_621" data-name="Trazado 621" d="M244.859,868.954a.425.425,0,0,0,.566.183.431.431,0,0,0,.131-.1.416.416,0,0,0,.08-.144.409.409,0,0,0,.019-.163.416.416,0,0,0-.6-.332.412.412,0,0,0-.233.4.4.4,0,0,0,.042.157" fill="#009fdd"/>
      <path id="Trazado_622" data-name="Trazado 622" d="M233.537,874.673a.543.543,0,0,0,.818.2.539.539,0,0,0,.184-.257.529.529,0,0,0,.009-.315.543.543,0,0,0-.168-.267.546.546,0,0,0-.6-.072.54.54,0,0,0-.242.715" fill="#009fdd"/>
      <path id="Trazado_623" data-name="Trazado 623" d="M220.358,881.341a2.754,2.754,0,0,0,2.656,1.523,2.744,2.744,0,1,0-1.439-5.181,2.722,2.722,0,0,0-1.217,3.658" fill="#009fdd"/>
      <path id="Trazado_624" data-name="Trazado 624" d="M210.212,886.462a1.549,1.549,0,1,0,1.573-2.215,1.566,1.566,0,0,0-.89.161,1.533,1.533,0,0,0-.472.367,1.526,1.526,0,0,0-.211,1.687" fill="#009fdd"/>
      <path id="Trazado_625" data-name="Trazado 625" d="M197.982,892.63a2.618,2.618,0,1,0-.274-.991,2.644,2.644,0,0,0,.274.991" fill="#009fdd"/>
      <path id="Trazado_626" data-name="Trazado 626" d="M188.353,897.51a.9.9,0,0,0,1.65-.144.886.886,0,0,0,.037-.347.877.877,0,0,0-.1-.336.891.891,0,0,0-.22-.272.894.894,0,0,0-1.429.42.9.9,0,0,0,.061.679" fill="#009fdd"/>
      <path id="Trazado_627" data-name="Trazado 627" d="M177.424,903.03a.581.581,0,1,0-.027-.439.577.577,0,0,0,.027.439" fill="#009fdd"/>
      <path id="Trazado_628" data-name="Trazado 628" d="M163.36,910.138a3.745,3.745,0,1,0-.19-2.834,3.737,3.737,0,0,0,.19,2.834" fill="#009fdd"/>
      <path id="Trazado_629" data-name="Trazado 629" d="M132.539,925.709a.612.612,0,1,0,.943-.737.6.6,0,0,0-.212-.117.609.609,0,0,0-.24-.027.608.608,0,0,0-.533.42.584.584,0,0,0-.025.235.6.6,0,0,0,.067.226" fill="#009fdd"/>
      <path id="Trazado_630" data-name="Trazado 630" d="M120.727,931.678a1.272,1.272,0,0,0,.5.563,1.284,1.284,0,0,0,1.882-.682,1.28,1.28,0,0,0-.383-1.387,1.282,1.282,0,0,0-2,1.506" fill="#009fdd"/>
      <path id="Trazado_631" data-name="Trazado 631" d="M107.738,938.246a3.263,3.263,0,1,0,1.451-4.356,3.236,3.236,0,0,0-1.451,4.356" fill="#009fdd"/>
      <path id="Trazado_632" data-name="Trazado 632" d="M98.3,931.537a2.029,2.029,0,1,0-2.076-2.028,2.053,2.053,0,0,0,2.076,2.028" fill="#009fdd"/>
      <path id="Trazado_633" data-name="Trazado 633" d="M98.3,918.56a1.222,1.222,0,1,0-1.251-1.222A1.237,1.237,0,0,0,98.3,918.56" fill="#009fdd"/>
      <path id="Trazado_634" data-name="Trazado 634" d="M98.3,904.369a.831.831,0,0,0-.59,1.419.849.849,0,0,0,.427.228.837.837,0,0,0,.856-.354.831.831,0,0,0-.693-1.293" fill="#009fdd"/>
      <path id="Trazado_635" data-name="Trazado 635" d="M100.527,867.765a1.151,1.151,0,0,0-.872.088,1.14,1.14,0,0,0,.214,2.1,1.142,1.142,0,0,0,.658-2.186" fill="#009fdd"/>
      <path id="Trazado_636" data-name="Trazado 636" d="M106.054,857.423a.774.774,0,0,0-.275-.155.784.784,0,0,0-.316-.032.775.775,0,0,0-.3.1.757.757,0,0,0-.236.211.767.767,0,0,0-.13.288.782.782,0,0,0,0,.316.768.768,0,0,0,.359.5.784.784,0,0,0,1.05-.175.764.764,0,0,0-.15-1.056" fill="#009fdd"/>
      <path id="Trazado_637" data-name="Trazado 637" d="M115.783,848.212a2.034,2.034,0,1,0,.4,1.494,2.031,2.031,0,0,0-.4-1.494" fill="#009fdd"/>
      <path id="Trazado_638" data-name="Trazado 638" d="M126.954,841.52a2.865,2.865,0,1,0,.232,2.186,2.876,2.876,0,0,0-.232-2.186" fill="#009fdd"/>
      <path id="Trazado_639" data-name="Trazado 639" d="M136.391,836.74a1.265,1.265,0,1,0-.55,1.72,1.278,1.278,0,0,0,.55-1.72" fill="#009fdd"/>
      <path id="Trazado_640" data-name="Trazado 640" d="M147.963,830.9a2.043,2.043,0,1,0,.153,1.552,2.036,2.036,0,0,0-.153-1.552" fill="#009fdd"/>
      <path id="Trazado_641" data-name="Trazado 641" d="M157.858,825.89a.948.948,0,0,0-.216-.309.953.953,0,1,0-.914,1.649.944.944,0,0,0,.373.055.93.93,0,0,0,.757-1.395" fill="#009fdd"/>
      <path id="Trazado_642" data-name="Trazado 642" d="M171.472,819.015a4.021,4.021,0,1,0-.495,4.448,4.018,4.018,0,0,0,.495-4.448" fill="#009fdd"/>
      <path id="Trazado_643" data-name="Trazado 643" d="M179.808,814.8a1.143,1.143,0,0,0-1.108-.623,1.134,1.134,0,0,0-.43.12,1.14,1.14,0,0,0-.625,1.1,1.14,1.14,0,0,0,.4.78,1.143,1.143,0,0,0,.389.219,1.167,1.167,0,0,0,.443.053,1.142,1.142,0,0,0,1.055-1.225,1.123,1.123,0,0,0-.12-.428" fill="#009fdd"/>
      <path id="Trazado_644" data-name="Trazado 644" d="M212.88,798.09a1.625,1.625,0,1,0-.7,2.2,1.661,1.661,0,0,0,.7-2.2" fill="#009fdd"/>
      <path id="Trazado_645" data-name="Trazado 645" d="M208.628,784.548a3.166,3.166,0,0,0,2.049,4.431,3.168,3.168,0,0,0,2.252-5.886,3.223,3.223,0,0,0-4.3,1.455" fill="#009fdd"/>
      <path id="Trazado_646" data-name="Trazado 646" d="M222.992,791.856a.968.968,0,0,0,.152,1.063.978.978,0,0,0,1.5-.052.97.97,0,0,0-.328-1.46.991.991,0,0,0-1.325.449" fill="#009fdd"/>
      <path id="Trazado_647" data-name="Trazado 647" d="M200.3,780.341a.368.368,0,0,0-.018.267.364.364,0,0,0,.168.207.359.359,0,0,0,.467-.158.336.336,0,0,0,.058-.136.352.352,0,0,0,0-.148.344.344,0,0,0-.065-.133.372.372,0,0,0-.115-.094.35.35,0,0,0-.413.069.35.35,0,0,0-.078.126" fill="#009fdd"/>
      <path id="Trazado_648" data-name="Trazado 648" d="M188.462,774.356a1.449,1.449,0,0,0,1.774,1.994,1.456,1.456,0,0,0,.682-.486,1.444,1.444,0,0,0-.489-2.173,1.477,1.477,0,0,0-1.967.665" fill="#009fdd"/>
      <path id="Trazado_649" data-name="Trazado 649" d="M176.548,768.337a2.646,2.646,0,1,0,3.585-1.214,2.678,2.678,0,0,0-3.585,1.214" fill="#009fdd"/>
      <path id="Trazado_650" data-name="Trazado 650" d="M167.428,763.731a.706.706,0,0,0,.456.993.708.708,0,0,0,.795-1.037.714.714,0,0,0-1.251.044" fill="#009fdd"/>
      <path id="Trazado_651" data-name="Trazado 651" d="M155.465,757.679a1.97,1.97,0,0,0,1.277,2.756,1.977,1.977,0,0,0,2.069-.7,1.967,1.967,0,0,0-.67-2.961,2.013,2.013,0,0,0-2.676.906" fill="#009fdd"/>
      <path id="Trazado_652" data-name="Trazado 652" d="M144.544,752.167a2.029,2.029,0,1,0,2.751-.931,2.051,2.051,0,0,0-2.751.931" fill="#009fdd"/>
      <path id="Trazado_653" data-name="Trazado 653" d="M134.774,747.229a.818.818,0,1,0,1.459.74.843.843,0,0,0,.156-.328.828.828,0,0,0,0-.364.829.829,0,0,0-.436-.56.835.835,0,0,0-.711-.021.842.842,0,0,0-.294.214.83.83,0,0,0-.174.319" fill="#009fdd"/>
      <path id="Trazado_654" data-name="Trazado 654" d="M122.994,740.9a2.012,2.012,0,0,0,1.465,3.088,2.087,2.087,0,1,0-1.465-3.13Z" fill="#009fdd"/>
      <path id="Trazado_655" data-name="Trazado 655" d="M112.165,732.814a3.386,3.386,0,0,0,.367,4.888,3.341,3.341,0,0,0,4.894-.532,3.415,3.415,0,0,0-5.261-4.356" fill="#009fdd"/>
      <path id="Trazado_656" data-name="Trazado 656" d="M105.2,724.642a2,2,0,0,0-.508,2.885,2.1,2.1,0,1,0,.508-2.885" fill="#009fdd"/>
      <path id="Trazado_657" data-name="Trazado 657" d="M100.444,714.882a.833.833,0,0,0-.365.109.832.832,0,0,0-.412.615.829.829,0,0,0,.568.9.839.839,0,0,0,.734-.107.842.842,0,0,0,.365-.109.851.851,0,0,0,.278-.259.834.834,0,0,0,.133-.356.831.831,0,0,0-.242-.7.837.837,0,0,0-1.059-.09" fill="#009fdd"/>
      <path id="Trazado_658" data-name="Trazado 658" d="M98.31,701.747a2.012,2.012,0,0,0-2,2.12,1.992,1.992,0,0,0,2.21,1.92,2.029,2.029,0,0,0,1.807-1.343,2.026,2.026,0,0,0-2.016-2.7" fill="#009fdd"/>
      <path id="Trazado_659" data-name="Trazado 659" d="M98.3,692.2a.566.566,0,1,0-.575-.565.57.57,0,0,0,.575.565" fill="#009fdd"/>
      <path id="Trazado_660" data-name="Trazado 660" d="M98.3,677.472a2.03,2.03,0,0,0-1.843,1.286,2.033,2.033,0,0,0,2.683,2.611,2.032,2.032,0,0,0-.84-3.9" fill="#009fdd"/>
      <path id="Trazado_661" data-name="Trazado 661" d="M98.3,666.265a1.122,1.122,0,0,0-.616.2,1.113,1.113,0,0,0-.461,1.146,1.117,1.117,0,0,0,.882.866,1.132,1.132,0,0,0,.643-.066,1.11,1.11,0,0,0,.35-1.819,1.124,1.124,0,0,0-.8-.323" fill="#009fdd"/>
      <path id="Trazado_662" data-name="Trazado 662" d="M98.3,652.232a3.052,3.052,0,1,0,2.848,1.853,3.066,3.066,0,0,0-2.848-1.853" fill="#009fdd"/>
      <path id="Trazado_663" data-name="Trazado 663" d="M111.79,648.583a1.2,1.2,0,0,0-.55-1.6,1.186,1.186,0,0,0-.451-.131,1.185,1.185,0,0,0-.876.279,1.181,1.181,0,0,0-.29.368,1.217,1.217,0,0,0,2.167,1.089" fill="#009fdd"/>
      <path id="Trazado_664" data-name="Trazado 664" d="M124.345,654.934a2.622,2.622,0,1,0-.639.8,2.646,2.646,0,0,0,.639-.8" fill="#009fdd"/>
      <path id="Trazado_665" data-name="Trazado 665" d="M133.982,659.8a.833.833,0,0,0-.986-1.189.841.841,0,0,0-.4.277.829.829,0,0,0-.069.928.834.834,0,0,0,1.456-.016" fill="#009fdd"/>
      <path id="Trazado_666" data-name="Trazado 666" d="M146.4,666.074a2.092,2.092,0,0,0-.253-2.32,2.1,2.1,0,0,0-3.255.048,2.1,2.1,0,1,0,3.508,2.272" fill="#009fdd"/>
      <path id="Trazado_667" data-name="Trazado 667" d="M156.716,671.287a1.033,1.033,0,0,0-1.725-1.12,1.034,1.034,0,1,0,1.725,1.12" fill="#009fdd"/>
      <path id="Trazado_668" data-name="Trazado 668" d="M168.445,677.214a1.537,1.537,0,0,0-.937-2.19,1.54,1.54,0,1,0,.564,2.657,1.522,1.522,0,0,0,.373-.467" fill="#009fdd"/>
      <path id="Trazado_669" data-name="Trazado 669" d="M178.808,682.46a.506.506,0,0,0-.234-.665.478.478,0,0,0-.185-.055.492.492,0,0,0-.482.262.509.509,0,0,0,.9.458" fill="#009fdd"/>
      <path id="Trazado_670" data-name="Trazado 670" d="M190.979,688.6a1.536,1.536,0,1,0-.89.748,1.526,1.526,0,0,0,.89-.748" fill="#009fdd"/>
      <path id="Trazado_671" data-name="Trazado 671" d="M203.568,694.93a2.99,2.99,0,1,0-1.744,1.469,3,3,0,0,0,1.744-1.469" fill="#009fdd"/>
      <path id="Trazado_672" data-name="Trazado 672" d="M212.513,699.485a.407.407,0,0,0-.184-.532.4.4,0,0,0-.525.175.384.384,0,0,0-.043.147.392.392,0,0,0,.018.152.4.4,0,0,0,.077.133.385.385,0,0,0,.123.092.4.4,0,0,0,.534-.167" fill="#009fdd"/>
      <path id="Trazado_673" data-name="Trazado 673" d="M224.409,705.5a1.093,1.093,0,1,0-.637.535,1.1,1.1,0,0,0,.637-.535" fill="#009fdd"/>
      <path id="Trazado_674" data-name="Trazado 674" d="M268.193,729.131a.4.4,0,0,0-.118-.61.4.4,0,0,0-.573.244.4.4,0,0,0,.691.366" fill="#009fdd"/>
      <path id="Trazado_675" data-name="Trazado 675" d="M277.871,739.589a2.1,2.1,0,1,0-1.533.289,2.1,2.1,0,0,0,1.533-.289" fill="#009fdd"/>
      <path id="Trazado_676" data-name="Trazado 676" d="M282.615,751.186a2.026,2.026,0,0,0,1.492-2.593,2.05,2.05,0,0,0-1-1.286,2.068,2.068,0,0,0-1.622-.161,2.1,2.1,0,1,0,1.126,4.04" fill="#009fdd"/>
      <path id="Trazado_677" data-name="Trazado 677" d="M283.757,762.443a.835.835,0,1,0-.589-.244.833.833,0,0,0,.589.244" fill="#009fdd"/>
      <path id="Trazado_678" data-name="Trazado 678" d="M283.765,777.49a3.284,3.284,0,1,0-3.243-3.284,3.264,3.264,0,0,0,3.243,3.284" fill="#009fdd"/>
      <path id="Trazado_679" data-name="Trazado 679" d="M283.766,812.905a.9.9,0,0,0,.83-.543.892.892,0,0,0-1.563-.842.886.886,0,0,0,.733,1.385" fill="#009fdd"/>
      <path id="Trazado_680" data-name="Trazado 680" d="M283.766,827.2a3.183,3.183,0,1,0-3.143-3.176,3.157,3.157,0,0,0,3.143,3.176" fill="#009fdd"/>
      <path id="Trazado_681" data-name="Trazado 681" d="M154.582,912.258c-.726.366-.834,1.164-1.134,1.846a4.4,4.4,0,0,1-3,1.837c-.759,0-1.442-.565-2.176-.191a2.067,2.067,0,0,0,1.876,3.683c.733-.366.758-1.2,1.133-1.854s2.118-1.937,2.985-1.829,1.45.565,2.184.191a2.059,2.059,0,0,0,.415-3.406,2.073,2.073,0,0,0-.7-.4,2.1,2.1,0,0,0-.8-.1,2.065,2.065,0,0,0-.777.216" fill="#009fdd"/>
      <path id="Trazado_682" data-name="Trazado 682" d="M96.275,884.932a1.93,1.93,0,0,0,.508,1.413,2.63,2.63,0,0,1,.626,1.813,2.92,2.92,0,0,1-1.151,2.328A3.166,3.166,0,0,0,95,892.98a3.335,3.335,0,0,0,6.6,0,3.17,3.17,0,0,0-1.233-2.494,2.921,2.921,0,0,1-1.126-2.3,4.513,4.513,0,0,1,.133-1.455c.392-.632,1.009-.981,1.051-1.713a2.081,2.081,0,0,0-2-2.078,2.012,2.012,0,0,0-2.151,1.995" fill="#009fdd"/>
      <path id="Trazado_683" data-name="Trazado 683" d="M195.089,805.032c-.684.341-.675,1.156-1.075,1.754a3.6,3.6,0,0,1-2.551,1.173c-1.084-.192-1.976-1.006-2.985-.491a2.637,2.637,0,0,0,2.384,4.7c.976-.49.834-1.662,1.393-2.568a3.474,3.474,0,0,1,1.132-.83,3.516,3.516,0,0,1,1.369-.318c.783.108,1.467.641,2.2.266a2.071,2.071,0,0,0-1.867-3.691" fill="#009fdd"/>
      <path id="Trazado_684" data-name="Trazado 684" d="M280.973,786.809a2.8,2.8,0,0,0,1.008,2.162,2.653,2.653,0,0,1,.834,1.746c.075.54.325,1.355,0,1.853-.383.641-1.125,1.031-1.125,1.838a2.084,2.084,0,0,0,4.168,0c0-.832-.775-1.222-1.184-1.879a1.71,1.71,0,0,1-.058-1.006,3.2,3.2,0,0,1,.925-2.494A2.805,2.805,0,1,0,281,786.843Z" fill="#009fdd"/>
      <path id="Trazado_685" data-name="Trazado 685" d="M234.571,710.567a4.265,4.265,0,0,0,5.836,5.62,3.134,3.134,0,0,1,2.851.058,4.167,4.167,0,0,1,1.484,1.43,2.027,2.027,0,0,0,.733.64c.642.316,1.268,0,1.918,0a2.2,2.2,0,0,1,.658.316,3.4,3.4,0,0,1,1.9,2.2,3.6,3.6,0,0,0,2.393,2.652,3.541,3.541,0,0,0,3.609-.889,3.478,3.478,0,0,0-.883-5.545,3.012,3.012,0,0,0-2.893.183,3.473,3.473,0,0,1-4.168-1.322,2.421,2.421,0,0,0-.976-.882c-.833-.423-1.233.308-2.075,0a3.134,3.134,0,0,1-2.376-2.976,4.28,4.28,0,0,0-8.029-1.488Z" fill="#009fdd"/>
    </g>
  </g>
</svg>
