<svg xmlns="http://www.w3.org/2000/svg" width="63.496" height="63.496" viewBox="0 0 63.496 63.496">
  <path id="Trazado_182" data-name="Trazado 182" d="M82.006,48.7a31.231,31.231,0,0,1-46.25,27.08L18.51,81.265l5.63-16.6A30.609,30.609,0,0,1,19.669,48.7a31.169,31.169,0,0,1,62.337,0m-31.179-26a26.132,26.132,0,0,0-26.211,26,25.759,25.759,0,0,0,4.99,15.237l-3.272,9.648L36.4,70.375A26.062,26.062,0,1,0,50.827,22.7M66.561,55.821c-.186-.31-.7-.5-1.471-.891-.765-.372-4.514-2.214-5.217-2.463s-1.221-.372-1.718.373c-.5.765-1.966,2.463-2.422,2.981s-.889.58-1.656.186a21.155,21.155,0,0,1-6.148-3.767,22.177,22.177,0,0,1-4.245-5.258c-.456-.767-.041-1.159.332-1.553.33-.33.765-.889,1.139-1.325a4.363,4.363,0,0,0,.766-1.263,1.412,1.412,0,0,0-.062-1.326c-.186-.372-1.718-4.1-2.36-5.63-.642-1.512-1.263-1.264-1.718-1.264s-.953-.062-1.469-.062a2.859,2.859,0,0,0-2.009.974,8.414,8.414,0,0,0-2.671,6.315c0,3.726,2.733,7.329,3.127,7.846.392.5,5.279,8.406,13.063,11.449,7.765,3.045,7.765,2.03,9.172,1.884,1.409-.124,4.514-1.842,5.155-3.6a6.154,6.154,0,0,0,.415-3.6" transform="translate(-18.51 -17.769)" fill="#009fdd"/>
</svg>
