<?xml version="1.0" encoding="utf-8"?>
<!-- Generator: Adobe Illustrator 22.0.1, SVG Export Plug-In . SVG Version: 6.00 Build 0)  -->
<svg version="1.1" id="Layer_1" xmlns="http://www.w3.org/2000/svg" xmlns:xlink="http://www.w3.org/1999/xlink" x="0px" y="0px"
	 viewBox="0 0 120 60" style="enable-background:new 0 0 120 60;" xml:space="preserve">
<style type="text/css">
	.st0{fill:#AAAAAA;}
	.st1{clip-path:url(#SVGID_2_);}
	.st2{fill:#FFFFFF;}
	.st3{clip-path:url(#SVGID_4_);}
	.st4{clip-path:url(#SVGID_6_);}
	.st5{clip-path:url(#SVGID_8_);}
</style>
<path class="st0" d="M69.4,24.6L69.4,24.6c-4.1,0-7.5,3.3-7.5,7.5c0,4.1,3.3,7.5,7.5,7.5c4.1,0,7.5-3.3,7.5-7.5S73.6,24.6,69.4,24.6
	z M72.6,35.2c-1.8,1.7-4.6,1.7-6.3,0c-1.7-1.7-1.7-4.6,0-6.3c1.7-1.8,4.6-1.8,6.3,0l0,0C74.4,30.6,74.4,33.5,72.6,35.2z"/>
<path class="st0" d="M60.5,36.6l-0.7,0H53l9-9l0-0.7c0-1.2-1-2.2-2.2-2.2l-0.7,0H47.8l0,0.7c0.1,1.2,1,2.1,2.2,2.2l0.7,0h6.7l-9,9
	l0,0.7c0,1.2,1,2.2,2.2,2.2l0.7,0h11.2l0-0.7C62.6,37.5,61.7,36.6,60.5,36.6z"/>
<path class="st0" d="M108.3,24.6c-1.7,0-3.3,0.7-4.5,2c-2-2.2-5.3-2.7-7.8-1c-0.6-0.7-1.9-1-2.6-1v14.9l0.7,0c1.2-0.1,2.2-1,2.2-2.2
	l0-0.7v-5.2l0-0.7c0-0.5,0.1-1,0.4-1.5c0.8-1.4,2.6-1.9,4.1-1.1c0.4,0.3,0.8,0.6,1.1,1.1h0c0.2,0.5,0.4,1,0.4,1.5l0,0.7v5.2l0,0.7
	c0,1.2,1,2.2,2.2,2.2l0.7,0v-8.2l0-0.7c0-0.5,0.1-1,0.4-1.5c0.8-1.4,2.7-1.9,4.1-1.1c0.4,0.3,0.8,0.6,1.1,1.1c0.2,0.5,0.4,1,0.4,1.5
	l0,0.7v5.2l0,0.7c0,1.2,1,2.2,2.2,2.2l0.7,0v-9C114.2,27.2,111.6,24.6,108.3,24.6z"/>
<path class="st0" d="M90.4,26.8c-1.4-1.4-3.3-2.2-5.3-2.2s-3.9,0.8-5.3,2.2c-2.9,2.9-2.9,7.6,0,10.6s7.6,2.9,10.6,0
	C93.3,34.4,93.3,29.7,90.4,26.8L90.4,26.8z M88.3,35.2c-1.8,1.7-4.6,1.7-6.3,0c-1.7-1.7-1.7-4.6,0-6.3c1.7-1.8,4.6-1.8,6.3,0l0,0
	C90,30.6,90,33.5,88.3,35.2z"/>
<g>
	<g>
		<defs>
			<circle id="SVGID_1_" cx="23.5" cy="32" r="19"/>
		</defs>
		<use xlink:href="#SVGID_1_"  style="overflow:visible;fill:#FFFFFF;"/>
		<clipPath id="SVGID_2_">
			<use xlink:href="#SVGID_1_"  style="overflow:visible;"/>
		</clipPath>
		<g class="st1">
			<path class="st2" d="M3.6,12.1h39.9V52H3.6V12.1z"/>
		</g>
	</g>
</g>
<g>
	<g>
		<defs>
			<circle id="SVGID_3_" cx="23.5" cy="32" r="18.7"/>
		</defs>
		<use xlink:href="#SVGID_3_"  style="overflow:visible;fill:#AAAAAA;"/>
		<clipPath id="SVGID_4_">
			<use xlink:href="#SVGID_3_"  style="overflow:visible;"/>
		</clipPath>
		<g class="st3">
			<path class="st0" d="M3.9,12.4h39.2v39.2H3.9V12.4z"/>
		</g>
	</g>
</g>
<g>
	<g>
		<defs>
			<circle id="SVGID_5_" cx="23.5" cy="32" r="17.2"/>
		</defs>
		<use xlink:href="#SVGID_5_"  style="overflow:visible;fill:#AAAAAA;"/>
		<clipPath id="SVGID_6_">
			<use xlink:href="#SVGID_5_"  style="overflow:visible;"/>
		</clipPath>
		<g class="st4">
			<path class="st0" d="M5.4,13.9h36.2v36.2H5.4V13.9z"/>
		</g>
	</g>
</g>
<g>
	<g>
		<defs>
			<path id="SVGID_7_" d="M28.8,29.8l4.9-3.5c0.4-0.3,0.7-0.3,0.7,0.4v10.8c0,0.7-0.4,0.6-0.7,0.4l-4.9-3.5V29.8z M12.3,26.7v8.1
				c0,1.8,1.5,3.3,3.3,3.3h11.8c0.3,0,0.6-0.3,0.6-0.6v-8.1c0-1.8-1.5-3.3-3.3-3.3H12.9C12.6,26.1,12.3,26.3,12.3,26.7z"/>
		</defs>
		<use xlink:href="#SVGID_7_"  style="overflow:visible;fill:#FFFFFF;"/>
		<clipPath id="SVGID_8_">
			<use xlink:href="#SVGID_7_"  style="overflow:visible;"/>
		</clipPath>
		<g class="st5">
			<path class="st2" d="M11.4,25.1h23.9v13.8H11.4V25.1z"/>
		</g>
	</g>
</g>
</svg>
