<?xml version="1.0" encoding="utf-8"?>
<!-- Generator: Adobe Illustrator 22.0.1, SVG Export Plug-In . SVG Version: 6.00 Build 0)  -->
<svg version="1.1" id="Capa_1" xmlns="http://www.w3.org/2000/svg" xmlns:xlink="http://www.w3.org/1999/xlink" x="0px" y="0px"
	 viewBox="0 0 1366 768" style="enable-background:new 0 0 1366 768;" xml:space="preserve">
<style type="text/css">
	.st0{fill:#AAAAAA;}
</style>
<g>
	<path class="st0" d="M676.9,495.3c0,5.2-0.1,10.3,0,15.5c0.1,2.6-0.7,3-3.2,2.4c-10-2.4-20.2-4.5-30.6-4.5c-6.5,0-13,0.3-19.1,2.8
		c-5,2.1-9.2,5.1-9.6,11c-0.4,5.8,3.1,9.6,7.9,12.4c7,4,14.9,5.7,22.5,8.2c11.1,3.6,21.4,8.3,29.8,16.6c23.2,23,18.6,62.9-9.3,81.2
		c-13.5,8.8-28.7,12.2-44.6,12.8c-16.4,0.7-32.6-1.3-48.7-3.9c-2.9-0.5-4.1-1.5-4.1-4.7c0.2-10.8,0.3-21.7,0-32.5
		c-0.1-4.2,1.4-4,4.6-3.2c16,4.2,32.3,6.8,48.9,4.8c4.7-0.6,9.2-1.6,13.3-3.9c9.7-5.4,10.5-16.2,1.7-22.9
		c-4.7-3.6-10.3-5.5-15.8-7.2c-9.7-3.1-19.3-6.2-28.1-11.5c-17.5-10.5-25.9-25.8-24.7-46.2c1.2-20.5,11.1-35.2,29.4-44.3
		c16.1-8,33.4-8.2,50.9-6.7c8.1,0.7,16.2,2.1,24.2,3.7c3.3,0.7,5.2,1.8,4.9,5.8C676.6,485.6,676.9,490.5,676.9,495.3z"/>
	<path class="st0" d="M401.8,524.4c-9.6-4.8-19-7.9-29-8.9c-19.4-1.9-36.8,2.2-48.7,18.9c-10.9,15.4-11.8,32.4-3.7,49.3
		c7.9,16.5,22.1,24.3,40.1,25.4c13.1,0.8,25.6-1.6,37.4-7.2c3.6-1.7,4.1-0.7,4,2.7c-0.1,13-0.1,26,0,39c0,2,0.2,3.8-2.5,4.6
		c-31.6,8.7-62.5,8.8-91.1-9.3c-31.6-20-44.2-50.1-40.6-86.4c4.8-48.1,41.7-80.8,90.2-81.7c13.8-0.3,27.2,1.3,40.5,5.2
		c1.7,0.5,3.6,0.6,3.6,3.3C401.8,494.1,401.8,508.8,401.8,524.4z"/>
	<path class="st0" d="M867.3,524.3c-13.2-6.5-26.1-9.6-39.8-9.2c-26.7,0.8-46.3,20.5-46.4,46.9c-0.1,26.6,19,46.2,45.9,47.2
		c12.9,0.5,25.2-1.9,36.8-7.5c3-1.5,3.6-0.9,3.6,2.3c-0.1,13.3-0.1,26.6,0,40c0,1.8,0.2,3.5-2.3,4.2c-32.1,8.9-63.4,8.7-92.3-9.9
		c-27.6-17.8-40.1-44.1-40-76.5c0.1-50.8,38-89.4,88.9-90.9c14.3-0.4,28.2,1.1,42,5.1c2,0.6,3.8,0.8,3.8,3.7
		C867.2,494.2,867.3,508.9,867.3,524.3z"/>
	<path class="st0" d="M418.8,256.5c0-38.7,0-77.3,0-116c0-9.2,3.9-15.8,11.8-20.5c14.3-8.5,31.8,3.4,32.4,18.3c0,0.5,0,1,0,1.5
		c0,78.1,0,156.3,0,234.4c0,13.1-10.4,22.7-23.2,22.1c-11.9-0.6-20.8-10-20.9-22.4c-0.1-25.8,0-51.6,0-77.5
		C418.8,283.1,418.8,269.8,418.8,256.5z"/>
	<path class="st0" d="M949.4,257.2c0,38.6,0.1,77.3,0,115.9c0,14.2-10.2,24.1-23.6,23.1c-9.6-0.7-17.7-7.5-19.8-17
		c-0.5-2.3-0.7-4.6-0.7-6.9c0-76.9,0-153.9,0-230.8c0-10.3,4-18.1,13.6-22.4c13.3-6,29.2,3.5,30.4,18.2c0.2,2.2,0.1,4.3,0.1,6.5
		C949.4,181.6,949.4,219.4,949.4,257.2z"/>
	<path class="st0" d="M507.7,562.5c0,27.8-0.1,55.7,0.1,83.5c0,3.6-0.8,4.9-4.7,4.9c-12-0.3-24-0.2-36,0c-3.3,0-4.2-1-4.2-4.2
		c0.1-56.2,0.1-112.3,0-168.5c0-3.2,0.7-4.4,4.1-4.3c12,0.2,24,0.2,36,0c3.8-0.1,4.8,1,4.7,4.7C507.7,506.5,507.7,534.5,507.7,562.5
		z"/>
	<path class="st0" d="M540.3,276.5c0-17.6-0.1-35.3,0-52.9c0.1-10.3,5.8-18.4,14.8-21.6c8.7-3.1,18.4-0.4,24.4,6.8
		c3.7,4.4,5.1,9.7,5.1,15.3c0,35.1,0.2,70.2-0.1,105.4c-0.1,13.6-9.8,22.9-22.6,22.7c-12.5-0.2-21.6-9.8-21.7-23.2
		C540.2,311.5,540.2,294,540.3,276.5z"/>
	<path class="st0" d="M1026.8,276.5c0-18.2-0.2-36.3,0.1-54.5c0.1-10.9,8.6-19.9,19.1-21c11.4-1.2,21.6,5.4,24.4,16.2
		c0.5,2.1,0.7,4.3,0.7,6.4c0,35.3,0.1,70.6,0,106c0,10.1-5.6,18.2-14.4,21.3c-8.9,3.2-18.5,0.8-24.6-6.2c-3.9-4.5-5.4-9.8-5.4-15.7
		C1026.8,311.5,1026.8,294,1026.8,276.5C1026.8,276.5,1026.8,276.5,1026.8,276.5z"/>
	<path class="st0" d="M341.2,276.8c0,18.1,0.2,36.3-0.1,54.4c-0.1,10.3-7.8,18.9-17.7,20.7c-10.5,1.9-20.6-3.6-24.7-13.4
		c-1.2-3-1.7-6.1-1.7-9.3c0-35.1,0-70.3,0-105.4c0-13.4,9.6-23.1,22.4-23c12.5,0.1,21.7,9.7,21.8,23
		C341.3,241.5,341.3,259.1,341.2,276.8C341.2,276.8,341.2,276.8,341.2,276.8z"/>
	<path class="st0" d="M783.7,276.2c0-18-0.1-36,0.1-54c0.1-10,6.4-17.9,15.9-20.6c9.2-2.7,19.1,1.1,24.5,9.2
		c2.6,3.9,3.6,8.2,3.6,12.8c0,35.3,0.1,70.6,0,106c-0.1,13.3-9.6,22.7-22.2,22.6c-12.6-0.1-21.7-9.6-21.8-23
		C783.7,311.5,783.7,293.9,783.7,276.2C783.7,276.2,783.7,276.2,783.7,276.2z"/>
	<path class="st0" d="M175.1,306.6c0-7.2,0-14.3,0-21.5c0.1-13.1,9.8-23.3,22.3-23.3c12.8-0.1,22.3,9.6,22.4,23.1
		c0.1,14.7,0.1,29.3,0,44c-0.1,13.5-9.4,23.3-22.1,23.3c-12.8,0-22.5-10.1-22.6-23.6C175,321.3,175.1,314,175.1,306.6z"/>
	<path class="st0" d="M1192.9,307.1c0,7.2,0,14.3,0,21.5c-0.1,13.3-9.5,23.5-21.9,23.6c-13,0.2-22.5-9.4-22.7-23.3
		c-0.1-14.6-0.2-29.3,0-44c0.1-13.6,9.5-23.2,22.3-23.2c12.7,0,22.3,10.2,22.3,23.8C1193,292.8,1192.9,299.9,1192.9,307.1z"/>
	<path class="st0" d="M661.9,306.8c0-7.5-0.1-15,0-22.5c0.2-13.1,9.7-22.6,22.4-22.5c12.4,0.1,21.6,9.6,21.7,22.6
		c0.1,15,0.1,30,0,45c-0.1,13.3-9.4,22.8-22.1,22.8c-12.6,0-21.9-9.6-22-22.9C661.9,321.8,661.9,314.3,661.9,306.8z"/>
	<path class="st0" d="M1091.9,522.3c-16.4-35-46.2-50.4-76.6-51.5c-69.7-0.1-113,54.4-98.3,114.1c9.9,40,45.1,68,87,68.9
		c30.7,0.6,57.4-9.2,76.6-33.7C1104.2,590.1,1107.9,556.6,1091.9,522.3z M1007.4,608.8c-25.9-0.2-46-20.7-45.8-46.8
		c0.2-26.3,20.2-46.3,46.3-46.2c25.9,0.1,46,20.6,45.9,46.7C1053.6,588.5,1033.1,609,1007.4,608.8z"/>
</g>
</svg>
