<?xml version="1.0" encoding="utf-8"?>
<!-- Generator: Adobe Illustrator 22.0.1, SVG Export Plug-In . SVG Version: 6.00 Build 0)  -->
<svg version="1.1" id="Capa_1" xmlns="http://www.w3.org/2000/svg" xmlns:xlink="http://www.w3.org/1999/xlink" x="0px" y="0px"
	 viewBox="0 0 2495.1 646.9" style="enable-background:new 0 0 2495.1 646.9;" xml:space="preserve">
<style type="text/css">
	.st0{fill:#AAAAAA;}
</style>
<path class="st0" d="M587.3,645.3c-27.1-5.6-38-32.3-45.9-57.2C508.8,485.8,377.8,76,376,67.7c-92.4,0-195.4-0.2-287.8-0.2
	c-22.8,0-31.6,7.8-31.6,30.5c0,62,0.1,192,0.1,200.3c72.5,0,171.2,0.5,243.7,0c0,12.5-0.1,38.3-0.1,52.3c-33.3-0.4-238.4,0-243.8,0
	c0.4,63.4,0.2,138.5,0.2,201.9c0,20.5,9.2,30.9,29.9,31c45.3,0.1,251.6,0,304.4,0c0.3,11.3,0,42.3,0,54.4
	c-67.4-0.3-273.6-0.1-303.6-0.1c-50.9,0-87.3-34.6-87.3-73.5c-0.1-0.6,0-312.5,0-477.8C0,46.8,35.4,12.6,81,12.6
	c109.6,0,227.1,1,336.5,0.6c5.9,18.4,172.7,574.5,184.9,574.5c10.7,0,151.9-472.3,155.2-482.9H817c-3.4,10-122.3,384.6-153.4,482.5
	c-12.2,34.4-29.7,53.2-47.9,58.1C606.5,647.7,596.6,647.2,587.3,645.3L587.3,645.3z M1100.7,645.3c-13-1.8-25-5.4-37.5-8.6
	c-68-17.6-123.9-53.5-165.2-110.5c-25.8-35.6-38.2-77-44.7-119.9c-9.4-61.6-8-123,3.4-184.4C879,101.8,973.2,29.6,1073.5,8.3
	c13.3-2.8,26.7-5.7,40.2-6.8c20.2-1.7,40.7-2.2,60.9,0c18.2,2,36.2,5.1,53.9,10.3c112.9,33.3,185,104.7,204.5,223
	c12.9,77.7,12,155.3-15.5,230.2c-30.5,83.2-92.6,134.5-173.7,164.8c-19.3,7.2-39.6,13.4-60.3,15.3
	C1181.8,645.2,1113.5,647,1100.7,645.3z M906.5,322.3c-0.5,29.4,1.7,58.6,7.2,87.5c9.1,48,28.5,90.2,66.9,122.1
	c69.3,57.5,148.9,71.9,233.6,48.9c82.9-22.4,139.3-75,157.6-162.1c12.9-61.3,12.8-122.9,1.9-184.5c-9-51-31.3-94.6-73.4-126.5
	c-78.9-59.8-165.6-67.4-255.8-33.3C984,97.4,940.1,140,921.1,204.3C909.8,242.8,905.9,282.3,906.5,322.3L906.5,322.3z M1578.6,288.3
	c24.4-23.5,188.5-181,192-184.4h82.5c-60.2,58.1-122.7,118.4-183.4,176.8c30.7,19.5,47.5,50.6,67.8,77.8
	c66.1,88.5,200.7,273.9,203.6,277.9c-3.3,0-54.9,0.1-70.8,0.1c-3.6-4.6-141.7-200.8-214.7-293.2c-14.6-18.4-30.3-19.9-40.6-9.5
	c-9.8,9.1-19.5,17.6-29.3,27.5c-5.5,4.8-6.7,9.5-6.7,16.5c0.2,81.9,0.1,252.1,0.1,258.6h-58.6c0-8.7,0.3-424.9,0-624.2
	c5.9,0,54.5-0.1,58.7-0.1C1579.3,94.9,1578.6,280.7,1578.6,288.3L1578.6,288.3z M2154.7,645.3c-13-1.8-25-5.4-37.5-8.6
	c-68-17.6-123.9-53.5-165.2-110.5c-25.8-35.6-38.2-77-44.7-119.9c-9.4-61.6-8-123,3.4-184.4c22.3-120,116.5-192.3,216.8-213.6
	c13.3-2.8,26.7-5.7,40.2-6.8c20.2-1.7,40.7-2.2,60.9,0c18.2,2,36.2,5.1,53.9,10.3c112.9,33.3,185,104.7,204.5,223
	c12.9,77.7,12,155.3-15.5,230.2c-30.5,83.2-92.6,134.5-173.7,164.8c-19.4,7.2-39.6,13.4-60.3,15.3
	C2235.8,645.2,2167.4,647,2154.7,645.3L2154.7,645.3z M1960.5,322.3c-0.5,29.4,1.7,58.6,7.1,87.5c9.1,48,28.5,90.2,67,122.1
	c69.3,57.5,148.8,71.9,233.6,48.9c82.9-22.4,139.3-75,157.6-162.1c12.9-61.3,12.8-122.9,1.9-184.5c-9-51-31.3-94.6-73.4-126.5
	c-78.9-59.8-165.6-67.4-255.8-33.3c-60.6,22.9-104.4,65.6-123.5,129.8C1963.7,242.8,1959.8,282.3,1960.5,322.3z"/>
</svg>
