<?xml version="1.0" encoding="utf-8"?>
<!-- Generator: Adobe Illustrator 22.0.1, SVG Export Plug-In . SVG Version: 6.00 Build 0)  -->
<svg version="1.1" id="Capa_1" xmlns="http://www.w3.org/2000/svg" xmlns:xlink="http://www.w3.org/1999/xlink" x="0px" y="0px"
	 viewBox="0 0 1366 768" style="enable-background:new 0 0 1366 768;" xml:space="preserve">
<style type="text/css">
	.st0{fill:#AAAAAA;}
</style>
<g>
	<path class="st0" d="M423,331.7c25.6,0,50.5,0,76.4,0c-8.5,3.1-13.1,8.6-15.6,16.2c-1.1,3.2-1.1,6.5-1.1,9.7
		c0,51.3,0,102.5,0,153.8c0,20.5-6,38.9-20.5,53.9c-12.3,12.8-27.5,20.3-44.6,23.9c-26.2,5.5-51.9,3.8-75.9-8.7
		c-26.7-13.9-41-36.3-41.2-66.5c-0.4-52.3-0.1-104.5-0.1-156.8c0-3.6-0.3-7.2-1.6-10.6c-2.6-6.9-7-12.2-14.9-14.9
		c25.7,0,50.7,0,75.8,0c-11.3,4.8-15.8,13.7-15.8,25.6c0,52.9,0,105.7,0,158.6c0,22.8,14,42.3,34.7,48.5
		c21.4,6.4,44.4-3.9,55.3-24.8c3.8-7.3,5.7-15,5.6-23.3c0-53.5,0-106.9,0-160.4C439.4,344.8,434.3,336.5,423,331.7z"/>
	<path class="st0" d="M1034.4,331.8c25.7,0,50.5,0,75.3,0c-7.3,3.2-11.8,8.8-14.2,16.3c-0.8,2.4-1.1,4.8-1.1,7.4
		c0,54.2-0.1,108.3,0,162.5c0.1,24.4,18.5,45.6,42.6,48.2c19.4,2.1,34.2-6.3,44.9-22.3c5.5-8.1,8.1-17.3,8.1-27.1
		c0.1-53.6,0.1-107.1,0-160.7c0-11.2-5.1-19.6-16.1-24.2c25.3,0,50.4,0,75.6,0c-11.9,5.1-16.1,14.5-16.1,26.7
		c0.1,51,0,101.9,0.1,152.9c0,22.2-7,41.5-23.4,56.8c-12.6,11.8-27.8,18.5-44.5,21.6c-23.9,4.5-47.3,2.8-69.6-7.5
		c-25.2-11.7-40.5-31.3-44.4-59.1c-1.3-9.8-0.7-19.7-0.7-29.6c0-43.4,0.1-86.8,0.2-130.1c0-4.4,0.5-8.8-0.5-13.1
		C1048.6,341.7,1043.9,335.2,1034.4,331.8z"/>
	<path class="st0" d="M1011.3,372.8c-13-18.2-31.2-21-50.9-19.8c-8.9,0.5-17.6,2.3-25.4,7c-10.6,6.4-16.1,16.1-17.7,28.3
		c-2.1,16.4,5.1,28.1,18.6,36.1c12.6,7.5,25.6,14.1,38.5,21.2c10.7,5.9,21.8,11.2,31.4,18.9c13.6,10.9,24.1,24.1,27,41.7
		c4,23.5-3.2,43.8-20.1,60.4c-12.6,12.4-28.3,18.8-45.3,22c-24.6,4.7-49.3,4.6-74,0c-5.3-1-8-3.2-9.5-8.7
		c-3.3-12.4-7.5-24.5-11.3-36.8c-0.2-0.6-0.8-1.2-0.3-1.9c0.2,0,0.5,0,0.6,0.1c10.4,12.4,24.7,17.7,39.8,21.5c7.8,2,15.7,4,23.9,3.4
		c14.4-1,28.2-4.3,39.7-13.8c9.3-7.7,14.8-17.5,15.3-29.6c0.5-11.2-5.6-19.2-14-25.7c-2.5-2-5.3-3.5-8.1-5
		c-17.5-9.6-35-18.9-52.4-28.8c-15.2-8.7-28.3-19.9-36.4-35.7c-11.7-22.9-8.4-45.1,4.5-66.2c10.7-17.5,27.4-26.7,46.9-31.4
		c15.3-3.7,30.8-4.1,46.3-2.7c8,0.7,16.1,1.4,24,3.2c9,2.1,9,2.1,9,11C1011.3,351.7,1011.3,361.9,1011.3,372.8z"/>
	<path class="st0" d="M193.6,585.3c-25.9,0-51.2,0-76.8,0c11.7-4.5,16.6-13.3,16.6-25.1c0-67.8,0-135.6,0-203.5
		c0-5.3-1.1-10.3-3.9-14.8c-2.8-4.7-6.6-8.1-12.8-10c1.4-0.1,2-0.2,2.5-0.2c51.4,0,102.7,0,154.1,0c2,0,2.8,0.4,2.7,2.6
		c-0.1,12.2-0.1,24.3-0.1,36.5c0,0.6-0.1,1.2-0.1,1.8c-1.1-0.1-0.8-1.1-1-1.6c-3.6-8.3-10.1-12.9-18.9-13.4
		c-8.3-0.5-16.5-0.2-24.8-0.2c-17.2,0-34.3,0-51.5,0c-2.1,0-2.9,0.4-2.9,2.7c0.1,24.3,0.1,48.7,0,73c0,2.6,1,2.8,3.1,2.8
		c24.5-0.1,49.1,0,73.6-0.1c2.4,0,3.2,0.4,3.2,3c-0.2,12.7-0.1,25.5-0.1,39.1c-3-9.1-8.9-14.1-17.3-15.9c-1.7-0.4-3.6-0.4-5.3-0.4
		c-18.1,0-36.1,0-54.2-0.1c-2.4,0-3,0.6-2.9,3c0.1,31.9,0,63.8,0.1,95.7C176.9,572,181.8,580.6,193.6,585.3z"/>
	<path class="st0" d="M689.3,374.2c4-13.7,8-27.3,12-41c0.3-1.2,0.9-1.7,2.1-1.6c0.5,0,1,0,1.5,0c55.6,0,111.3,0,166.9,0
		c3.4,0,3.4,0,2.4,3.4c-3.8,12.8-7.5,25.6-11.3,38.4c-0.2,0.8-0.5,1.7-1,3c-0.3-1.2-0.5-1.8-0.7-2.4c-2.2-10.2-9.8-16.5-20.1-16.6
		c-11.6-0.1-23.1,0-34.7-0.1c-2.6,0-2.3,1.3-2.3,3c0,38.4,0,76.8,0,115.2c0,28.4,0,56.8,0,85.3c0,8.4,3,15.3,9.4,20.8
		c2,1.7,4.4,2.6,7.3,3.8c-25.9,0-51.2,0-76.8,0c1.6-0.7,3-1.2,4.2-1.9c7.4-4.3,11.1-10.9,12.1-19.2c0.2-1.5,0.1-3,0.1-4.5
		c0-66.2,0-132.4,0.1-198.7c0-3.3-1-3.8-4-3.8c-12,0.2-23.9,0.3-35.9,0c-12.5-0.3-21.7,5.4-29.1,14.9c-0.7,0.9-1.3,1.8-1.9,2.7
		C689.4,375,689.1,374.8,689.3,374.2z"/>
	<path class="st0" d="M496.2,684.3c18.6-14.4,28.6-33.8,33.4-56.3c1.4-6.8,1.9-13.6,1.9-20.5c-0.1-83.4,0-166.7,0-250.1
		c0-3,0-6-0.9-8.9c-2.5-7.8-7-13.7-15.8-16.7c25.9,0,50.9,0,76.4,0c-8.9,3.3-13.6,9.6-15.7,18.1c-0.9,3.6-0.7,7.3-0.7,11
		c0.1,57.4,0.2,114.9,0.3,172.3c0,21.4,0,42.9,0,64.3c0,22-6.3,41.6-21.7,57.8c-13.8,14.5-31,23.1-50.1,28.2
		c-1.9,0.5-3.9,0.9-5.8,1.3C496.8,685,496.1,685.5,496.2,684.3z"/>
	<path class="st0" d="M592.4,264.6c0,9,0,17.9,0,26.9c0,1.2-0.4,2.1-1.2,2.9c-16.1,17-35.6,23.4-58.1,17.2
		c-22.5-6.2-36.6-21.4-41.1-44.4c-6.4-32.8,15.8-63.2,48.9-67.4c19.1-2.4,35.7,3.5,48.9,17.7c7.5,8,14.4,16.5,22,24.5
		c14.1,14.7,31.3,19.6,50.8,13.9c19.5-5.7,31.6-19.1,35.2-39.1c5.9-33.1-21-62.1-54.5-58.9c-18.5,1.7-32,11.7-41.9,27
		c-3.5,5.4-6.1,11.3-8.9,17.1c0-11.5,0-23.1,0-34.6c0-1.1,0.7-1.8,1.3-2.6c15.9-19,35.8-29.1,61-27.4c31.3,2.2,58.6,27.4,63.5,58.5
		c6,38.3-17.1,72.9-54.8,81c-25.9,5.5-48.5-1.8-66.9-21.1c-7.4-7.7-14.2-15.9-21.4-23.8c-10.4-11.6-26.5-15.3-40.9-9.4
		c-14.1,5.7-23.1,19.8-22.7,35.1c0.5,18.9,16.3,37.9,42,35.5c16.3-1.5,27.5-11.1,36-24.4c0.9-1.4,1.7-2.9,2.6-4.3
		C592,264.5,592.2,264.5,592.4,264.6z"/>
	<path class="st0" d="M607.2,331.8c25.6,0,50.5,0,75.9,0c-11.5,5-16,13.9-16,25.7c0.1,67.4,0.1,134.8,0,202.2
		c0,6.6,1.5,12.6,5.6,17.9c2.7,3.5,6.1,5.8,10.2,7.6c-25.2,0-50.5,0-75.9,0c9.5-3.3,14.6-10.3,16.3-19.8c0.3-1.6,0.3-3.2,0.3-4.8
		c0-68.1,0-136.2,0-204.3C623.5,344.9,617.9,336.2,607.2,331.8z"/>
	<path class="st0" d="M689.3,374.2c0.2,0.2,0.4,0.4,0.6,0.6c-0.2,0.7-0.4,1.4-1.4,1.7C688.7,375.6,688.7,374.8,689.3,374.2z"/>
	<path class="st0" d="M496.2,684.3c0.4,0.2,0.8,0.4,1.2,0.6c-0.6,0.5-1.5,0.9-2.1,0.3C495,684.9,495.7,684.5,496.2,684.3z"/>
</g>
</svg>
