<?xml version="1.0" encoding="utf-8"?>
<!-- Generator: Adobe Illustrator 22.0.1, SVG Export Plug-In . SVG Version: 6.00 Build 0)  -->
<svg version="1.1" id="layer" xmlns="http://www.w3.org/2000/svg" xmlns:xlink="http://www.w3.org/1999/xlink" x="0px" y="0px"
	 viewBox="0 0 652 214" style="enable-background:new 0 0 652 214;" xml:space="preserve">
<style type="text/css">
	.st0{fill:#AAAAAA;}
</style>
<path id="Path_1407" class="st0" d="M111.3,160.1l-16.5,16.5c-2.6,2.6-6.8,2.6-9.4,0L44.9,136v-0.1l0,0L66,114.8h0.1l0,0l45.2,45.2
	V160.1L111.3,160.1z M91.5,89.3l-21.1,21.1v0.1l0,0l45.2,45.2h0.1l0,0l21.1-21.2v-0.1l0,0L91.6,89.2C91.6,89.2,91.5,89.2,91.5,89.3
	L91.5,89.3z M117,63.7L95.9,84.8v0.1l0,0l45.2,45.2h0.1l0,0l16.5-16.5c2.6-2.6,2.6-6.8,0-9.4l-40.5-40.5
	C117.2,63.7,117.1,63.7,117,63.7L117,63.7L117,63.7z M22.5,113.7l17.9,17.9h0.1l0,0l21.1-21.1v-0.1l0,0L39.1,87.9H39l0,0l-16.5,16.5
	C19.9,106.9,19.9,111.1,22.5,113.7L22.5,113.7z M64.5,62.3L43.4,83.4v0.1l0,0L65.9,106H66l0,0l21.1-21.1v-0.1l0,0L64.5,62.3
	C64.6,62.2,64.5,62.2,64.5,62.3L64.5,62.3L64.5,62.3z M85.4,41.4L68.9,57.9V58l0,0l22.5,22.5h0.1l0,0l21.1-21.2v-0.1l0,0L94.7,41.3
	C92.2,38.8,88,38.8,85.4,41.4L85.4,41.4z"/>
<path class="st0" d="M318,107.7v3.8c-0.5,3.9,2.3,7.5,6.2,8c0.4,0,0.7,0.1,1.1,0.1h1.4c2.6-0.1,5.2-0.6,7.7-1.4h0.4v7.2
	c-2.6,1-5.3,1.5-8,1.6h-2.1c-10.8,0-16.4-5.6-16.4-15.3v-3.5 M318,111.8V108c-0.5-3.9,2.3-7.5,6.2-8c0.4,0,0.7-0.1,1.1-0.1h1.4
	c2.6,0.1,5.2,0.6,7.7,1.4h0.4v-7.2c-2.6-1-5.3-1.5-8-1.6h-2.1c-10.8,0-16.4,5.6-16.4,15.3v3.5 M255.4,100.2h-9.1v-7.4h28v7.4h-9.1
	v26.3h-9.8L255.4,100.2z M279.3,117.4V92.9h23.8v7.4h-14v5.6h12.3v7.4h-12.3v2.5c0,2.8,0.7,3.5,3.5,3.5h10.9v7.4h-15.8
	C282.1,126.5,279.3,123,279.3,117.4z M341,92.9h9.8v12.2h10.5V92.9h9.8v33.6h-9.8v-13.3h-10.5v13.3H341V92.9z M378.1,92.9h8.4
	l11.9,17.5V92.9h9.8v33.6h-8.4L387.9,109v17.5h-9.8V92.9z M414.1,110.7v-2.1c0-10.4,5.4-16.1,15.8-16.1c10.3,0,15.7,5.8,15.7,16.1
	v2.1c0,10.4-5.4,16.1-15.7,16.1C419.6,126.9,414.1,121.1,414.1,110.7z M435.9,110.7v-2.1c0-5.1-0.9-8.4-6-8.4s-6,3.3-6,8.4v2.1
	c0,5.1,0.9,8.4,6,8.4C435,119.2,435.9,115.8,435.9,110.7L435.9,110.7z M451.4,117.4V92.9h9.8v22.8c0,2.8,0.7,3.5,3.5,3.5h8v7.4h-13
	C454.2,126.5,451.4,123,451.4,117.4z M476.5,110.7v-2.1c0-10.4,5.4-16.1,15.8-16.1c10.3,0,15.7,5.8,15.7,16.1v2.1
	c0,10.4-5.4,16.1-15.7,16.1C481.9,126.9,476.5,121.1,476.5,110.7z M498.2,110.7v-2.1c0-5.1-0.9-8.4-6-8.4s-6,3.3-6,8.4v2.1
	c0,5.1,0.9,8.4,6,8.4C497.3,119.2,498.2,115.8,498.2,110.7L498.2,110.7z M512.8,111.5V108c0-10.9,8.4-15.4,18.3-15.4
	c3.6,0,7.1,0.6,10.5,1.7v7.4h-0.4c-3.3-1.1-6.7-1.7-10.1-1.7c-4.3-0.4-8.1,2.8-8.4,7.1c0,0.3,0,0.6,0,1v3.5c-0.5,4,2.3,7.5,6.3,8
	c0.4,0,0.7,0.1,1.1,0h1.4c0.8,0,1.7-0.1,2.5-0.4v-4.8h-4.2v-7.5h12.6V125c-3.5,1.2-7.2,1.8-10.9,1.9h-1.7
	C518.8,126.9,512.8,120.9,512.8,111.5z M549.1,92.9h9.8v33.6h-9.8V92.9z M565.7,117.4V92.9h23.8v7.4h-14v5.6h12.3v7.4h-12.3v2.5
	c0,2.8,0.7,3.5,3.5,3.5h10.9v7.4h-15.8C568.5,126.5,565.7,123,565.7,117.4z M595.6,125.5v-7.4h0.4c3,0.8,6,1.3,9.1,1.4h1
	c2.5,0,4.6-0.5,4.6-3c0-1.9-1.7-2.4-3.5-3l-4.6-1.4c-4.4-1.2-7.4-5.4-7-10c0-7,6.6-9.6,13.7-9.6h0.7c3,0,6,0.5,8.9,1.3v7.2h-0.3
	c-2.7-0.6-5.5-1-8.3-1.1h-0.9c-1.9,0-4,0.4-4,2.3c0,1.7,1.4,2.5,2.8,2.8l4.6,1.2c4.9,0.9,8.2,5.4,7.7,10.3c0,7.4-6.3,10.4-13.7,10.4
	H605C601.9,126.8,598.7,126.3,595.6,125.5z M199,119.2h8.8c2.5,0,4.9-0.5,4.9-3.2s-1.9-3.2-4.5-3.2h-5.6v-6.3h5.7
	c3.2,0,4.5-1.3,4.5-3.4c0-2.2-2.6-2.9-4.7-2.9h-8.6v-7.4h11.2c6.5,0,11.2,1.6,11.2,8.1c-0.2,3.1-2,5.8-4.7,7.2
	c3.4,1,5.7,4.3,5.4,7.9c0,6.7-5.1,10.5-11.9,10.5H199V119.2z M228.8,106h15.5v7.7h-15.5V106z M185.1,112.9h-4.3v-6.2h13.9v20.2h-9.5
	L185.1,112.9L185.1,112.9z M185,92.8h9.5v7.5H185V92.8z"/>
</svg>
