<?xml version="1.0" encoding="utf-8"?>
<!-- Generator: Adobe Illustrator 22.0.1, SVG Export Plug-In . SVG Version: 6.00 Build 0)  -->
<svg version="1.1" id="Capa_1" xmlns="http://www.w3.org/2000/svg" xmlns:xlink="http://www.w3.org/1999/xlink" x="0px" y="0px"
	 viewBox="0 0 1366 768" style="enable-background:new 0 0 1366 768;" xml:space="preserve">
<style type="text/css">
	.st0{fill:#AAAAAA;}
</style>
<g>
	<path class="st0" d="M1043.1,359.1c-1.3,3.3-2.8,6.6-3.9,10c-0.7,2.3-2,3-4.3,3c-49.3-0.1-98.7-0.1-148,0c-2.7,0-3.8-1.1-4.5-3.4
		c-1-3.3-2.2-6.4-3.6-10.3c-0.4,1.2-0.5,1.4-0.6,1.7c-0.1,3.8,1.2,8.8-0.7,11.1c-2.3,2.7-7.5,0.9-11.4,0.9
		c-22.3,0.1-44.7-0.1-67,0.2c-4.3,0-5.3-1.2-5.1-5.3c0.4-6,0.3-12,0-18c-0.1-3.4,1-4.2,4.2-4.1c15,0.2,30,0.1,45,0.1
		c35,0,70,0.1,105-0.1c3.8,0,5.6,1.1,6.7,4.7c1.8,5.9,4.1,11.5,6.6,18.3c2.6-7.1,5-13.3,7.1-19.5c0.9-2.7,2.2-3.5,5-3.5
		c50.2,0.1,100.3,0.1,150.5,0c3.4,0,4.2,1,4.1,4.2c-0.2,6.5-0.1,13,0,19.5c0,2.3-0.2,3.6-3.1,3.6c-26-0.1-52-0.1-78,0
		c-2.4,0-3.2-0.8-3.1-3.1c0.2-3.2,0-6.5,0-9.7C1043.6,359.2,1043.3,359.1,1043.1,359.1z"/>
	<path class="st0" d="M561.6,504.3c49.6,0,99.3,0.1,148.9-0.1c4.4,0,5.6,1.1,4.4,5.2c-1.8,6.4-3.3,12.9-6.4,18.8
		c-1.4,2.7-3.2,3.7-6.3,3.7c-97.1-0.1-194.2-0.1-291.4,0c-3.8,0-4.8-1.1-4.7-4.8c0.3-6.1,0.3-12.3,0-18.5c-0.2-3.6,1.1-4.5,4.5-4.5
		c17.8,0.1,35.7,0.1,53.5,0.1C496.6,504.3,529.1,504.3,561.6,504.3z"/>
	<path class="st0" d="M560.4,265.7c-49.6,0-99.3-0.1-148.9,0.1c-4.5,0-5.8-1.2-5.5-5.6c0.4-6,0.3-12,0-18c-0.1-3.4,1.1-4.2,4.3-4.1
		c10.8,0.2,21.7,0.1,32.5,0.1c85.9,0,171.9,0,257.8-0.1c4.6,0,7,1.6,8.7,5.6c2.4,5.7,4,11.6,5.6,17.6c0.9,3.3,0.3,4.6-3.6,4.6
		c-17.5-0.2-35-0.1-52.5-0.1C626.1,265.7,593.3,265.7,560.4,265.7z"/>
	<path class="st0" d="M682.1,212.3c-1.6,0-3.3,0-4.9,0c-88.3,0-176.6,0-264.9,0.1c-5,0-6.7-1.2-6.3-6.3c0.5-6,0.2-12,0.1-18
		c0-2.3,0.7-3.4,3.1-3.2c0.8,0.1,1.7,0,2.5,0c68.3,0,136.6,0,204.9,0C642,185,663.2,195.4,682.1,212.3z"/>
	<path class="st0" d="M682.6,558.5c-14,12-29.5,20.5-47.4,24.5c-6.5,1.5-13.1,2-19.8,2c-68,0-135.9-0.1-203.9,0.1
		c-4.4,0-5.8-1-5.5-5.5c0.4-6.1,0.2-12.3,0.1-18.5c-0.1-2.6,0.9-3.7,3.5-3.4c0.8,0.1,1.7,0,2.5,0c88.4,0,176.9,0,265.3,0
		C679,557.7,680.7,557.2,682.6,558.5z"/>
	<path class="st0" d="M701.1,425.2c-2.5,0-4.2,0-5.8,0c-75.8,0-151.6-0.1-227.4,0.1c-5,0-6.3-1.4-5.9-6.1c0.4-4.6,0.1-9.3,0.1-14
		c0-7.2,0-7.2,7-7.2c23.8,0,47.6,0,71.5,0c44.1,0,88.3,0,132.4-0.1c3.2,0,5.7,0.8,8.1,3C688.6,407.9,696.1,414.9,701.1,425.2z"/>
	<path class="st0" d="M701.3,344.8c-6,11.1-14,19-22.7,26.3c-1.3,1.1-2.8,0.9-4.3,0.9c-69.3,0-138.6,0-207.9,0.1
		c-3.6,0-4.5-1.1-4.4-4.5c0.3-6.2,0.3-12.3,0-18.5c-0.2-3.6,1.1-4.6,4.5-4.4c3.6,0.3,7.3,0.1,11,0.1c72.3,0,144.6,0,216.9,0
		C696.4,344.8,698.4,344.8,701.3,344.8z"/>
	<path class="st0" d="M281.5,238.1c30.6,0,61.3,0.1,91.9-0.1c4.5,0,5.7,1.2,5.4,5.6c-0.4,5.8-0.3,11.7,0,17.5
		c0.2,3.8-1.1,4.7-4.8,4.7c-25.5-0.1-50.9-0.1-76.4-0.1c-36.1,0-72.3-0.1-108.4,0.1c-4,0-5.6-0.8-5.3-5.1c0.4-6,0.3-12,0-18
		c-0.2-3.8,1-4.7,4.7-4.7C219.6,238.2,250.6,238.1,281.5,238.1z"/>
	<path class="st0" d="M283,504.3c30.7,0,61.3,0.1,92-0.1c4.2,0,5.5,1.1,5.2,5.2c-0.3,6-0.3,12,0,18c0.1,3.4-0.8,4.6-4.4,4.5
		c-11.5-0.2-23-0.1-34.5-0.1c-50.2,0-100.3,0-150.5,0.1c-4.1,0-5.6-1-5.3-5.2c0.4-5.8,0.3-11.7,0-17.5c-0.2-3.9,1-5.1,5-5.1
		C221.3,504.4,252.2,504.3,283,504.3z"/>
	<path class="st0" d="M281.6,212.3c-31,0-62-0.1-92.9,0.1c-3.7,0-4.9-0.8-4.7-4.7c0.3-6.1,0.3-12.3,0-18.5c-0.2-3.6,1.1-4.3,4.5-4.3
		c39,0.1,77.9,0.1,116.9,0.1c22.8,0,45.6,0.1,68.4-0.1c3.7,0,5.4,0.6,5.1,4.8c-0.4,6-0.3,12,0,18c0.2,3.9-1.2,4.7-4.8,4.7
		C343.2,212.2,312.4,212.3,281.6,212.3z"/>
	<path class="st0" d="M282.4,585c-30.6,0-61.3-0.1-91.9,0.1c-3.9,0-5.2-0.9-5-4.9c0.4-5.5,0.4-11,0-16.5c-0.4-4.7,0.9-6.1,5.9-6.1
		c47.5,0.2,94.9,0.1,142.4,0.1c14,0,28,0.1,42-0.1c3.6-0.1,4.6,1,4.4,4.5c-0.3,5.8-0.4,11.7,0,17.5c0.3,4.3-0.8,5.6-5.3,5.5
		C344,584.9,313.2,585,282.4,585z"/>
	<path class="st0" d="M830.9,265.7c-29.3,0-58.7-0.1-88,0.1c-3.8,0-5.3-0.8-5-4.9c0.4-5.6,0.4-11.3,0-17c-0.3-4.4,0.8-5.9,5.6-5.8
		c43.5,0.2,87,0.1,130.5,0.1c12.3,0,24.7,0.1,37-0.1c3,0,4.4,0.8,5.3,3.8c2,6.7,4.2,13.3,6.8,19.8c1.4,3.7,0.1,4.1-3.1,4.1
		C890.2,265.7,860.6,265.7,830.9,265.7z"/>
	<path class="st0" d="M1089.3,265.7c-29.2,0-58.3-0.1-87.5,0.1c-4,0-4.9-0.8-3.4-4.6c2.5-6.4,4.5-12.9,6.6-19.4
		c0.8-2.5,1.8-3.7,4.8-3.7c56.2,0.1,112.3,0.1,168.5,0c3.4,0,4.3,1.2,4.2,4.3c-0.2,6-0.4,12,0,18c0.4,4.7-1.6,5.4-5.7,5.4
		C1147.6,265.6,1118.4,265.7,1089.3,265.7z"/>
	<path class="st0" d="M822,212.3c-26.5,0-53-0.1-79.4,0.1c-3.8,0-4.9-0.9-4.7-4.7c0.3-6.3,0.2-12.7,0-19c-0.1-2.6,0.5-3.8,3.5-3.8
		c50.5,0.1,100.9,0.1,151.4,0c2.5,0,3.5,1,4.2,3.1c2.3,6.8,4.7,13.5,7.3,20.1c1.4,3.4,0.7,4.2-2.9,4.2
		C875,212.2,848.5,212.3,822,212.3z"/>
	<path class="st0" d="M1099,212.3c-25.6,0-51.3,0-76.9,0c-5.9,0-5.9,0-3.8-5.7c2.2-6.1,4.6-12.1,6.6-18.3c0.8-2.4,1.8-3.4,4.5-3.4
		c49.8,0.1,99.5,0.1,149.3,0c3.3,0,3.8,1.3,3.7,4.1c-0.2,6.3-0.3,12.7,0,19c0.2,3.7-1.3,4.4-4.6,4.4
		C1151.6,212.2,1125.3,212.3,1099,212.3z"/>
	<path class="st0" d="M977.9,318.9c3.2-8.8,6.3-17.2,9.3-25.7c0.8-2.1,2.5-1.9,4.1-1.9c6.5,0,13,0,19.5,0c37.2,0,74.3,0.1,111.5-0.1
		c5,0,6.2,1.4,5.9,6.1c-0.4,5.8-0.3,11.7,0,17.5c0.2,3.3-1,4.2-4.2,4.1c-7.8-0.2-15.7-0.1-23.5-0.1c-38.8,0-77.6,0-116.5,0
		C982.1,318.9,980.3,318.9,977.9,318.9z"/>
	<path class="st0" d="M868.5,318.9c-23.3,0-46.6-0.1-70,0.1c-3.8,0-4.9-1-4.7-4.7c0.3-6,0.3-12,0-18c-0.2-3.9,0.9-5.1,4.9-5
		c27.5,0.2,55,0.1,82.5,0.1c16,0,32,0.1,48-0.1c3.2,0,4.7,1,5.7,4c2.1,6.3,4.3,12.6,6.8,18.7c1.6,3.8,1.2,5-3.3,5
		C915.2,318.8,891.8,318.9,868.5,318.9z"/>
	<path class="st0" d="M1114,504.3c21.5,0,43,0.2,64.5-0.1c4.8-0.1,5.9,1.5,5.6,5.9c-0.4,6.1-0.2,12.3,0,18.5
		c0.1,2.6-0.8,3.4-3.4,3.4c-44.5-0.1-89-0.1-133.5,0c-2.7,0-3.4-1-3.4-3.5c0.1-6.7,0.3-13.3,0-20c-0.2-3.9,1.6-4.2,4.7-4.2
		C1070.3,504.4,1092.2,504.3,1114,504.3z"/>
	<path class="st0" d="M808.8,531.9c-21.5,0-43-0.1-64.5,0.1c-3.8,0-4.9-1-4.7-4.8c0.3-6.2,0.3-12.3,0-18.5c-0.2-3.6,1.1-4.5,4.5-4.5
		c24,0.1,48,0.1,72,0.1c19,0,38,0.1,57-0.1c4.3-0.1,5.4,1.3,5.2,5.3c-0.3,6-0.3,12,0,18c0.2,3.5-1,4.5-4.5,4.4
		C852.1,531.8,830.4,531.9,808.8,531.9z"/>
	<path class="st0" d="M1113.7,585c-21.8,0-43.6-0.1-65.4,0.1c-3.4,0-4.7-0.7-4.5-4.3c0.3-6.5,0.2-13,0-19.5c-0.1-2.9,1-3.6,3.7-3.6
		c44.3,0.1,88.6,0.1,132.8,0c2.8,0,3.8,0.7,3.7,3.6c-0.2,6.5-0.3,13,0,19.5c0.2,3.6-1.1,4.4-4.5,4.3
		C1157.6,584.9,1135.7,585,1113.7,585z"/>
	<path class="st0" d="M809,585c-21.6,0-43.3-0.1-64.9,0.1c-3.4,0-4.7-0.7-4.5-4.3c0.3-6.3,0.2-12.7,0-19c-0.1-2.9,0.6-4.1,3.8-4.1
		c43.8,0.1,87.6,0.1,131.4,0c2.6,0,3.5,0.7,3.5,3.4c-0.2,6.7-0.2,13.3,0,20c0.1,3.5-1.2,4.1-4.3,4C852.3,584.9,830.7,585,809,585z"
		/>
	<path class="st0" d="M1029.2,398c-3,8.6-5.9,16.6-8.6,24.6c-0.7,2.1-2,2.6-4.1,2.6c-36.6-0.1-73.3-0.1-109.9,0
		c-2.6,0-3.4-1.2-4.1-3.3c-2.4-6.7-4.7-13.5-7.5-20.1c-2-4.7,1-3.9,3.6-3.9c40.3,0,80.6,0,120.9,0C1022.4,398,1025.4,398,1029.2,398
		z"/>
	<path class="st0" d="M673.4,291.4c13.5,0,27,0.1,40.5-0.1c3.2,0,4.5,0.8,4.1,4.2c-0.8,7.1-2.4,14.1-4.4,21
		c-0.6,1.9-1.6,2.5-3.6,2.5c-26.2-0.1-52.3-0.1-78.5,0c-2.5,0-3.2-1-3.1-3.2c0.1-7,0.1-14,0-21c-0.1-3.2,1.7-3.4,4.1-3.4
		C646.1,291.4,659.8,291.4,673.4,291.4z"/>
	<path class="st0" d="M673.1,478.6c-13.5,0-27-0.1-40.5,0.1c-3.3,0-4.4-0.9-4.3-4.2c0.2-6.5,0.1-13,0-19.5c0-2.5,0.4-3.9,3.5-3.9
		c26,0.1,52,0.1,78,0c1.9,0,3.1,0.3,3.7,2.3c2.1,7,3.7,14.1,4.5,21.5c0.3,3.3-1,3.9-3.9,3.8C700.4,478.5,686.7,478.6,673.1,478.6z"
		/>
	<path class="st0" d="M912.8,451.3c32.6,0,64.7,0,97.3,0c-3.1,8.7-6.2,17.1-9.2,25.5c-0.7,1.8-2.1,1.8-3.7,1.8
		c-23.8,0-47.6,0-71.5,0c-1.7,0-3.2-0.1-3.9-2.2C919,468.1,915.9,459.9,912.8,451.3z"/>
	<path class="st0" d="M282,318.9c-12.5,0-25-0.2-37.5,0.1c-3.9,0.1-4.8-1.1-4.6-4.8c0.3-6.5,0.2-13,0-19.5c-0.1-2.6,0.8-3.4,3.4-3.4
		c25.8,0.1,51.7,0.1,77.5,0c2.7,0,3.4,1,3.4,3.5c-0.1,6.8-0.2,13.7,0,20.5c0.1,2.9-0.9,3.7-3.7,3.6
		C307.7,318.9,294.8,318.9,282,318.9z"/>
	<path class="st0" d="M282.1,478.6c-12.7,0-25.3-0.1-38,0.1c-3.2,0-4.3-0.8-4.2-4.2c0.3-6.7,0.2-13.3,0-20c-0.1-2.5,0.6-3.5,3.3-3.5
		c25.8,0.1,51.7,0.1,77.5,0c2.6,0,3.5,0.7,3.5,3.4c-0.2,6.8-0.2,13.7,0,20.5c0.1,3.3-1.3,3.8-4.1,3.8
		C307.4,478.5,294.8,478.6,282.1,478.6z"/>
	<path class="st0" d="M835.5,478.6c-12.2,0-24.3-0.2-36.5,0.1c-4.3,0.1-5.3-1.3-5.1-5.3c0.3-6.3,0.2-12.7,0-19
		c-0.1-2.6,0.8-3.4,3.4-3.4c25.8,0.1,51.7,0.1,77.5,0c2.7,0,3.4,0.9,3.4,3.5c-0.1,6.7-0.2,13.3,0,20c0.1,3.4-1,4.2-4.2,4.2
		C861.2,478.5,848.3,478.6,835.5,478.6z"/>
	<path class="st0" d="M1086,451.1c12.5,0,25,0.2,37.5-0.1c3.9-0.1,4.8,1.1,4.6,4.8c-0.3,6.5-0.2,13,0,19.5c0.1,2.6-0.8,3.4-3.4,3.4
		c-25.8-0.1-51.7-0.1-77.5,0c-2.7,0-3.4-1-3.4-3.5c0.1-6.8,0.2-13.7,0-20.5c-0.1-2.9,0.9-3.7,3.7-3.6
		C1060.3,451.1,1073.2,451.1,1086,451.1z"/>
	<path class="st0" d="M504,318.9c-12.7,0-25.3-0.1-38,0.1c-3,0-4.1-0.7-4-3.9c0.2-6.7,0.2-13.3,0-20c-0.1-2.8,0.8-3.8,3.7-3.8
		c25.7,0.1,51.3,0.1,77,0c2.8,0,3.8,0.8,3.8,3.7c-0.2,6.7-0.2,13.3,0,20c0.1,3-0.9,4-4,4C529.7,318.8,516.8,318.9,504,318.9z"/>
	<path class="st0" d="M504.1,478.6c-12.5,0-25-0.1-37.5,0.1c-3.3,0-4.8-0.7-4.6-4.4c0.3-6.5,0.2-13,0-19.5c-0.1-2.7,0.5-3.8,3.5-3.8
		c25.8,0.1,51.6,0.1,77.5,0c2.7,0,3.4,1,3.4,3.5c-0.1,6.7-0.2,13.3,0,20c0.1,3.5-1.3,4.2-4.4,4.1
		C529.4,478.5,516.8,478.6,504.1,478.6z"/>
	<path class="st0" d="M835.6,425.2c-12.5,0-25-0.1-37.5,0.1c-3.2,0-4.4-0.7-4.2-4.1c0.3-6.5,0.2-13,0-19.5c-0.1-2.7,0.6-3.8,3.5-3.7
		c25.7,0.1,51.3,0.1,77,0c2.7,0,3.9,0.5,3.8,3.5c-0.2,6.7-0.2,13.3,0,20c0.1,3.3-1.2,3.8-4.1,3.8
		C861.3,425.1,848.5,425.2,835.6,425.2z"/>
	<path class="st0" d="M1086.5,398c12.5,0,25,0.1,37.5-0.1c3.4-0.1,4.2,1,4.1,4.2c-0.2,6.5-0.1,13,0,19.5c0,2.3-0.2,3.6-3.1,3.6
		c-26-0.1-52-0.1-78,0c-2.4,0-3.1-0.9-3.1-3.2c0.1-6.8,0.2-13.7,0-20.5c-0.1-2.9,0.9-3.6,3.7-3.6C1060.5,398,1073.5,398,1086.5,398z
		"/>
	<path class="st0" d="M282.2,398c12.7,0,25.3,0.1,38-0.1c3,0,4.1,0.6,4,3.8c-0.3,6.7-0.2,13.3,0,20c0.1,2.5-0.6,3.5-3.3,3.5
		c-25.8-0.1-51.7-0.1-77.5,0c-2.6,0-3.5-0.7-3.4-3.4c0.2-6.8,0.2-13.7,0-20.5c-0.1-3.1,1.2-3.5,3.8-3.4
		C256.6,398,269.4,398,282.2,398z"/>
	<path class="st0" d="M282,372c-12.7,0-25.3-0.1-38,0.1c-3.4,0.1-4.2-1-4.1-4.2c0.2-6.5,0.1-13,0-19.5c0-2.3,0.2-3.6,3.1-3.6
		c26,0.1,52,0.1,78,0c2.4,0,3.1,0.9,3.1,3.2c-0.1,6.8-0.2,13.7,0,20.5c0.1,2.9-0.9,3.6-3.7,3.6C307.7,372,294.8,372,282,372z"/>
	<path class="st0" d="M961.8,504.3c8.7,0,17.3,0.1,26,0c2.6,0,3.2,0.6,2.3,3.1c-2.6,7.2-5.1,14.4-7.5,21.7c-0.7,2-1.6,2.9-3.9,2.9
		c-11.2-0.1-22.3-0.1-33.5,0c-2.1,0-3.3-0.6-4.1-2.7c-2.6-7.4-5.3-14.7-8.1-22c-1.1-2.7,0-3,2.4-3
		C944.1,504.4,952.9,504.3,961.8,504.3z"/>
	<path class="st0" d="M962,557.7c10.5,0,10.5,0,6.9,10c-1.7,4.7-3.3,9.4-5.1,14c-0.4,1.1-0.3,3.1-2.1,3c-1.3-0.1-1.4-1.7-1.8-2.7
		c-2.5-6.9-4.8-13.8-7.5-20.6c-1.1-2.8-0.7-4,2.5-3.7C957.3,557.9,959.6,557.7,962,557.7z"/>
</g>
</svg>
