<?xml version="1.0" encoding="utf-8"?>
<!-- Generator: Adobe Illustrator 22.0.1, SVG Export Plug-In . SVG Version: 6.00 Build 0)  -->
<svg version="1.1" id="Layer_1" xmlns="http://www.w3.org/2000/svg" xmlns:xlink="http://www.w3.org/1999/xlink" x="0px" y="0px"
	 viewBox="0 0 300 134.8" style="enable-background:new 0 0 300 134.8;" xml:space="preserve">
<style type="text/css">
	.st0{fill:#AAAAAA;}
</style>
<g>
	<path class="st0" d="M156.7,45.3c-11.7-0.2-21.4,9.2-21.6,20.9c0,0.4,0,0.7,0,1.1v41.8l10.9-6.3V84.5c3.2,2.4,7,3.6,11,3.5
		c11.8,0.3,21.6-9.1,21.9-20.9c0.3-11.8-9.1-21.6-20.9-21.9C157.5,45.3,157.1,45.3,156.7,45.3L156.7,45.3z M156.7,77.3
		c-5.9,0-10.6-4.8-10.6-10.6c0-5.9,4.8-10.7,10.6-10.7c5.9,0,10.7,4.8,10.7,10.7l0,0c0.3,5.6-4,10.4-9.6,10.6
		C157.4,77.3,157,77.3,156.7,77.3z M231.1,31.9l10.9-6.3v60.8h-10.9V31.9z M204,45.3c-11.8,0.1-21.3,9.8-21.2,21.6
		c0.1,11.8,9.8,21.3,21.6,21.2c11.7-0.1,21.2-9.7,21.2-21.4c0.1-11.7-9.4-21.3-21.2-21.4C204.3,45.3,204.2,45.3,204,45.3L204,45.3z
		 M204,77.3c-5.9,0-10.7-4.8-10.7-10.6c0-5.9,4.8-10.7,10.7-10.7c5.9,0,10.6,4.8,10.6,10.7l0,0c0.3,5.6-4,10.4-9.6,10.6
		C204.7,77.3,204.3,77.3,204,77.3L204,77.3z M291.8,46.9L266.3,105h-11.6l8.8-19.4l-17.1-38.7h11.9l11.2,25.4l10.6-25.4H291.8z"/>
	<path class="st0" d="M101.1,58.2L78.8,71.1l0.1-0.6V70v-0.9v-0.1v-1.1v-2v-1.2l-0.1-1.1l-0.1-1.2l-0.1-0.7l-0.2-1.2l-0.2-1.2L78,58
		l-0.3-1.1l-0.2-0.7l-0.3-1.1L76.8,54l-0.3-0.9l-0.4-1l-0.5-1l-0.5-1l-0.5-1l-0.6-0.9v-0.1l-0.6-0.9l-0.6-0.9l-0.7-0.9l-0.7-0.9
		l-0.7-0.9l-0.1-0.1l-0.8-0.9l-0.8-0.9l-0.9-0.9L67.3,40l0,0l-1-0.9l-1-0.9l-1.1-0.8L63,36.6l-1.3-0.9l-0.9-0.6l-1.5-0.9l-1.6-1
		l-0.5-0.3l-2-1.2l-0.5-0.3l-1.3-0.7L8.2,4.5v16.4l22.3,12.9L30,34l-0.5,0.2l-0.8,0.4l0,0l0,0l-1,0.5l-1,0.6l-0.7,0.4l-1,0.7
		L24,37.4l-1,0.7l-0.5,0.4l-0.9,0.7L20.5,40l-0.9,0.8l-0.8,0.8l-0.5,0.5L17.5,43l-0.7,0.9l-0.6,0.7l-0.7,0.9l-0.6,0.9l-0.6,0.9
		l-0.6,0.9l-0.6,1v0.1l-0.5,1l-0.5,1l-0.5,1l-0.4,1l-0.4,1.1v0.1l-0.4,1.1l-0.3,1.1l-0.3,1.2l-0.3,1.2v0.1l-0.2,1.3l-0.2,1.3
		l-0.2,1.3l-0.2,1.4l-0.1,1.6v1.1L8.5,69v1.9v57.1l14.2-8.2V94.2l0.5,0.4l0.4,0.3l0.7,0.5l0,0l0,0l0.9,0.6l1,0.6L27,97l1.1,0.6
		l1,0.5l1.1,0.5l0.6,0.2l1.1,0.5l1.1,0.4l1.1,0.4l1.1,0.3l0.7,0.2l1.1,0.3l1.1,0.2l0.9,0.2l1.1,0.2l1.1,0.1l1.1,0.1h1.1h1.2h1.1
		l1.1-0.1l1.1-0.1l1.1-0.2l1.1-0.2h0.1l1.2-0.2l1.2-0.3l1.2-0.3l1.2-0.4l0,0l1.2-0.4l1.3-0.5l1.2-0.5l1.4-0.6l1.4-0.7l1-0.5l1.6-0.8
		l1.7-0.9l0.5-0.3l2-1.2l0.5-0.3l1.3-0.7l45.1-26.1L101.1,58.2z M43.9,87.4c-11.7,0-21.1-9.4-21.1-21.1c0-11.7,9.4-21.1,21.1-21.1
		c11.7,0,21.1,9.4,21.1,21.1c0,0,0,0,0,0C65,78,55.5,87.4,43.9,87.4z"/>
</g>
</svg>
