<svg xmlns="http://www.w3.org/2000/svg" width="101.287" height="101.677" viewBox="0 0 101.287 101.677">
  <g id="Grupo_696" data-name="Grupo 696" transform="translate(0)">
    <path id="Trazado_891" data-name="Trazado 891" d="M218.019.033q5.546,2.088,11.092,4.178a5.2,5.2,0,0,1,1.836.943,2.951,2.951,0,0,1-.017,4.409c-3.22,2.746-6.472,5.459-9.793,8.083a2.966,2.966,0,0,1-4.716-1.837c-.087-.386-.16-.774-.25-1.211a29.6,29.6,0,0,0-4.073,2.04c-.285.165-.565.344-.863.484a1.417,1.417,0,0,1-1.969-.557,1.343,1.343,0,0,1,.415-1.925,35.645,35.645,0,0,1,7.265-3.577,1.408,1.408,0,0,1,1.857,1.143c.172.773.3,1.558.4,2.344.068.508.141.783.683.333,2.971-2.475,5.954-4.934,9.09-7.529L217.284,2.981c.156.978.277,1.839.433,2.693.278,1.533.058,1.922-1.494,2.51A45.239,45.239,0,0,0,194.892,24.5,44.471,44.471,0,0,0,186.6,54.321c.052.724.108,1.452.221,2.169a1.434,1.434,0,1,0,2.851-.314,52.037,52.037,0,0,1-.263-6.441,41.949,41.949,0,0,1,14.323-30.72,1.534,1.534,0,0,1,2.285-.079c.632.686.53,1.549-.344,2.332a39.352,39.352,0,0,0-13.123,33.406,7.784,7.784,0,0,1-.022,2.861,4.435,4.435,0,0,1-8.676-.667A48.33,48.33,0,0,1,208.773,8.325a44.35,44.35,0,0,1,5.186-2.446c.568-.218.763-.466.609-1.081a5.682,5.682,0,0,1-.251-2.056A3.367,3.367,0,0,1,216.629.033Z" transform="translate(-181.085 -0.013)" fill="#009fdd"/>
    <path id="Trazado_892" data-name="Trazado 892" d="M314.727,32.953c1.952,0,3.9-.007,5.855,0,1.07.006,1.745.584,1.751,1.464a1.535,1.535,0,0,1-1.727,1.506q-5.955.019-11.91,0c-1.068,0-1.743-.6-1.751-1.484s.656-1.481,1.727-1.487c2.018-.01,4.036,0,6.054,0" transform="translate(-228.63 -12.688)" fill="#009fdd"/>
    <path id="Trazado_893" data-name="Trazado 893" d="M314.61,45.975c-1.985,0-3.969.009-5.954,0-1.068-.006-1.727-.6-1.71-1.5A1.53,1.53,0,0,1,308.616,43q6-.024,12.007,0a1.53,1.53,0,0,1,1.71,1.526c-.018.878-.691,1.438-1.769,1.443-1.985.009-3.969,0-5.954,0" transform="translate(-228.63 -16.554)" fill="#009fdd"/>
    <path id="Trazado_894" data-name="Trazado 894" d="M226.354,149.606c-1.352,0-2.7.01-4.056,0-1.07-.01-1.714-.584-1.709-1.486s.649-1.479,1.723-1.484q4.155-.02,8.309,0c1.067.006,1.71.6,1.706,1.5s-.64,1.464-1.721,1.472c-1.418.012-2.835,0-4.253,0" transform="translate(-195.378 -56.458)" fill="#009fdd"/>
    <path id="Trazado_895" data-name="Trazado 895" d="M325.191,4.962c.018-2.454-.827-4.14-3.2-4.942h-10.92a6.256,6.256,0,0,0-.958,0c-2.926.212-4.377,2.4-7.882,6.054-1.8,1.877-7.029,7.157-7.282,9.206-.006.047-.2,1.643-.2,1.641-.009.068-.125,11.854-.048,17.263a3.679,3.679,0,0,0,3.613,3.676c3.8.111,7.607.069,11.411.025a1.456,1.456,0,0,0,1.325-2.116,1.6,1.6,0,0,0-1.651-.842c-3.441.013-6.881,0-10.321.012-.854,0-1.443-.253-1.444-1.208-.006-5.028-.026-10.057.015-15.085a2.42,2.42,0,0,1,2.678-2.537c2.051-.011,4.1.007,6.153,0a3.95,3.95,0,0,0,4.241-4.192c.018-2.051-.014-4.1.009-6.154A2.5,2.5,0,0,1,313.506,3c2.414-.01,4.829-.006,7.244,0,1.116,0,1.433.3,1.433,1.384q.005,14.59,0,29.178c0,1.028-.331,1.352-1.368,1.364-1.257.014-2.514,0-3.771,0-1.224.008-1.828.49-1.841,1.447-.013.986.637,1.518,1.89,1.528,1.157.009,2.315,0,3.473,0,3.026,0,4.6-1.561,4.6-4.562,0-9.461-.039-18.923.027-28.383M307.743,8.018c0,1.323,0,2.645,0,3.968,0,.664-.3,1.114-.977,1.122-2.268.026-4.538.01-7.037.01,2.663-2.658,5.143-5.132,7.624-7.607.067-.066.146-.122.391-.322V8.018" transform="translate(-223.904 0)" fill="#009fdd"/>
    <path id="Trazado_896" data-name="Trazado 896" d="M310.3,70.473a4.371,4.371,0,0,0-4.093-3.9,4.477,4.477,0,0,0-4.565,3.233,7.174,7.174,0,0,0-.036,2.76,37.495,37.495,0,0,1-.1,8.907,39.158,39.158,0,0,1-14.122,25.554,37.672,37.672,0,0,1-9.372,5.736c-.095-.443-.172-.824-.258-1.2a2.971,2.971,0,0,0-4.777-1.828q-4.924,3.924-9.706,8.024a2.929,2.929,0,0,0,.843,4.976c3.925,1.542,7.886,2.994,11.859,4.409a2.939,2.939,0,0,0,3.811-2.184,5.321,5.321,0,0,0-.183-2.444c-.109-.557-.014-.788.549-1.013a43.009,43.009,0,0,0,9.232-4.928q23.681-17.033,20.923-46.1M277.811,119.2c-1.365.5-1.63.984-1.372,2.407.153.844.277,1.693.411,2.54,0,.025-.031.057-.088.156l-11.567-4.306c1.825-1.513,3.519-2.919,5.214-4.322,1.274-1.054,2.561-2.093,3.819-3.164.515-.439.678-.344.74.307s.213,1.3.338,1.951c.28,1.453,1.05,1.893,2.412,1.353A42.621,42.621,0,0,0,304.569,72.3c-.034-.4-.079-.791-.083-1.187a1.42,1.42,0,0,1,1.323-1.557,1.356,1.356,0,0,1,1.524,1.245c.154,1.146.283,2.3.335,3.454A45.457,45.457,0,0,1,277.811,119.2" transform="translate(-211.41 -25.629)" fill="#009fdd"/>
    <path id="Trazado_897" data-name="Trazado 897" d="M268.582,73.544c-.939-.729-1.9-1.436-2.861-2.131a.94.94,0,0,1-.451-1,11.763,11.763,0,0,0,.006-3.461,1,1,0,0,1,.473-1.083c.969-.688,1.913-1.414,2.863-2.128a3.511,3.511,0,0,0,1.439-3.03,3.255,3.255,0,0,0-.522-1.552c-.635-1.12-1.266-2.241-1.928-3.345a3.316,3.316,0,0,0-4.493-1.5c-1.1.446-2.189.917-3.271,1.4a.892.892,0,0,1-1.065-.111,12.356,12.356,0,0,0-3.072-1.784.889.889,0,0,1-.618-.874c-.133-1.248-.267-2.5-.48-3.735a3.229,3.229,0,0,0-3.23-2.92,39.425,39.425,0,0,0-4.364,0,3.261,3.261,0,0,0-3.256,3.01c-.173,1.043-.289,2.1-.371,3.15a1.56,1.56,0,0,1-1.151,1.583,8.929,8.929,0,0,0-2.626,1.564.885.885,0,0,1-1.064.121c-1.14-.518-2.284-1.034-3.45-1.489a3.263,3.263,0,0,0-4.2,1.413q-1.095,1.766-2.088,3.595a3.309,3.309,0,0,0,.96,4.484,14.381,14.381,0,0,0,1.832,1.353,2.5,2.5,0,0,1,1.435,3.048,5.827,5.827,0,0,0,.054,1.972,1.335,1.335,0,0,1-.641,1.485c-.911.595-1.764,1.282-2.626,1.948a3.329,3.329,0,0,0-.949,4.639q.91,1.647,1.874,3.262a3.366,3.366,0,0,0,4.655,1.507c1.036-.429,2.066-.871,3.086-1.333a.966.966,0,0,1,1.154.106,11.453,11.453,0,0,0,2.987,1.729.972.972,0,0,1,.68.949c.121,1.216.262,2.432.457,3.638a3.3,3.3,0,0,0,3.284,2.988c1.419.064,2.846.061,4.265,0a3.277,3.277,0,0,0,3.3-2.965c.212-1.237.351-2.487.474-3.736a.9.9,0,0,1,.649-.851,12.408,12.408,0,0,0,2.986-1.737.968.968,0,0,1,1.151-.134q1.62.735,3.271,1.4a3.317,3.317,0,0,0,4.428-1.456c.678-1.133,1.342-2.274,1.975-3.432a3.344,3.344,0,0,0-.962-4.57m-1.748,3.345c-.606.983-1.167,1.994-1.746,2.993-.131.225-.232.489-.58.468-.2-.081-.42-.16-.632-.251-1.333-.571-2.671-1.13-3.994-1.722a1.773,1.773,0,0,0-2.093.317,12.482,12.482,0,0,1-4.264,2.454,1.647,1.647,0,0,0-1.236,1.5c-.16,1.511-.385,3.016-.527,4.529-.062.665-.316.927-.994.9-1.057-.043-2.118-.046-3.175,0-.7.031-.924-.271-.982-.915-.128-1.415-.327-2.824-.466-4.238a1.966,1.966,0,0,0-1.492-1.857,11.187,11.187,0,0,1-4-2.326,1.9,1.9,0,0,0-2.273-.325c-1.289.589-2.61,1.106-3.894,1.705-.62.289-1,.263-1.329-.414a20.657,20.657,0,0,0-1.478-2.573c-.446-.657-.4-1.052.276-1.513,1.2-.818,2.331-1.738,3.5-2.6a1.719,1.719,0,0,0,.748-1.892,12.139,12.139,0,0,1,0-4.924,1.719,1.719,0,0,0-.716-1.9c-1.25-.921-2.476-1.877-3.736-2.784-.434-.313-.528-.588-.237-1.06.606-.982,1.2-1.975,1.734-3,.3-.573.625-.537,1.116-.317,1.353.606,2.729,1.164,4.081,1.773a1.837,1.837,0,0,0,2.184-.329,12.025,12.025,0,0,1,4.174-2.413,1.726,1.726,0,0,0,1.3-1.563c.161-1.478.374-2.952.5-4.433.062-.707.328-.985,1.054-.949,1.056.052,2.117.041,3.174,0,.648-.024.864.26.923.864.145,1.48.355,2.953.509,4.432a1.765,1.765,0,0,0,1.319,1.651,11.87,11.87,0,0,1,4.175,2.411,1.833,1.833,0,0,0,2.181.32c1.354-.6,2.729-1.162,4.08-1.773.505-.229.821-.225,1.111.331.534,1.023,1.127,2.017,1.73,3,.292.477.181.748-.25,1.059-1.234.888-2.426,1.832-3.656,2.725a1.756,1.756,0,0,0-.779,1.965,11.683,11.683,0,0,1,.006,4.827A1.815,1.815,0,0,0,263,73.09c1.205.871,2.367,1.8,3.58,2.661.483.342.558.638.25,1.137" transform="translate(-198.351 -17.804)" fill="#009fdd"/>
    <path id="Trazado_898" data-name="Trazado 898" d="M221.645,132.532a4.781,4.781,0,0,0-.994-3.051c-.267-.334-.34-.533-.03-.908a4.879,4.879,0,0,0,1.027-3.236c0-1.952.007-3.9,0-5.857-.016-3.256-2-5.226-5.279-5.229q-7.892-.009-15.784,0c-5.328,0-10.655-.013-15.982.006a4.8,4.8,0,0,0-5,4.994c-.014,2.018.014,4.037-.009,6.055a4.951,4.951,0,0,0,1,3.245.61.61,0,0,1,.007.924,4.738,4.738,0,0,0-1,3.141c.015,2.085-.012,4.169.009,6.254a4.73,4.73,0,0,0,4.693,4.895c5.79.082,11.581.039,17.372.022a1.424,1.424,0,0,0,1.585-1.514c-.018-.863-.563-1.375-1.557-1.443-.3-.02-.6-.009-.893-.009q-7.942,0-15.883,0c-1.693,0-2.337-.659-2.341-2.346,0-1.919-.009-3.838,0-5.758.007-1.505.668-2.191,2.18-2.192q15.833-.014,31.667,0c1.561,0,2.23.684,2.242,2.245.014,1.853.006,3.706,0,5.559s-.632,2.492-2.509,2.5c-2.316,0-4.632,0-6.949,0a1.831,1.831,0,0,0-1.551.484,1.4,1.4,0,0,0-.283,1.561,1.543,1.543,0,0,0,1.6.932c2.581,0,5.162.039,7.743-.011a4.833,4.833,0,0,0,4.923-5c.03-2.084.013-4.169,0-6.254m-2.978-7.318c-.01,1.607-.7,2.316-2.294,2.318q-15.78.011-31.56,0c-1.552,0-2.229-.709-2.235-2.259q-.012-2.928,0-5.855c.007-1.505.673-2.182,2.179-2.185q7.89-.014,15.78,0,7.84,0,15.68,0c1.837,0,2.446.6,2.451,2.428,0,1.853.009,3.706,0,5.558" transform="translate(-179.591 -43.99)" fill="#009fdd"/>
    <path id="Trazado_899" data-name="Trazado 899" d="M191.439,142.1a4.28,4.28,0,1,0,4.263,4.316,4.323,4.323,0,0,0-4.263-4.316m-.068,5.576a1.25,1.25,0,0,1-1.272-1.256,1.306,1.306,0,0,1,1.3-1.341,1.323,1.323,0,0,1,1.324,1.315,1.3,1.3,0,0,1-1.348,1.282" transform="translate(-182.484 -54.716)" fill="#009fdd"/>
    <path id="Trazado_900" data-name="Trazado 900" d="M206.5,142.1a4.281,4.281,0,1,0,.061,8.562,4.281,4.281,0,0,0-.061-8.562m-.042,5.576a1.245,1.245,0,0,1-1.236-1.288,1.308,1.308,0,0,1,1.331-1.307,1.277,1.277,0,0,1,1.269,1.351,1.25,1.25,0,0,1-1.363,1.244" transform="translate(-188.308 -54.715)" fill="#009fdd"/>
    <path id="Trazado_901" data-name="Trazado 901" d="M226.46,127.986c-1.385,0-2.77.01-4.155,0-1.076-.01-1.717-.577-1.716-1.48s.645-1.486,1.716-1.491q4.155-.021,8.309,0c1.071,0,1.713.59,1.714,1.491s-.635,1.468-1.714,1.479c-1.385.013-2.77,0-4.155,0" transform="translate(-195.378 -48.133)" fill="#009fdd"/>
    <path id="Trazado_902" data-name="Trazado 902" d="M256.561,67.821a9.144,9.144,0,1,0,9.113,9.145,9.143,9.143,0,0,0-9.113-9.145m-.007,15.31a6.166,6.166,0,1,1,6.142-6.188,6.16,6.16,0,0,1-6.142,6.188" transform="translate(-205.697 -26.115)" fill="#009fdd"/>
    <path id="Trazado_903" data-name="Trazado 903" d="M191.412,120.47a4.335,4.335,0,0,0-4.308,4.286,4.3,4.3,0,1,0,4.308-4.286m-.01,5.582a1.323,1.323,0,0,1-1.315-1.324,1.337,1.337,0,0,1,1.376-1.272,1.259,1.259,0,0,1,1.25,1.283,1.273,1.273,0,0,1-1.311,1.312" transform="translate(-182.484 -46.388)" fill="#009fdd"/>
    <path id="Trazado_904" data-name="Trazado 904" d="M206.544,120.47a4.283,4.283,0,1,0-.037,8.565,4.283,4.283,0,0,0,.037-8.565m-.033,5.584a1.3,1.3,0,1,1,1.309-1.307,1.268,1.268,0,0,1-1.309,1.307" transform="translate(-188.307 -46.388)" fill="#009fdd"/>
  </g>
</svg>
