<svg xmlns="http://www.w3.org/2000/svg" width="101.668" height="101.677" viewBox="0 0 101.668 101.677">
  <path id="Trazado_915" data-name="Trazado 915" d="M101.5,25.448c-.558-1.44-1.811-1.44-3.053-1.5-1.323-.066-2.645-.17-4.179-.272,1.181-1.164,2.2-2.152,3.2-3.159.855-.86.938-1.773.247-2.42-.664-.621-1.51-.515-2.345.32-1.016,1.015-2.018,2.045-3.179,3.226-.1-1.649-.241-3.024-.253-4.4a3.081,3.081,0,0,0-1.594-3.019h-1.39a3.24,3.24,0,0,0-1.383.906c-3.105,3.119-6.2,6.248-9.342,9.329a4.349,4.349,0,0,0-1.343,4.136c.224,1.248-.085,2.514.364,3.839a1.392,1.392,0,0,1-.574-.292A46.917,46.917,0,0,0,42.39,21.886,46.975,46.975,0,0,0,11.065,38.219,46.749,46.749,0,0,0,.908,58.4,60.053,60.053,0,0,0,0,64.85v.795c.122.109.1.257.1.4s.02.288-.1.4v.794a1.519,1.519,0,0,1,0,1.192v1.985c.193.232.064.509.1.762-.028.21.074.442-.1.628V72.99c.319.1.2.382.218.584a47.069,47.069,0,0,0,11.9,26.8,1.472,1.472,0,0,0,1.68.527,1.429,1.429,0,0,0,1-1.344,2.067,2.067,0,0,0-.723-1.466C5.034,87.566,1.4,75.412,3.617,61.725c2.033-12.549,8.547-22.416,19.106-29.477a42.7,42.7,0,0,1,31.586-6.719A43.4,43.4,0,0,1,76.5,36.187c.512.453.448.673,0,1.105-1.826,1.777-3.647,3.561-5.4,5.412-.63.667-.972.7-1.7.087a33.626,33.626,0,0,0-29.333-7.666c-18,3.5-30.055,21.051-27.137,39.27a34.4,34.4,0,0,0,45.155,27.077c12.062-4.222,19.571-12.824,22.579-25.285.254-1.053-.164-1.829-1.033-2.016-.912-.2-1.552.268-1.836,1.335-.1.383-.191.769-.291,1.151A31.49,31.49,0,1,1,43.466,37.631,30.719,30.719,0,0,1,67.487,45c.553.461.649.7.072,1.251-1.867,1.781-3.685,3.616-5.478,5.472-.48.5-.741.554-1.32.092a21.461,21.461,0,0,0-16.788-4.668A21.961,21.961,0,1,0,64,55c-.228-.281-.574-.489-.1-.946,2.02-1.956,4-3.957,5.973-5.959.312-.316.493-.327.764.025.523.681,1.108,1.317,1.617,2.009a30.922,30.922,0,0,1,6.206,18.06,2.133,2.133,0,0,0,.359,1.411,1.375,1.375,0,0,0,1.588.509A1.54,1.54,0,0,0,81.451,68.4,33.862,33.862,0,0,0,73.1,46.461c-.537-.63-.667-.981.02-1.626,1.857-1.743,3.642-3.564,5.408-5.4.5-.525.744-.561,1.248.022,9.617,11.142,13.121,24,10.263,38.379a42.209,42.209,0,0,1-18.306,27.389,42.792,42.792,0,0,1-32.67,6.922,43.512,43.512,0,0,1-19.543-8.867c-.917-.721-1.788-.648-2.344.115a1.513,1.513,0,0,0,.522,2.224C29.087,114.4,41.9,117.685,56.024,114.97A46.738,46.738,0,0,0,93.863,72.086a46.058,46.058,0,0,0-8.62-30.461c-.738-1.041-1.536-2.041-2.39-3.171,1.643.106,3.155.152,4.654.317a4.461,4.461,0,0,0,3.933-1.4c2.917-2.979,5.882-5.91,8.837-8.853.855-.852,1.774-1.661,1.227-3.069M65.969,66.778c-.018,12.076-7.68,20.323-17.6,21.068a19,19,0,1,1,10.08-34.115c.689.518.871.815.135,1.5-1.835,1.717-3.589,3.523-5.345,5.323-.468.48-.771.622-1.444.212A9.438,9.438,0,0,0,38.274,72.557a9.449,9.449,0,1,0,16.833-8.484c-.354-.595-.36-.886.15-1.376,1.885-1.811,3.729-3.664,5.548-5.541.488-.5.737-.516,1.171.057,2.617,3.463,3.989,7.339,3.992,9.565M45.955,69.954a1.46,1.46,0,0,0,2.2-.135c1.232-1.2,2.437-2.427,3.654-3.642.76-.758.763-.756,1.186.245a6.507,6.507,0,1,1-6.3-3.988,5.878,5.878,0,0,1,3.689.973L46.8,66.981c-.257.257-.523.507-.768.775a1.468,1.468,0,0,0-.074,2.2m34.1-42.388a.975.975,0,0,1,.36-.779L88.987,18.2c.133,2.144.25,4.065.374,5.985a.638.638,0,0,1-.258.506c-2.829,2.856-5.66,5.71-8.65,8.725-.145-2.117-.27-3.981-.4-5.845m9.106,7.858a1.353,1.353,0,0,1-1.161.4c-1.747-.137-3.5-.247-5.253-.368-.06-.343.246-.443.41-.609,2.587-2.6,5.192-5.19,7.773-7.8a1.493,1.493,0,0,1,1.294-.512c1.742.143,3.488.241,5.49.374-2.986,2.972-5.774,5.74-8.553,8.519" transform="translate(0 -14.22)" fill="#009fdd"/>
</svg>
